<svg xmlns="http://www.w3.org/2000/svg" width="538.064" height="484.78" viewBox="0 0 538.064 484.78">
  <g id="illu" transform="translate(-668 -519.447)">
    <g id="background-image-4" transform="translate(668 249)">
      <path id="Path_25" data-name="Path 25" d="M206.7,674.194h36.841l90.788-35.526s64.473-26.315,59.209,23.684-14.473,117.1-14.473,117.1-28.947-13.158-44.736-9.21-5.263-80.262-5.263-80.262S200.123,751.824,188.281,743.93s-14.473-63.157-14.473-63.157Z" transform="translate(-61.968 -72.386)" fill="#2f2e41"/>
      <path id="Path_26" data-name="Path 26" d="M206.7,674.194h36.841l90.788-35.526s64.473-26.315,59.209,23.684-14.473,117.1-14.473,117.1-28.947-13.158-44.736-9.21-5.263-80.262-5.263-80.262S200.123,751.824,188.281,743.93s-14.473-63.157-14.473-63.157Z" transform="translate(-61.968 -72.386)" opacity="0.1"/>
      <path id="Path_27" data-name="Path 27" d="M264.746,558.82l44.586,64.059L413.277,709.72s96.051,22.368,82.893,38.157-93.419-15.789-93.419-15.789-119.735-86.84-123.682-93.419-47.367-68.42-47.367-68.42Z" transform="translate(-61.968 -72.386)" fill="#a0616a"/>
      <path id="Path_28" data-name="Path 28" d="M264.746,558.82l44.586,64.059L413.277,709.72s96.051,22.368,82.893,38.157-93.419-15.789-93.419-15.789-119.735-86.84-123.682-93.419-47.367-68.42-47.367-68.42Z" transform="translate(-61.968 -72.386)" opacity="0.1"/>
      <path id="Path_29" data-name="Path 29" d="M238.281,507.092l28.947,56.578s-6.579,27.631-17.1,30.263-55.262-34.21-55.262-34.21Z" transform="translate(-61.968 -72.386)" fill="#d0cde1"/>
      <path id="Path_30" data-name="Path 30" d="M238.281,507.092l28.947,56.578s-6.579,27.631-17.1,30.263-55.262-34.21-55.262-34.21Z" transform="translate(-61.968 -72.386)" opacity="0.1"/>
      <path id="Path_31" data-name="Path 31" d="M591.419,644.9l8.551,35.272a2.2,2.2,0,0,1-.043,1.19L561.14,802.574a2.2,2.2,0,0,1-4.287-.423l-5.366-47.219a2.2,2.2,0,0,1,.094-.931l35.6-109.264a2.2,2.2,0,0,1,4.235.163Z" transform="translate(-61.968 -72.386)" fill="#2f2e41"/>
      <path id="Path_32" data-name="Path 32" d="M526.306,575.493l7.894,30.263L499.99,716.28,492.1,682.07Z" fill="#f2f2f2"/>
      <path id="Path_33" data-name="Path 33" d="M415.909,812.35c1.316,3.947,136.839-1.316,138.155-2.632a28.565,28.565,0,0,0,2.895-5.263c1.237-2.632,2.368-5.263,2.368-5.263l-5.263-42.6-134.208-4.763s-3.355,36.1-4.039,52.631C415.646,808.626,415.646,811.56,415.909,812.35Z" transform="translate(-61.968 -72.386)" fill="#2f2e41"/>
      <path id="Path_34" data-name="Path 34" d="M474.991,689.965l2.631,36.841H418.413V689.965Z" opacity="0.1"/>
      <path id="Path_35" data-name="Path 35" d="M398.677,701.806l.353-.07-1.669,15.86H364.467v-15.79Z" opacity="0.1"/>
      <path id="Path_36" data-name="Path 36" d="M415.909,812.35c1.316,3.947,136.839-1.316,138.155-2.632a28.565,28.565,0,0,0,2.895-5.263H415.817C415.646,808.626,415.646,811.56,415.909,812.35Z" transform="translate(-61.968 -72.386)" opacity="0.1"/>
      <circle id="Ellipse_16" data-name="Ellipse 16" cx="59.209" cy="59.209" r="59.209" transform="translate(136.84 297.867)" fill="#a0616a"/>
      <path id="Path_37" data-name="Path 37" d="M254.07,482.093s-19.736,34.21-23.684,52.631-59.209-36.841-59.209-36.841L163.94,478.8s51.973-24.342,48.025-44.078S254.07,482.093,254.07,482.093Z" transform="translate(-61.968 -72.386)" fill="#a0616a"/>
      <path id="Path_38" data-name="Path 38" d="M264.6,584.722l53.946,71.051,128.945,96.051s93.419,19.737,72.367,34.21-81.577-13.158-81.577-13.158-130.261-69.735-157.892-98.682-78.946-77.63-78.946-77.63Z" transform="translate(-61.968 -72.386)" fill="#a0616a"/>
      <path id="Path_39" data-name="Path 39" d="M192.229,695.247l15.789,25L302.249,690.6c20.676-6.5,43.348-4.111,61.687,7.442,16.447,10.362,26.973,26.809,3.289,51.15-47.367,48.683-78.946,22.368-78.946,22.368s-159.208,75-185.523,38.157-27.631-55.262-27.631-55.262S176.44,691.3,192.229,695.247Z" transform="translate(-61.968 -72.386)" fill="#2f2e41"/>
      <path id="Path_40" data-name="Path 40" d="M389.593,782.087s42.1,27.631-7.895,40.789-86.84-5.263-86.84-5.263-43.42,0-43.42-22.368,14.473-25,14.473-25l44.736,6.579S364.594,762.351,389.593,782.087Z" transform="translate(-61.968 -72.386)" fill="#d0cde1"/>
      <path id="Path_41" data-name="Path 41" d="M306.589,414.568c4.03,1.8,8.026,3.923,12.408,4.444s9.371-1.008,11.444-4.9c1.12-2.1,1.248-4.578,1.3-6.961.158-7.225-.364-15.036-4.943-20.627-2.914-3.559-7.167-5.8-10.184-9.274-2.161-2.488-3.6-5.5-5.148-8.411-5.866-11.017-14.551-21.606-26.622-24.782-5.04-1.326-10.328-1.262-15.539-1.188l-30.4.429c-4.919.069-9.914.15-14.623,1.574-9.784,2.958-16.908,11.186-23.432,19.054-4.881,5.887-9.775,11.834-13.439,18.547a65.079,65.079,0,0,0-7.714,31.887,29.834,29.834,0,0,0,1.093,8.437,46.822,46.822,0,0,0,3.316,7.284c5.7,11.2,9.085,25.182,2.665,35.983,11.152-4.555,22.186-10.528,29.542-20.068,3.291-4.267,5.872-9.263,10.258-12.395s11.532-3.4,14.346,1.193a12.857,12.857,0,0,1,1.451,6.022c.206,3.45.2,7.033,1.663,10.164s4.947,5.658,8.273,4.721c5.729-1.614,5.18-10.406,9.593-14.4,3.351-3.033,8.521-2.453,12.826-3.83,5.016-1.6,8.779-5.95,10.924-10.759,1.63-3.656,1.606-13.223,4.691-15.2C294.208,409.022,303,412.969,306.589,414.568Z" transform="translate(-61.968 -72.386)" fill="#2f2e41"/>
      <path id="Path_42" data-name="Path 42" d="M159.24,472.562a15.615,15.615,0,0,1,8.128.021c8.446,2.268,27.38,8.27,31.44,17.4,5.263,11.842,23.684,30.263,23.684,30.263s25,25,19.736,42.1-25,36.841-25,36.841,5.263,81.577-21.052,102.63-36.841,6.579-36.841,26.315-81.578,81.577-97.367,43.42c0,0,7.895-71.051,5.263-96.051C64.638,650.871,68.435,497.145,159.24,472.562Z" transform="translate(-61.968 -72.386)" fill="#d0cde1"/>
      <path id="Path_43" data-name="Path 43" d="M201.439,505.777s80.262,59.209,65.788,84.209c0,0-48.683,23.684-59.209,22.368s-51.315-47.367-61.841-51.315S130.388,486.04,201.439,505.777Z" transform="translate(-61.968 -72.386)" fill="#d0cde1"/>
    </g>
  </g>
</svg>
