<svg id="Layer_1" enable-background="new 0 0 511.774 511.774" height="512" viewBox="0 0 511.774 511.774" width="512" xmlns="http://www.w3.org/2000/svg"><g><circle cx="37.073" cy="240.887" fill="#fec165" r="29.744"/><path d="m355.15 415.887c-8.837 0-16-7.163-16-16v-318c0-8.837 7.163-16 16-16 8.837 0 16 7.163 16 16v318c0 8.837-7.164 16-16 16z" fill="#eb5569"/><path d="m147.073 325.887h-78.693c-17.291 0-31.308-14.017-31.308-31.308v-107.384c0-17.291 14.017-31.308 31.308-31.308h78.692v170z" fill="#eb5569"/><path d="m339.145 81.887v318c-66.46-69-192.07-74-192.07-74v-170s125.61-5 192.07-74z" fill="#fff7f3"/><path d="m309.145 106.669v268.436c10.785 7.175 20.944 15.38 30 24.782v-318c-9.056 9.402-19.215 17.608-30 24.782z" fill="#ffeee7"/><path d="m147.075 271.887h-20.508c-4.69 0-8.492-3.802-8.492-8.492v-45.015c0-4.69 3.802-8.492 8.492-8.492h20.508z" fill="#fec165"/><path d="m147.329 413.887h-60l-.254-88h60z" fill="#8379c1"/><path d="m147.075 325.887h-30l.254 88h30z" fill="#6e61b6"/><path d="m148.329 445.887h-62c-8.837 0-16-7.163-16-16 0-8.837 7.163-16 16-16h62c8.837 0 16 7.163 16 16 0 8.837-7.163 16-16 16z" fill="#eb5569"/><path d="m148.329 413.887h-30c8.836 0 16 7.163 16 16 0 8.837-7.164 16-16 16h30c8.836 0 16-7.163 16-16 0-8.836-7.164-16-16-16z" fill="#e53950"/><g><path d="m355.149 58.387c-11.826 0-21.635 8.782-23.26 20.167-63.146 63.312-180.571 69.623-184.985 69.833h-78.523c-21.399 0-38.809 17.409-38.809 38.808v17.207c-39.432 8.49-39.428 64.591 0 72.973v17.204c0 21.398 17.409 38.808 38.809 38.808h11.216l.047 16.214c.012 4.135 3.367 7.479 7.5 7.479h.021c4.143-.012 7.49-3.379 7.479-7.521l-.047-16.171h45l.211 73h-45l-.062-21.444c-.012-4.135-3.367-7.479-7.5-7.479h-.021c-4.143.012-7.49 3.379-7.479 7.521l.064 22.328c-25.79 8.024-20.774 45.408 6.519 46.073h62c27.336-.675 32.289-38.106 6.481-46.084l-.211-73.359c27.75 2.434 122.757 14.598 177.291 69.276 4.921 28.565 45.86 25.826 46.76-3.333v-204.871c-.344-9.931-14.66-9.923-15 0v204.872c-.429 11.264-16.575 11.255-17 0v-318c.429-11.264 16.575-11.255 17 0v77.641c.344 9.931 14.66 9.923 15 0v-77.642c-.001-12.958-10.543-23.5-23.501-23.5zm-215.577 206h-13.005c-.547 0-.992-.445-.992-.992v-45.016c0-.547.445-.992.992-.992h13.005zm-124.743-23.5c0-9.655 6.106-17.88 14.743-20.952v41.905c-8.648-3.054-14.743-11.24-14.743-20.953zm53.552 77.5c-13.128 0-23.809-10.68-23.809-23.808v-107.384c0-13.127 10.681-23.808 23.809-23.808h71.191v39h-13.005c-8.818 0-15.992 7.174-15.992 15.992v45.016c0 8.818 7.174 15.992 15.992 15.992h13.005v39zm79.948 120h-62c-11.264-.429-11.255-16.575 0-17h62c11.264.429 11.255 16.575 0 17zm183.316-55.764c-50.134-42.508-126.065-59.523-177.069-63.761v-155.949c51.114-4.273 126.83-21.216 177.069-63.761z"/><path d="m504.329 233.387h-24c-9.931.344-9.923 14.66 0 15h24c9.931-.344 9.923-14.659 0-15z"/><path d="m466.805 197.889c1.272 0 2.562-.324 3.743-1.006l20.784-12c3.587-2.071 4.816-6.658 2.745-10.245s-6.66-4.816-10.245-2.745l-20.784 12c-3.587 2.071-4.816 6.658-2.745 10.245 1.389 2.405 3.91 3.751 6.502 3.751z"/><path d="m445.579 126.139c-3.59-2.072-8.176-.842-10.245 2.745l-12 20.785c-2.071 3.587-.842 8.174 2.745 10.245 3.524 2.053 8.162.875 10.245-2.745l12-20.785c2.071-3.588.842-8.175-2.745-10.245z"/><path d="m436.324 324.606c-2.07-3.587-6.659-4.816-10.245-2.745-3.587 2.071-4.816 6.658-2.745 10.245l12 20.785c2.082 3.62 6.722 4.798 10.245 2.745 3.587-2.071 4.816-6.658 2.745-10.245z"/><path d="m491.332 296.892-20.784-12c-3.586-2.071-8.175-.843-10.245 2.745-2.071 3.587-.842 8.174 2.745 10.245l20.784 12c3.523 2.053 8.163.875 10.245-2.745 2.071-3.587.842-8.174-2.745-10.245z"/></g></g></svg>