<svg xmlns="http://www.w3.org/2000/svg" xmlns:xlink="http://www.w3.org/1999/xlink" width="590.888" height="407.104" viewBox="0 0 590.888 407.104">
  <defs>
    <linearGradient id="linear-gradient" y1="0.5" x2="1" y2="0.5" gradientUnits="objectBoundingBox">
      <stop offset="0" stop-color="#e8f1ff"/>
      <stop offset="1" stop-color="#c4daff"/>
    </linearGradient>
    <linearGradient id="linear-gradient-2" x1="-0.633" y1="1.637" x2="0.35" y2="1.637" xlink:href="#linear-gradient"/>
  </defs>
  <g id="hero" transform="translate(-875.112 -213.448)">
    <g id="Group_46" data-name="Group 46" transform="translate(487.928 161.931)">
      <path id="Path_372" data-name="Path 372" d="M662.544,382.814c83.367,5.774,100.483,12.5,128.259,2.871,33.332-11.556,26.218-27.322,64.13-43.052,45.957-19.069,81.632-6.367,105.356-21.048,33.319-20.619,13.714-66.882-9.161-92.8-8.431-9.551-16.646-18.859-33.592-26.788-30.674-14.351-62.744-11.452-178.647-3.827-109.278,7.19-120.783,7.246-137.883,6.315-53.281-2.9-63.424-10.071-97.727-6.379-9.492,1.022-82.153,9.6-107.906,49.327-24.585,37.927,13.213,73.96,21.717,82.068,25.707,24.507,61.343,35.3,78.724,40.4C541.65,383.335,556.937,375.5,662.544,382.814Z" fill="#fff"/>
      <path id="Path_373" data-name="Path 373" d="M475.058,406.978c11.328-13.131,28.1-14.28,55-15.714,10.152-.542,33.417-1.085,66.072,5.714,40.681,8.47,34.3-6.009,53.8-6.009,24.759,0,38.627,6.534,54.775,13.152,2.049.839,13.307,5.453,13.929,12.857,1.234,14.691-40.119,31.964-73.214,38.928-22.107,4.652-27.451,1.953-82.5,1.786-68.177-.207-87.539,3.849-95.715-9.286C459.8,436.511,465.942,417.544,475.058,406.978Z" fill="#fff"/>
    </g>
    <g id="Group_61" data-name="Group 61" transform="translate(487.928 161.931)">
      <g id="Group_47" data-name="Group 47" opacity="0.35" style="mix-blend-mode: multiply;isolation: isolate">
        <path id="Path_374" data-name="Path 374" d="M882.142,324.251a6.174,6.174,0,0,0,3.413-5.522h0a6.173,6.173,0,0,0-3.413-5.522L656.277,200.25a4.264,4.264,0,0,0-3.816,0L499.5,276.748a4.266,4.266,0,0,0,0,7.631L715.572,396a26.4,26.4,0,0,0,23.383.117Z" fill="#fff" opacity="0.35"/>
        <path id="Path_375" data-name="Path 375" d="M652.587,200.752,501.528,276.334a4.215,4.215,0,0,0,0,7.539L713.69,393.416a26.858,26.858,0,0,0,23.2.425c.817.181,57.487-27.926,58.253-28.3l84.141-42.207a6.3,6.3,0,0,0,3.494-5.388h0c0-.04,0-.082,0-.122a6.272,6.272,0,0,0-3.256-5.407L656.355,200.752A4.206,4.206,0,0,0,652.587,200.752Z" fill="#f4f5f9" opacity="0.38"/>
        <path id="Path_376" data-name="Path 376" d="M652.713,201.254,503.559,275.919a4.165,4.165,0,0,0,0,7.447L711.808,390.833a27.365,27.365,0,0,0,23.007.733c1.634.363,56.511-26.509,58.044-27.268l83.557-41.891a6.447,6.447,0,0,0,3.576-5.254h0c0-.038.008-.08.007-.119a6.4,6.4,0,0,0-3.1-5.416L656.434,201.254A4.158,4.158,0,0,0,652.713,201.254Z" fill="#eaebf4" opacity="0.409"/>
        <path id="Path_377" data-name="Path 377" d="M652.839,201.756,505.59,275.5a4.115,4.115,0,0,0,0,7.356L709.926,388.251a27.935,27.935,0,0,0,22.819,1.04c2.451.544,55.535-25.093,57.835-26.231l82.973-41.574c1.806-.9,3.658-3.1,3.658-5.121h0c0-.037.012-.079.012-.115-.048-2.029-1.172-4.54-2.947-5.427L656.512,201.756A4.1,4.1,0,0,0,652.839,201.756Z" fill="#dfe1ee" opacity="0.439"/>
        <path id="Path_378" data-name="Path 378" d="M652.965,202.258,507.621,275.089a4.065,4.065,0,0,0,0,7.265L708.045,385.668a28.559,28.559,0,0,0,22.629,1.348c3.27.726,54.561-23.676,57.627-25.194l82.389-41.258c1.711-.856,3.74-3.074,3.74-4.987h0c0-.035.016-.077.016-.111-.044-1.943-1.111-4.6-2.792-5.437L656.591,202.258A4.045,4.045,0,0,0,652.965,202.258Z" fill="#d5d7e8" opacity="0.468"/>
        <path id="Path_379" data-name="Path 379" d="M653.091,202.76,509.652,274.674a4.015,4.015,0,0,0,0,7.174L706.163,383.085a29.27,29.27,0,0,0,22.441,1.656c4.087.907,53.585-22.26,57.419-24.157l81.8-40.942c1.616-.808,3.822-3.047,3.822-4.853h0c0-.033.021-.076.02-.108-.043-1.855-1.049-4.654-2.636-5.447L656.669,202.76A3.988,3.988,0,0,0,653.091,202.76Z" fill="#cacde3" opacity="0.498"/>
        <path id="Path_380" data-name="Path 380" d="M653.217,203.262l-141.534,71a3.964,3.964,0,0,0,0,7.081l192.6,99.161a30.065,30.065,0,0,0,22.253,1.965c4.9,1.087,52.61-20.844,57.21-23.121l81.22-40.626c1.521-.76,3.9-3.019,3.9-4.72h0c0-.03.025-.073.024-.1-.042-1.769-.987-4.711-2.481-5.458L656.748,203.262A3.933,3.933,0,0,0,653.217,203.262Z" fill="#c0c2dd" opacity="0.527"/>
        <path id="Path_381" data-name="Path 381" d="M653.342,203.764,513.714,273.845a3.914,3.914,0,0,0,0,6.99L702.4,377.92a30.951,30.951,0,0,0,22.065,2.272c5.721,1.269,51.634-19.428,57-22.083L862.1,317.8c1.426-.713,3.986-2.992,3.986-4.586h0c0-.028.029-.072.028-.1-.042-1.682-.925-4.767-2.326-5.467L656.826,203.764A3.878,3.878,0,0,0,653.342,203.764Z" fill="#b5b8d7" opacity="0.557"/>
        <path id="Path_382" data-name="Path 382" d="M653.468,204.266,515.745,273.43a3.864,3.864,0,0,0,0,6.9l184.773,95.008a31.942,31.942,0,0,0,21.876,2.58c6.538,1.45,50.659-18.011,56.792-21.046l80.052-39.995c1.331-.665,4.067-2.964,4.067-4.452h0c0-.027.034-.07.033-.1-.041-1.594-.864-4.823-2.171-5.477L656.905,204.266A3.829,3.829,0,0,0,653.468,204.266Z" fill="#abaed2" opacity="0.586"/>
        <path id="Path_383" data-name="Path 383" d="M653.594,204.768,517.776,273.015a3.814,3.814,0,0,0,0,6.808l180.86,92.931a33.065,33.065,0,0,0,21.687,2.888c7.356,1.632,49.684-16.6,56.584-20.009l79.467-39.678c1.237-.618,4.15-2.937,4.15-4.319h0c0-.025.038-.068.037-.093-.04-1.508-.8-4.881-2.016-5.487L656.983,204.768A3.772,3.772,0,0,0,653.594,204.768Z" fill="#a0a4cc" opacity="0.616"/>
        <path id="Path_384" data-name="Path 384" d="M653.72,205.27,519.807,272.6a3.764,3.764,0,0,0,0,6.716l176.947,90.855a34.33,34.33,0,0,0,21.5,3.2c8.173,1.813,48.708-15.178,56.375-18.972l78.883-39.362c1.141-.571,4.232-2.91,4.232-4.185h0c0-.023.042-.067.041-.089-.039-1.422-.74-4.938-1.861-5.5L657.062,205.27A3.717,3.717,0,0,0,653.72,205.27Z" fill="#969ac6" opacity="0.645"/>
        <path id="Path_385" data-name="Path 385" d="M653.846,205.772,521.838,272.186a3.713,3.713,0,0,0,0,6.624l173.034,88.779a35.76,35.76,0,0,0,21.311,3.5c8.99,1.995,47.733-13.762,56.166-17.935l78.3-39.046c1.046-.523,4.314-2.882,4.314-4.051h0c0-.021.046-.065.045-.086-.038-1.335-.678-4.994-1.705-5.508L657.14,205.772A3.66,3.66,0,0,0,653.846,205.772Z" fill="#8b90c0" opacity="0.675"/>
        <path id="Path_386" data-name="Path 386" d="M653.972,206.274l-130.1,65.5a3.663,3.663,0,0,0,0,6.533l169.122,86.7c6.7,3.377,14.63,1.163,21.122,3.811,9.3,3.8,46.757-12.345,55.957-16.9l77.715-38.73c.951-.475,4.4-2.855,4.4-3.917h0c0-.019.05-.063.049-.082-.038-1.248-.616-5.052-1.55-5.518l-193.461-97.4A3.605,3.605,0,0,0,653.972,206.274Z" fill="#8086bb" opacity="0.705"/>
        <path id="Path_387" data-name="Path 387" d="M654.1,206.775,525.9,271.356a3.613,3.613,0,0,0,0,6.442l165.209,84.625c6.651,3.352,14.455,1.6,20.934,4.119,10.142,3.948,45.782-10.929,55.748-15.861l77.131-38.414c.856-.428,4.478-2.827,4.478-3.783h0c0-.018.054-.062.054-.079-.038-1.161-.556-5.108-1.4-5.528L657.3,206.775A3.554,3.554,0,0,0,654.1,206.775Z" fill="#767cb5" opacity="0.734"/>
        <path id="Path_388" data-name="Path 388" d="M654.224,207.277,527.931,270.941a3.562,3.562,0,0,0,0,6.35l161.3,82.549c6.6,3.328,14.275,2.03,20.745,4.428,10.991,4.072,44.807-9.513,55.54-14.825l76.547-38.1c.761-.38,4.56-2.8,4.56-3.65h0c0-.015.058-.059.058-.074-.037-1.075-.494-5.165-1.241-5.538L657.375,207.277A3.5,3.5,0,0,0,654.224,207.277Z" fill="#6b72af" opacity="0.764"/>
        <path id="Path_389" data-name="Path 389" d="M654.35,207.779,529.962,270.526a3.512,3.512,0,0,0,0,6.259l157.383,80.473c6.544,3.3,14.089,2.46,20.557,4.735,11.847,4.166,43.832-8.1,55.331-13.788L839.2,310.424c.666-.333,4.641-2.773,4.641-3.517h0c0-.013.063-.057.063-.071-.036-.987-.432-5.221-1.086-5.548l-185.36-93.509A3.448,3.448,0,0,0,654.35,207.779Z" fill="#6168aa" opacity="0.793"/>
        <path id="Path_390" data-name="Path 390" d="M654.476,208.281,531.993,270.112a3.462,3.462,0,0,0,0,6.167l153.471,78.4c6.489,3.277,13.593,4.259,20.368,5.043,13.306,1.54,42.856-6.681,55.122-12.751L836.333,309.5c.571-.285,4.723-2.745,4.723-3.383h0c0-.011.067-.056.067-.067-.035-.9-.37-5.279-.931-5.559l-182.66-92.212A3.391,3.391,0,0,0,654.476,208.281Z" fill="#565ea4" opacity="0.823"/>
        <path id="Path_391" data-name="Path 391" d="M654.6,208.783,534.024,269.7a3.412,3.412,0,0,0,0,6.076l149.558,76.319c6.435,3.253,13.448,4.456,20.18,5.351,14.108,1.877,41.88-5.264,54.913-11.714L833.47,308.58c.476-.238,4.805-2.718,4.805-3.249h0c0-.01.071-.054.071-.064-.035-.814-.309-5.335-.775-5.568l-179.96-90.916A3.336,3.336,0,0,0,654.6,208.783Z" fill="#4c539e" opacity="0.852"/>
        <path id="Path_392" data-name="Path 392" d="M654.728,209.285l-118.673,60a3.362,3.362,0,0,0,0,5.984L681.7,349.51c6.382,3.227,13.3,4.651,19.992,5.658,14.9,2.243,40.9-3.848,54.7-10.677l74.21-36.833c.38-.19,4.887-2.69,4.887-3.115h0c0-.008.075-.053.075-.06-.034-.728-.247-5.392-.62-5.579l-177.26-89.619A3.279,3.279,0,0,0,654.728,209.285Z" fill="#414999" opacity="0.882"/>
        <path id="Path_393" data-name="Path 393" d="M654.854,209.787l-116.768,59.08a3.312,3.312,0,0,0,0,5.893l141.732,72.167c6.328,3.2,13.14,4.846,19.8,5.966,15.686,2.638,39.929-2.431,54.5-9.64l73.626-36.517c.285-.142,4.969-2.662,4.969-2.981h0c0-.006.079-.051.079-.057-.033-.641-.185-5.449-.465-5.589L657.768,209.787A3.224,3.224,0,0,0,654.854,209.787Z" fill="#373f93" opacity="0.911"/>
        <path id="Path_394" data-name="Path 394" d="M654.98,210.289,540.117,268.452a3.262,3.262,0,0,0,0,5.8l137.82,70.09a72.381,72.381,0,0,0,19.614,6.274c16.462,3.061,38.955-1.015,54.288-8.6l73.042-36.2a57.7,57.7,0,0,0,5.051-2.848h0l.083-.053c-.032-.555-.123-5.506-.31-5.6L657.846,210.289A3.173,3.173,0,0,0,654.98,210.289Z" fill="#2c358d" opacity="0.941"/>
        <path id="Path_395" data-name="Path 395" d="M655.106,210.791,542.148,268.038a3.211,3.211,0,0,0,0,5.71l133.907,68.013a76.734,76.734,0,0,0,19.426,6.583c17.227,3.511,37.979.4,54.079-7.567l72.458-35.884c.095-.048,5.132-2.608,5.132-2.714h0l.088-.05c-.031-.468-.061-5.562-.155-5.609L657.925,210.791A3.118,3.118,0,0,0,655.106,210.791Z" fill="#222b88" opacity="0.97"/>
        <path id="Path_396" data-name="Path 396" d="M824.461,301.345c-.054-.379,0-5.619,0-5.619L658,211.293a3.061,3.061,0,0,0-2.771,0l-111.053,56.33a3.161,3.161,0,0,0,0,5.619l129.994,65.937a81.606,81.606,0,0,0,73.108.361Z" fill="#172182"/>
      </g>
      <g id="Group_60" data-name="Group 60">
        <g id="Group_57" data-name="Group 57">
          <g id="Group_56" data-name="Group 56">
            <g id="Group_53" data-name="Group 53">
              <g id="Group_48" data-name="Group 48">
                <path id="Path_397" data-name="Path 397" d="M706.011,362.979,511.093,265.711c-1.463-.731-3.573-5.7-.693-7.409l132.05-60.283a6.917,6.917,0,0,1,6.188,0L842.955,289.5c2.877,1.44,2.312,10.959-.566,12.4L715.545,362.979A10.65,10.65,0,0,1,706.011,362.979Z" fill="#a7ccff"/>
                <path id="Path_398" data-name="Path 398" d="M705.91,359.63,510.4,261.854a1.985,1.985,0,0,1,0-3.552l132.05-66.04a6.917,6.917,0,0,1,6.188,0l193.751,96.9a3.906,3.906,0,0,1,0,6.986L715.445,359.63A10.658,10.658,0,0,1,705.91,359.63Z" fill="url(#linear-gradient)"/>
              </g>
              <path id="Path_399" data-name="Path 399" d="M823.211,290.724,646.9,202.541a14.725,14.725,0,0,0-11.7,0l-45.634,22.821c-3.232,1.617-3.232,4.238,0,5.854L765.872,319.4a14.736,14.736,0,0,0,11.705,0l45.634-22.823C826.443,294.961,826.443,292.34,823.211,290.724Z" fill="#91beff"/>
              <g id="Group_52" data-name="Group 52">
                <g id="Group_50" data-name="Group 50">
                  <g id="Group_49" data-name="Group 49">
                    <path id="Path_400" data-name="Path 400" d="M666.024,222.715l-7.088-3.544,7.088-3.545,7.088,3.545Z" fill="#d1e5fe"/>
                    <path id="Path_401" data-name="Path 401" d="M642.27,210.836l-7.088-3.545,7.088-3.544,7.088,3.544Z" fill="#d1e5fe"/>
                    <path id="Path_402" data-name="Path 402" d="M620.623,232.2,603,223.386l7.087-3.545,17.624,8.814Z" fill="#d1e5fe"/>
                    <path id="Path_403" data-name="Path 403" d="M600.061,232.647l-7.79-3.9,7.088-3.545,7.791,3.9Z" fill="#d1e5fe"/>
                    <path id="Path_404" data-name="Path 404" d="M612.193,238.714l-7.79-3.9,7.088-3.545,7.79,3.9Z" fill="#d1e5fe"/>
                    <path id="Path_405" data-name="Path 405" d="M624.326,244.782l-7.79-3.9,7.087-3.545,7.791,3.9Z" fill="#d1e5fe"/>
                    <path id="Path_406" data-name="Path 406" d="M742.62,303.942l-7.791-3.9,7.088-3.545,7.792,3.9Z" fill="#d1e5fe"/>
                    <path id="Path_407" data-name="Path 407" d="M754.753,310.009l-7.791-3.9,7.087-3.544,7.79,3.895Z" fill="#d1e5fe"/>
                    <path id="Path_408" data-name="Path 408" d="M766.886,316.077l-7.791-3.9,7.088-3.545,7.792,3.9Z" fill="#d1e5fe"/>
                    <path id="Path_409" data-name="Path 409" d="M727.87,296.565l-99.2-49.611,7.088-3.545,99.2,49.611Z" fill="#d1e5fe"/>
                    <path id="Path_410" data-name="Path 410" d="M778.092,310.952l-17.625-8.815,7.088-3.545,17.624,8.814Z" fill="#d1e5fe"/>
                    <path id="Path_411" data-name="Path 411" d="M755.488,299.646,625.029,234.4l7.088-3.545L762.575,296.1Z" fill="#d1e5fe"/>
                    <path id="Path_412" data-name="Path 412" d="M677.519,228.464l-7.089-3.545,7.089-3.545,7.088,3.545Z" fill="#d1e5fe"/>
                    <path id="Path_413" data-name="Path 413" d="M689.013,234.211l-7.088-3.545,7.088-3.545,7.088,3.545Z" fill="#d1e5fe"/>
                    <path id="Path_414" data-name="Path 414" d="M700.506,239.96l-7.088-3.545,7.088-3.545,7.088,3.545Z" fill="#d1e5fe"/>
                    <path id="Path_415" data-name="Path 415" d="M720.175,249.8l-7.088-3.546,7.088-3.544,7.088,3.544Z" fill="#d1e5fe"/>
                    <path id="Path_416" data-name="Path 416" d="M731.669,255.545,724.581,252l7.088-3.544L738.757,252Z" fill="#d1e5fe"/>
                    <path id="Path_417" data-name="Path 417" d="M743.163,261.293l-7.088-3.545,7.088-3.545,7.089,3.545Z" fill="#d1e5fe"/>
                    <path id="Path_418" data-name="Path 418" d="M754.658,267.042l-7.089-3.545,7.089-3.545,7.088,3.545Z" fill="#d1e5fe"/>
                    <path id="Path_419" data-name="Path 419" d="M774.325,276.876l-7.088-3.544,7.088-3.544,7.088,3.544Z" fill="#d1e5fe"/>
                    <path id="Path_420" data-name="Path 420" d="M785.818,282.625l-7.088-3.544,7.088-3.545,7.089,3.545Z" fill="#d1e5fe"/>
                    <path id="Path_421" data-name="Path 421" d="M797.313,288.375l-7.088-3.546,7.088-3.545,7.088,3.545Z" fill="#d1e5fe"/>
                    <path id="Path_422" data-name="Path 422" d="M808.807,294.122l-7.088-3.545,7.088-3.545,7.088,3.545Z" fill="#d1e5fe"/>
                    <path id="Path_423" data-name="Path 423" d="M799.548,300.221,624.455,212.656l7.088-3.545,175.094,87.566Z" fill="#d1e5fe"/>
                    <path id="Path_424" data-name="Path 424" d="M788.82,305.586,613.726,218.021l7.089-3.546,175.094,87.566Z" fill="#d1e5fe"/>
                  </g>
                </g>
                <g id="Group_51" data-name="Group 51">
                  <path id="Path_425" data-name="Path 425" d="M658.407,315.658l-69.379-33.263c-1.075-.537-2.766-2.4-.264-4.173l36.064-18.037a1.459,1.459,0,0,1,1.3,0l69.644,34.829a1.458,1.458,0,0,1,0,2.608l-36.065,18.036A1.453,1.453,0,0,1,658.407,315.658Z" fill="#2948bd"/>
                  <path id="Path_426" data-name="Path 426" d="M658.407,317.092l-69.643-34.829a1.458,1.458,0,0,1,0-2.608l36.064-18.036a1.459,1.459,0,0,1,1.3,0l69.644,34.829a1.459,1.459,0,0,1,0,2.609l-36.065,18.035A1.453,1.453,0,0,1,658.407,317.092Z" fill="#91beff"/>
                </g>
              </g>
              <path id="Path_427" data-name="Path 427" d="M830.541,306.11l-13.02,6.512v-2.47l13.02-6.511Z" fill="#172182"/>
              <path id="Path_428" data-name="Path 428" d="M813.937,314.243l-13.021,6.512v-2.469l13.021-6.512Z" fill="#172182"/>
              <path id="Path_429" data-name="Path 429" d="M841.239,299.652a4.091,4.091,0,0,1-2.175,3.263c-1.2.6-2.176.114-2.176-1.087a4.1,4.1,0,0,1,2.176-3.264C840.266,297.963,841.239,298.45,841.239,299.652Z" fill="#172182"/>
            </g>
            <g id="Group_55" data-name="Group 55">
              <g id="Group_54" data-name="Group 54">
                <path id="Path_430" data-name="Path 430" d="M836.629,286.6,655.07,192.436a6.264,6.264,0,0,1-3.244-6.9L669.5,64.025c1-5.867,3.1-15.39,14.079-11.669L871.3,148.86a6.234,6.234,0,0,1,3.179,6.881L850.708,284.613C849.7,290.4,841.462,289.028,836.629,286.6Z" fill="url(#linear-gradient-2)"/>
                <path id="Path_431" data-name="Path 431" d="M871.7,156.562l-22.27,122.8c-.778,8.991-3.641,10.562-6.854,9.882a26.679,26.679,0,0,1-5.859-2.574l-185.5-93.295a6.269,6.269,0,0,1-3.247-6.9l21.959-123.9c1-5.866,2.346-13.62,12.854-7.341l185.741,94.449a6.078,6.078,0,0,1,1.09.709A6.36,6.36,0,0,1,871.7,156.562Z" fill="#140023"/>
              </g>
              <path id="Path_432" data-name="Path 432" d="M840.01,284.352,655.738,191.975c-1.741-.887-3.907-3.093-3.614-4.9L674.757,59.416c.23-1.412,1.66-1.925,3.193-1.15l187.613,94.846a4.413,4.413,0,0,1,2.345,4.375l-24.49,125.3A2.3,2.3,0,0,1,840.01,284.352Z" fill="#2948bd"/>
            </g>
          </g>
        </g>
        <g id="Group_59" data-name="Group 59">
          <g id="Group_58" data-name="Group 58">
            <path id="Path_433" data-name="Path 433" d="M723.393,93.092l-29.77-14.471.619-3.483,29.675,14.354Z" fill="#df4640"/>
            <path id="Path_434" data-name="Path 434" d="M722.318,100.486,692.352,85.774l.628-3.534,29.87,14.592Z" fill="#6197ed"/>
            <path id="Path_435" data-name="Path 435" d="M742.964,118.767,712,103.412l.569-3.671,30.864,15.229Z" fill="#91beff"/>
            <path id="Path_436" data-name="Path 436" d="M778.179,136.23,745.89,120.218l.456-3.809,32.176,15.877Z" fill="#91beff"/>
            <path id="Path_437" data-name="Path 437" d="M814.929,154.452l-33.7-16.709.331-3.956,33.574,16.566Z" fill="#91beff"/>
            <path id="Path_438" data-name="Path 438" d="M853.315,173.487l-35.2-17.454.2-4.113,35.065,17.3Z" fill="#91beff"/>
            <path id="Path_439" data-name="Path 439" d="M754.821,132.986,723.16,117.127l.537-3.776,31.553,15.726Z" fill="#91beff"/>
            <path id="Path_440" data-name="Path 440" d="M782.446,146.823l-24.632-12.338.418-3.921L782.776,142.8Z" fill="#91beff"/>
            <path id="Path_441" data-name="Path 441" d="M811.048,161.148l-25.466-12.756.319-4.039L811.272,157Z" fill="#91beff"/>
            <path id="Path_442" data-name="Path 442" d="M840.634,175.967,814.29,162.773l.212-4.163,26.243,13.079Z" fill="#91beff"/>
            <path id="Path_443" data-name="Path 443" d="M741.036,134.487,709.64,118.6l.587-3.781,31.289,15.753Z" fill="#91beff"/>
            <path id="Path_444" data-name="Path 444" d="M756.273,142.2,744,135.989l.47-3.926,12.227,6.155Z" fill="#91beff"/>
            <path id="Path_445" data-name="Path 445" d="M771.943,150.126l-12.5-6.325.415-3.993,12.456,6.271Z" fill="#91beff"/>
            <path id="Path_446" data-name="Path 446" d="M787.912,158.205l-12.739-6.446.36-4.061,12.692,6.39Z" fill="#91beff"/>
            <path id="Path_447" data-name="Path 447" d="M804.186,166.44,791.2,159.871l.3-4.13,12.935,6.512Z" fill="#91beff"/>
            <path id="Path_448" data-name="Path 448" d="M766.143,155.867,733.529,139.2l.51-3.946,32.5,16.528Z" fill="#91beff"/>
            <path id="Path_449" data-name="Path 449" d="M803.288,174.854l-34.062-17.411.383-4.1L803.546,170.6Z" fill="#91beff"/>
            <path id="Path_450" data-name="Path 450" d="M842.119,194.7,806.51,176.5l.245-4.268,35.47,18.04Z" fill="#91beff"/>
            <path id="Path_451" data-name="Path 451" d="M739.048,150.7l-31.837-16.441.6-3.9,31.727,16.3Z" fill="#91beff"/>
            <path id="Path_452" data-name="Path 452" d="M691.909,134.926l-7.588-3.959.687-3.862,7.562,3.926Z" fill="#6197ed"/>
            <path id="Path_453" data-name="Path 453" d="M690.551,142.93l-7.639-4.027.7-3.921,7.613,3.994Z" fill="#df4640"/>
            <path id="Path_454" data-name="Path 454" d="M713.113,163.812l-31.632-16.853.708-3.982,31.524,16.709Z" fill="#6197ed"/>
            <path id="Path_455" data-name="Path 455" d="M735.568,185.045l-34.68-18.672.648-4.14,34.557,18.51Z" fill="#91beff"/>
            <path id="Path_456" data-name="Path 456" d="M751.543,193.646l-13.553-7.3.516-4.314,13.5,7.232Z" fill="#91beff"/>
            <path id="Path_457" data-name="Path 457" d="M750.584,202.648l-13.655-7.43.525-4.384,13.6,7.364Z" fill="#91beff"/>
            <path id="Path_458" data-name="Path 458" d="M770.159,203.67,756.3,196.209l.449-4.4,13.8,7.394Z" fill="#91beff"/>
            <path id="Path_459" data-name="Path 459" d="M760.246,207.906l-4.866-2.647.456-4.473,4.848,2.624Z" fill="#91beff"/>
            <path id="Path_460" data-name="Path 460" d="M768.463,212.377l-4.914-2.674.425-4.513,4.9,2.65Z" fill="#91beff"/>
            <path id="Path_461" data-name="Path 461" d="M776.762,216.893l-4.963-2.7.394-4.553,4.944,2.676Z" fill="#91beff"/>
            <path id="Path_462" data-name="Path 462" d="M785.142,221.453l-5.012-2.728.362-4.594,4.993,2.7Z" fill="#91beff"/>
            <path id="Path_463" data-name="Path 463" d="M793.607,226.059l-5.062-2.754.329-4.636,5.043,2.729Z" fill="#91beff"/>
            <path id="Path_464" data-name="Path 464" d="M789.2,213.92l-14.172-7.63.378-4.491,14.117,7.562Z" fill="#91beff"/>
            <path id="Path_465" data-name="Path 465" d="M808.674,224.406l-14.5-7.805.3-4.584,14.44,7.735Z" fill="#91beff"/>
            <path id="Path_466" data-name="Path 466" d="M734.488,193.89l-34.931-19.008.658-4.206,34.807,18.842Z" fill="#91beff"/>
            <path id="Path_467" data-name="Path 467" d="M710.882,190.5l-12.677-6.972.668-4.273,12.632,6.911Z" fill="#df4640"/>
            <path id="Path_468" data-name="Path 468" d="M725.212,206.894l-50.077-25.51.592-4.268,49.9,25.277Z" fill="#6197ed"/>
            <path id="Path_469" data-name="Path 469" d="M679.611,192.345l-5.632-3.165.765-4.307,5.612,3.137Z" fill="#df4640"/>
            <path id="Path_470" data-name="Path 470" d="M687.63,196.853l-5.689-3.2.737-4.346,5.669,3.169Z" fill="#df4640"/>
            <path id="Path_471" data-name="Path 471" d="M689.955,76.839l-3.332-1.619.641-3.456,3.321,1.606Z" fill="#91beff"/>
            <path id="Path_472" data-name="Path 472" d="M688.66,83.962l-3.353-1.646.65-3.507,3.342,1.633Z" fill="#91beff"/>
            <path id="Path_473" data-name="Path 473" d="M687.347,91.188l-3.375-1.673.66-3.558L688,87.618Z" fill="#91beff"/>
            <path id="Path_474" data-name="Path 474" d="M686.014,98.522l-3.4-1.7.669-3.609,3.386,1.687Z" fill="#91beff"/>
            <path id="Path_475" data-name="Path 475" d="M684.662,105.963l-3.418-1.729.679-3.663,3.408,1.716Z" fill="#91beff"/>
            <path id="Path_476" data-name="Path 476" d="M683.289,113.516l-3.441-1.759.689-3.718,3.43,1.745Z" fill="#91beff"/>
            <path id="Path_477" data-name="Path 477" d="M681.9,121.182l-3.464-1.789.7-3.773,3.453,1.774Z" fill="#91beff"/>
            <path id="Path_478" data-name="Path 478" d="M680.482,128.964,677,127.144l.71-3.83,3.476,1.8Z" fill="#91beff"/>
            <path id="Path_479" data-name="Path 479" d="M679.046,136.864l-3.51-1.851.721-3.888,3.5,1.835Z" fill="#91beff"/>
            <path id="Path_480" data-name="Path 480" d="M677.589,144.886,674.055,143l.732-3.949,3.522,1.867Z" fill="#91beff"/>
            <path id="Path_481" data-name="Path 481" d="M676.108,153.031l-3.558-1.915.743-4.01,3.546,1.9Z" fill="#91beff"/>
            <path id="Path_482" data-name="Path 482" d="M674.6,161.3l-3.582-1.949.755-4.072,3.57,1.932Z" fill="#91beff"/>
            <path id="Path_483" data-name="Path 483" d="M673.077,169.707l-3.607-1.983.767-4.136,3.595,1.967Z" fill="#91beff"/>
            <path id="Path_484" data-name="Path 484" d="M671.526,178.244l-3.631-2.019.779-4.2,3.619,2Z" fill="#91beff"/>
            <path id="Path_485" data-name="Path 485" d="M669.95,186.916l-3.657-2.055.792-4.269,3.644,2.037Z" fill="#91beff"/>
          </g>
        </g>
      </g>
    </g>
    <g id="Group_73" data-name="Group 73" transform="translate(487.928 161.931)">
      <path id="Path_486" data-name="Path 486" d="M654.595,184.921l-64.94-33.392a3.692,3.692,0,0,1-1.962-2.943l-.766-29.4c0-1.084,1.645-1.793,2.728-1.251l65.725,32.869a3.692,3.692,0,0,1,1.962,2.943v29.669A2.043,2.043,0,0,1,654.595,184.921Z" fill="#91beff"/>
      <path id="Path_487" data-name="Path 487" d="M654.595,184.921l-65.724-32.869a3.692,3.692,0,0,1-1.962-2.943V119.44c0-1.083.878-1.522,1.962-.98l65.724,32.869a3.693,3.693,0,0,1,1.963,2.943v29.669C656.558,185.024,655.679,185.463,654.595,184.921Z" fill="#2742a8"/>
      <g id="Group_72" data-name="Group 72">
        <g id="Group_71" data-name="Group 71">
          <g id="Group_68" data-name="Group 68">
            <path id="Path_488" data-name="Path 488" d="M592.316,150.238h0a1.947,1.947,0,0,1-1.035-1.553V132.741c0-.572.463-.8,1.035-.517h0a1.949,1.949,0,0,1,1.035,1.553v15.944C593.351,150.292,592.887,150.524,592.316,150.238Z" fill="#6197ed"/>
            <g id="Group_62" data-name="Group 62">
              <path id="Path_489" data-name="Path 489" d="M594.8,151.481h0a1.948,1.948,0,0,1-1.036-1.554v-6c0-.572.464-.8,1.036-.518h0a1.949,1.949,0,0,1,1.035,1.553v6.005C595.836,151.535,595.372,151.766,594.8,151.481Z" fill="#df4640"/>
            </g>
            <path id="Path_490" data-name="Path 490" d="M601.841,155h0a1.951,1.951,0,0,1-1.036-1.554V137.5c0-.571.464-.8,1.036-.517h0a1.947,1.947,0,0,1,1.035,1.553v15.944C602.876,155.056,602.413,155.287,601.841,155Z" fill="#6197ed"/>
            <g id="Group_63" data-name="Group 63">
              <path id="Path_491" data-name="Path 491" d="M604.326,156.244h0a1.946,1.946,0,0,1-1.036-1.553V143.717c0-.572.463-.8,1.036-.518h0a1.949,1.949,0,0,1,1.035,1.553v10.974C605.361,156.3,604.9,156.53,604.326,156.244Z" fill="#df4640"/>
            </g>
            <g id="Group_64" data-name="Group 64">
              <path id="Path_492" data-name="Path 492" d="M611.158,159.661h0a1.948,1.948,0,0,1-1.035-1.553v-8.9c0-.571.464-.8,1.035-.517h0a1.948,1.948,0,0,1,1.036,1.553v8.9C612.194,159.716,611.73,159.947,611.158,159.661Z" fill="#df4640"/>
            </g>
            <path id="Path_493" data-name="Path 493" d="M613.643,160.9h0a1.947,1.947,0,0,1-1.035-1.553v-3.727c0-.572.463-.8,1.035-.518h0a1.948,1.948,0,0,1,1.035,1.553v3.727C614.678,160.958,614.215,161.19,613.643,160.9Z" fill="#6197ed"/>
            <g id="Group_65" data-name="Group 65">
              <path id="Path_494" data-name="Path 494" d="M621.3,164.735h0a1.949,1.949,0,0,1-1.035-1.553V144.339c0-.571.464-.8,1.035-.517h0a1.95,1.95,0,0,1,1.036,1.553v18.843C622.34,164.79,621.876,165.021,621.3,164.735Z" fill="#df4640"/>
            </g>
            <path id="Path_495" data-name="Path 495" d="M623.789,165.978h0a1.947,1.947,0,0,1-1.035-1.553V160.7c0-.572.463-.8,1.035-.518h0a1.948,1.948,0,0,1,1.036,1.554v3.726C624.825,166.032,624.361,166.264,623.789,165.978Z" fill="#6197ed"/>
            <path id="Path_496" data-name="Path 496" d="M630.623,169.4h0a1.946,1.946,0,0,1-1.036-1.553V149c0-.571.463-.8,1.036-.517h0a1.949,1.949,0,0,1,1.035,1.553v18.843C631.658,169.449,631.194,169.681,630.623,169.4Z" fill="#6197ed"/>
            <g id="Group_66" data-name="Group 66">
              <path id="Path_497" data-name="Path 497" d="M633.107,170.638h0a1.947,1.947,0,0,1-1.035-1.553v-14.08c0-.572.463-.8,1.035-.518h0a1.947,1.947,0,0,1,1.035,1.554V170.12C634.142,170.692,633.679,170.924,633.107,170.638Z" fill="#df4640"/>
            </g>
            <g id="Group_67" data-name="Group 67">
              <path id="Path_498" data-name="Path 498" d="M640.354,174.262h0a1.949,1.949,0,0,1-1.035-1.553V153.866c0-.571.464-.8,1.035-.517h0a1.947,1.947,0,0,1,1.035,1.553v18.843C641.389,174.317,640.926,174.548,640.354,174.262Z" fill="#df4640"/>
            </g>
            <path id="Path_499" data-name="Path 499" d="M642.839,175.505h0a1.948,1.948,0,0,1-1.036-1.554V156.145c0-.572.464-.8,1.036-.518h0a1.948,1.948,0,0,1,1.035,1.553v17.807C643.874,175.559,643.411,175.791,642.839,175.505Z" fill="#6197ed"/>
          </g>
          <g id="Group_70" data-name="Group 70">
            <g id="Group_69" data-name="Group 69">
              <path id="Path_500" data-name="Path 500" d="M648.666,178.419h0a1.947,1.947,0,0,1-1.035-1.553V160.923c0-.572.463-.8,1.035-.518h0a1.947,1.947,0,0,1,1.036,1.553V177.9C649.7,178.473,649.238,178.705,648.666,178.419Z" fill="#df4640"/>
            </g>
            <path id="Path_501" data-name="Path 501" d="M651.151,179.662h0a1.947,1.947,0,0,1-1.035-1.553v-6c0-.572.463-.8,1.035-.518h0a1.948,1.948,0,0,1,1.035,1.554v6C652.186,179.716,651.723,179.948,651.151,179.662Z" fill="#6197ed"/>
          </g>
        </g>
      </g>
    </g>
    <g id="Group_100" data-name="Group 100" transform="translate(487.928 161.931)">
      <path id="Path_502" data-name="Path 502" d="M636.521,209.35l-43.686-22.969a2.562,2.562,0,0,1-1.361-2.043l-1-20.52c0-.752,1.606-1.681,2.358-1.3l44.682,22.347a2.562,2.562,0,0,1,1.362,2.043v21.143C638.879,208.8,637.273,209.726,636.521,209.35Z" fill="#91beff"/>
      <path id="Path_503" data-name="Path 503" d="M636.521,209.35l-44.682-22.345a2.563,2.563,0,0,1-1.362-2.043V163.818c0-.752.61-1.057,1.362-.681l44.682,22.346a2.563,2.563,0,0,1,1.362,2.043V208.67C637.883,209.422,637.273,209.726,636.521,209.35Z" fill="#2742a8"/>
      <g id="Group_99" data-name="Group 99">
        <g id="Group_98" data-name="Group 98">
          <g id="Group_74" data-name="Group 74">
            <path id="Path_504" data-name="Path 504" d="M609.059,174.19l-8.962-4.482v-1.369l8.962,4.482Z" fill="#6197ed"/>
          </g>
          <g id="Group_75" data-name="Group 75">
            <path id="Path_505" data-name="Path 505" d="M613.287,176.3l-3.4-1.7v-1.369l3.4,1.7Z" fill="#6197ed"/>
          </g>
          <g id="Group_76" data-name="Group 76">
            <path id="Path_506" data-name="Path 506" d="M617.555,178.439l-3.4-1.7V175.37l3.4,1.7Z" fill="#df4640"/>
          </g>
          <g id="Group_77" data-name="Group 77">
            <path id="Path_507" data-name="Path 507" d="M621.823,180.573l-3.4-1.7V177.5l3.4,1.7Z" fill="#df4640"/>
          </g>
          <g id="Group_78" data-name="Group 78">
            <path id="Path_508" data-name="Path 508" d="M626.091,182.708l-3.4-1.7v-1.369l3.4,1.7Z" fill="#df4640"/>
          </g>
          <g id="Group_79" data-name="Group 79">
            <path id="Path_509" data-name="Path 509" d="M616.2,180.543l-8.962-4.482v-1.369l8.962,4.482Z" fill="#6197ed"/>
          </g>
          <g id="Group_80" data-name="Group 80">
            <path id="Path_510" data-name="Path 510" d="M625.992,185.44l-8.962-4.482v-1.369l8.962,4.482Z" fill="#6197ed"/>
          </g>
          <g id="Group_81" data-name="Group 81">
            <path id="Path_511" data-name="Path 511" d="M635.784,190.336l-8.962-4.482v-1.369l8.962,4.482Z" fill="#6197ed"/>
          </g>
          <g id="Group_82" data-name="Group 82">
            <path id="Path_512" data-name="Path 512" d="M609.059,179.751,600.1,175.27V173.9l8.962,4.482Z" fill="#6197ed"/>
          </g>
          <g id="Group_83" data-name="Group 83">
            <path id="Path_513" data-name="Path 513" d="M596.053,176.029l-2.212-1.106v-1.369l2.212,1.106Z" fill="#6197ed"/>
          </g>
          <g id="Group_84" data-name="Group 84">
            <path id="Path_514" data-name="Path 514" d="M596.053,178.809l-2.212-1.106v-1.369l2.212,1.106Z" fill="#6197ed"/>
          </g>
          <g id="Group_85" data-name="Group 85">
            <path id="Path_515" data-name="Path 515" d="M602.8,184.966l-8.962-4.482v-1.369L602.8,183.6Z" fill="#6197ed"/>
          </g>
          <g id="Group_86" data-name="Group 86">
            <path id="Path_516" data-name="Path 516" d="M609.243,190.967l-9.492-4.747v-1.369l9.492,4.747Z" fill="#6197ed"/>
          </g>
          <g id="Group_87" data-name="Group 87">
            <path id="Path_517" data-name="Path 517" d="M613.482,193.087l-3.591-1.8v-1.369l3.591,1.8Z" fill="#6197ed"/>
          </g>
          <g id="Group_88" data-name="Group 88">
            <path id="Path_518" data-name="Path 518" d="M613.482,195.868l-3.591-1.8V192.7l3.591,1.8Z" fill="#df4640"/>
          </g>
          <g id="Group_89" data-name="Group 89">
            <path id="Path_519" data-name="Path 519" d="M618.321,195.507l-3.591-1.8v-1.369l3.591,1.8Z" fill="#6197ed"/>
          </g>
          <g id="Group_90" data-name="Group 90">
            <path id="Path_520" data-name="Path 520" d="M615.988,197.121l-1.258-.629v-1.369l1.258.629Z" fill="#df4640"/>
          </g>
          <g id="Group_91" data-name="Group 91">
            <path id="Path_521" data-name="Path 521" d="M618.1,198.176l-1.258-.63v-1.369l1.258.629Z" fill="#6197ed"/>
          </g>
          <g id="Group_92" data-name="Group 92">
            <path id="Path_522" data-name="Path 522" d="M620.2,199.23l-1.258-.629v-1.369l1.258.629Z" fill="#6197ed"/>
          </g>
          <g id="Group_93" data-name="Group 93">
            <path id="Path_523" data-name="Path 523" d="M622.312,200.284l-1.258-.629v-1.369l1.258.629Z" fill="#6197ed"/>
          </g>
          <g id="Group_94" data-name="Group 94">
            <path id="Path_524" data-name="Path 524" d="M624.42,201.338l-1.258-.629V199.34l1.258.63Z" fill="#6197ed"/>
          </g>
          <g id="Group_95" data-name="Group 95">
            <path id="Path_525" data-name="Path 525" d="M623.159,197.926l-3.591-1.8v-1.369l3.591,1.8Z" fill="#6197ed"/>
          </g>
          <g id="Group_96" data-name="Group 96">
            <path id="Path_526" data-name="Path 526" d="M628,200.346l-3.591-1.8v-1.369l3.591,1.8Z" fill="#6197ed"/>
          </g>
          <g id="Group_97" data-name="Group 97">
            <path id="Path_527" data-name="Path 527" d="M609.243,193.748,599.751,189v-1.369l9.492,4.747Z" fill="#6197ed"/>
          </g>
          <path id="Path_528" data-name="Path 528" d="M592.714,166.016l-1.028-.514v-1.369l1.028.514Z" fill="#6197ed"/>
          <path id="Path_529" data-name="Path 529" d="M592.714,168.8l-1.028-.514v-1.369l1.028.514Z" fill="#6197ed"/>
          <path id="Path_530" data-name="Path 530" d="M592.714,171.578l-1.028-.514v-1.369l1.028.515Z" fill="#6197ed"/>
          <path id="Path_531" data-name="Path 531" d="M592.714,174.359l-1.028-.514v-1.369l1.028.514Z" fill="#6197ed"/>
          <path id="Path_532" data-name="Path 532" d="M592.714,177.139l-1.028-.515v-1.369l1.028.514Z" fill="#6197ed"/>
          <path id="Path_533" data-name="Path 533" d="M592.714,179.92l-1.028-.514v-1.369l1.028.514Z" fill="#6197ed"/>
          <path id="Path_534" data-name="Path 534" d="M592.714,182.7l-1.028-.514v-1.369l1.028.514Z" fill="#6197ed"/>
          <path id="Path_535" data-name="Path 535" d="M592.714,185.482l-1.028-.514V183.6l1.028.515Z" fill="#6197ed"/>
        </g>
      </g>
    </g>
    <g id="Group_120" data-name="Group 120" transform="translate(487.928 161.931)">
      <path id="Path_536" data-name="Path 536" d="M897.371,283.7,768.96,217.693a5.145,5.145,0,0,1-2.734-4.1l-1.079-29.665c0-1.51,2.3-3.231,3.813-2.476l129.491,64.759a5.144,5.144,0,0,1,2.734,4.1v30.774C901.185,283.878,898.882,284.459,897.371,283.7Z" fill="#91beff"/>
      <path id="Path_537" data-name="Path 537" d="M897.371,283.7l-129.49-64.759a5.144,5.144,0,0,1-2.734-4.1V184.069c0-1.51,1.224-2.122,2.734-1.367l129.49,64.759a5.146,5.146,0,0,1,2.735,4.1v30.774C900.106,283.847,898.882,284.459,897.371,283.7Z" fill="#2742a8"/>
      <g id="Group_119" data-name="Group 119">
        <g id="Group_118" data-name="Group 118">
          <g id="Group_101" data-name="Group 101">
            <path id="Path_538" data-name="Path 538" d="M800.6,205.618l-23.382-11.693v-2.683L800.6,202.935Z" fill="#df4640"/>
          </g>
          <g id="Group_102" data-name="Group 102">
            <path id="Path_539" data-name="Path 539" d="M800.6,211.068l-23.382-11.693v-2.683L800.6,208.385Z" fill="#6197ed"/>
          </g>
          <g id="Group_103" data-name="Group 103">
            <path id="Path_540" data-name="Path 540" d="M816.92,224.68l-23.382-11.694V210.3L816.92,222Z" fill="#6197ed"/>
          </g>
          <g id="Group_104" data-name="Group 104">
            <path id="Path_541" data-name="Path 541" d="M842.466,237.456l-23.381-11.693v-2.683l23.381,11.694Z" fill="#6197ed"/>
          </g>
          <g id="Group_105" data-name="Group 105">
            <path id="Path_542" data-name="Path 542" d="M868.012,250.231,844.63,238.538v-2.683l23.382,11.694Z" fill="#6197ed"/>
          </g>
          <g id="Group_106" data-name="Group 106">
            <path id="Path_543" data-name="Path 543" d="M893.558,263.007l-23.382-11.694V248.63l23.382,11.694Z" fill="#6197ed"/>
          </g>
          <g id="Group_107" data-name="Group 107">
            <path id="Path_544" data-name="Path 544" d="M826.275,234.809l-23.382-11.693v-2.683l23.382,11.693Z" fill="#6197ed"/>
          </g>
          <g id="Group_108" data-name="Group 108">
            <path id="Path_545" data-name="Path 545" d="M845.961,244.654l-17.521-8.763v-2.683l17.521,8.763Z" fill="#6197ed"/>
          </g>
          <g id="Group_109" data-name="Group 109">
            <path id="Path_546" data-name="Path 546" d="M865.676,254.513l-17.521-8.762v-2.683l17.521,8.762Z" fill="#6197ed"/>
          </g>
          <g id="Group_110" data-name="Group 110">
            <path id="Path_547" data-name="Path 547" d="M885.391,264.373l-17.521-8.762v-2.683l17.521,8.763Z" fill="#6197ed"/>
          </g>
          <g id="Group_111" data-name="Group 111">
            <path id="Path_548" data-name="Path 548" d="M816.92,235.581l-23.382-11.693V221.2L816.92,232.9Z" fill="#df4640"/>
          </g>
          <g id="Group_112" data-name="Group 112">
            <path id="Path_549" data-name="Path 549" d="M827.95,241.1l-8.865-4.434V233.98l8.865,4.434Z" fill="#6197ed"/>
          </g>
          <g id="Group_113" data-name="Group 113">
            <path id="Path_550" data-name="Path 550" d="M839.085,246.665l-8.866-4.434v-2.683l8.866,4.434Z" fill="#6197ed"/>
          </g>
          <g id="Group_114" data-name="Group 114">
            <path id="Path_551" data-name="Path 551" d="M850.22,252.234l-8.866-4.434v-2.683l8.866,4.434Z" fill="#6197ed"/>
          </g>
          <g id="Group_115" data-name="Group 115">
            <path id="Path_552" data-name="Path 552" d="M861.355,257.8l-8.865-4.434v-2.683l8.865,4.434Z" fill="#6197ed"/>
          </g>
          <g id="Group_116" data-name="Group 116">
            <path id="Path_553" data-name="Path 553" d="M774.278,192.453l-2.683-1.342v-2.683l2.683,1.342Z" fill="#df4640"/>
          </g>
          <path id="Path_554" data-name="Path 554" d="M774.278,197.9l-2.683-1.341v-2.683l2.683,1.342Z" fill="#6197ed"/>
          <path id="Path_555" data-name="Path 555" d="M774.278,203.354l-2.683-1.342v-2.683l2.683,1.342Z" fill="#6197ed"/>
          <path id="Path_556" data-name="Path 556" d="M774.278,208.8l-2.683-1.342v-2.683l2.683,1.342Z" fill="#6197ed"/>
          <g id="Group_117" data-name="Group 117">
            <path id="Path_557" data-name="Path 557" d="M774.278,214.255l-2.683-1.342V210.23l2.683,1.342Z" fill="#df4640"/>
          </g>
        </g>
      </g>
    </g>
    <g id="Group_140" data-name="Group 140" transform="translate(487.928 161.931)">
      <path id="Path_558" data-name="Path 558" d="M695.01,160.042l-76.231-39.631a4.72,4.72,0,0,1-2.509-3.764L614.9,96.093c0-1.385,2.493-2.5,3.879-1.811l77.6,38.808a4.72,4.72,0,0,1,2.509,3.765v21.11A2.7,2.7,0,0,1,695.01,160.042Z" fill="#91beff"/>
      <path id="Path_559" data-name="Path 559" d="M695.01,160.042l-77.6-38.808a4.722,4.722,0,0,1-2.509-3.764V96.359c-.042-1.66,1.122-1.958,2.509-1.255l77.6,38.809a4.719,4.719,0,0,1,2.51,3.764v21.111C697.52,160.174,696.4,160.736,695.01,160.042Z" fill="#2742a8"/>
      <g id="Group_139" data-name="Group 139">
        <g id="Group_138" data-name="Group 138">
          <g id="Group_121" data-name="Group 121">
            <path id="Path_560" data-name="Path 560" d="M627.508,103.571l-4.7-2.348V99.28l4.7,2.348Z" fill="#df4640"/>
          </g>
          <g id="Group_122" data-name="Group 122">
            <path id="Path_561" data-name="Path 561" d="M627.508,107.517l-4.7-2.349v-1.943l4.7,2.348Z" fill="#6197ed"/>
          </g>
          <g id="Group_123" data-name="Group 123">
            <path id="Path_562" data-name="Path 562" d="M641.841,118.631l-19.029-9.516v-1.943l19.029,9.516Z" fill="#6197ed"/>
          </g>
          <g id="Group_124" data-name="Group 124">
            <path id="Path_563" data-name="Path 563" d="M655.513,129.416l-20.154-10.08v-1.943l20.154,10.08Z" fill="#6197ed"/>
          </g>
          <g id="Group_125" data-name="Group 125">
            <path id="Path_564" data-name="Path 564" d="M664.514,133.917,656.89,130.1v-1.943l7.625,3.813Z" fill="#6197ed"/>
          </g>
          <g id="Group_126" data-name="Group 126">
            <path id="Path_565" data-name="Path 565" d="M664.514,137.863l-7.625-3.813v-1.943l7.625,3.813Z" fill="#6197ed"/>
          </g>
          <g id="Group_127" data-name="Group 127">
            <path id="Path_566" data-name="Path 566" d="M674.787,139.055l-7.624-3.813V133.3l7.624,3.813Z" fill="#6197ed"/>
          </g>
          <g id="Group_128" data-name="Group 128">
            <path id="Path_567" data-name="Path 567" d="M669.834,140.524l-2.672-1.336v-1.942l2.672,1.336Z" fill="#6197ed"/>
          </g>
          <g id="Group_129" data-name="Group 129">
            <path id="Path_568" data-name="Path 568" d="M674.31,142.762l-2.672-1.336v-1.943l2.672,1.336Z" fill="#6197ed"/>
          </g>
          <g id="Group_130" data-name="Group 130">
            <path id="Path_569" data-name="Path 569" d="M678.786,145l-2.672-1.336v-1.943l2.672,1.336Z" fill="#6197ed"/>
          </g>
          <g id="Group_131" data-name="Group 131">
            <path id="Path_570" data-name="Path 570" d="M683.262,147.239,680.59,145.9v-1.943l2.672,1.336Z" fill="#6197ed"/>
          </g>
          <g id="Group_132" data-name="Group 132">
            <path id="Path_571" data-name="Path 571" d="M687.738,149.477l-2.672-1.336V146.2l2.672,1.336Z" fill="#6197ed"/>
          </g>
          <g id="Group_133" data-name="Group 133">
            <path id="Path_572" data-name="Path 572" d="M685.06,144.192l-7.624-3.813v-1.943l7.624,3.813Z" fill="#6197ed"/>
          </g>
          <g id="Group_134" data-name="Group 134">
            <path id="Path_573" data-name="Path 573" d="M695.333,149.329l-7.625-3.813v-1.943l7.625,3.813Z" fill="#6197ed"/>
          </g>
          <g id="Group_135" data-name="Group 135">
            <path id="Path_574" data-name="Path 574" d="M655.513,133.362l-20.154-10.08V121.34l20.154,10.079Z" fill="#6197ed"/>
          </g>
          <g id="Group_136" data-name="Group 136">
            <path id="Path_575" data-name="Path 575" d="M642.721,130.911l-7.362-3.682v-1.943l7.362,3.682Z" fill="#df4640"/>
          </g>
          <path id="Path_576" data-name="Path 576" d="M620.418,100.026l-2.183-1.092V96.99l2.183,1.092Z" fill="#6197ed"/>
          <path id="Path_577" data-name="Path 577" d="M620.418,103.972l-2.183-1.092v-1.943l2.183,1.092Z" fill="#6197ed"/>
          <path id="Path_578" data-name="Path 578" d="M620.418,107.918l-2.183-1.092v-1.943l2.183,1.092Z" fill="#6197ed"/>
          <path id="Path_579" data-name="Path 579" d="M620.418,111.864l-2.183-1.092v-1.943l2.183,1.092Z" fill="#6197ed"/>
          <path id="Path_580" data-name="Path 580" d="M620.418,115.811l-2.183-1.092v-1.943l2.183,1.092Z" fill="#6197ed"/>
          <g id="Group_137" data-name="Group 137">
            <path id="Path_581" data-name="Path 581" d="M620.418,119.757l-2.183-1.092v-1.943l2.183,1.092Z" fill="#df4640"/>
          </g>
        </g>
      </g>
    </g>
    <g id="Group_171" data-name="Group 171" transform="translate(487.928 161.931)">
      <path id="Path_582" data-name="Path 582" d="M602.352,209.532l-49.273-26a3.411,3.411,0,0,1-1.813-2.721l-1.2-49.705c0-1.32,2.006-2.17,3.008-1.669l50.468,25.24a3.409,3.409,0,0,1,1.814,2.72v50.468A2.191,2.191,0,0,1,602.352,209.532Z" fill="#91beff"/>
      <path id="Path_583" data-name="Path 583" d="M602.352,209.532l-50.468-25.24a3.413,3.413,0,0,1-1.813-2.72V131.1c0-1,.812-1.408,1.813-.907l50.468,25.24a3.412,3.412,0,0,1,1.814,2.72v50.468C604.166,209.627,603.354,210.033,602.352,209.532Z" fill="#2742a8"/>
      <g id="Group_170" data-name="Group 170">
        <g id="Group_169" data-name="Group 169">
          <g id="Group_141" data-name="Group 141">
            <path id="Path_584" data-name="Path 584" d="M597.61,187.93l-17.989-9a4.71,4.71,0,0,1-2.5-3.754V151.4c0-1.382,1.121-1.942,2.5-1.251l17.989,9a4.709,4.709,0,0,1,2.5,3.754v23.777C600.113,188.061,598.992,188.622,597.61,187.93Z" fill="#91beff"/>
          </g>
          <g id="Group_142" data-name="Group 142">
            <path id="Path_585" data-name="Path 585" d="M556.795,140.861l-4.844-2.422v-2.453l4.844,2.422Z" fill="#91beff"/>
          </g>
          <g id="Group_143" data-name="Group 143">
            <path id="Path_586" data-name="Path 586" d="M559.709,147.069l-7.758-3.88v-2.453l7.758,3.88Z" fill="#df4640"/>
          </g>
          <g id="Group_144" data-name="Group 144">
            <path id="Path_587" data-name="Path 587" d="M556.795,150.36l-4.844-2.422v-2.453l4.844,2.422Z" fill="#91beff"/>
          </g>
          <g id="Group_145" data-name="Group 145">
            <path id="Path_588" data-name="Path 588" d="M562.131,153.029l-4.844-2.423v-2.453l4.844,2.422Z" fill="#91beff"/>
          </g>
          <g id="Group_146" data-name="Group 146">
            <path id="Path_589" data-name="Path 589" d="M567.773,155.851l-4.844-2.422v-2.453l4.844,2.423Z" fill="#91beff"/>
          </g>
          <g id="Group_147" data-name="Group 147">
            <path id="Path_590" data-name="Path 590" d="M565.493,149.961l-4.844-2.422v-2.453l4.844,2.423Z" fill="#df4640"/>
          </g>
          <g id="Group_148" data-name="Group 148">
            <path id="Path_591" data-name="Path 591" d="M573.415,158.672l-4.844-2.422V153.8l4.844,2.422Z" fill="#91beff"/>
          </g>
          <g id="Group_149" data-name="Group 149">
            <path id="Path_592" data-name="Path 592" d="M556.795,155.11l-4.844-2.422v-2.453l4.844,2.423Z" fill="#91beff"/>
          </g>
          <g id="Group_150" data-name="Group 150">
            <path id="Path_593" data-name="Path 593" d="M562.131,157.779l-4.844-2.422V152.9l4.844,2.422Z" fill="#91beff"/>
          </g>
          <g id="Group_151" data-name="Group 151">
            <path id="Path_594" data-name="Path 594" d="M565.351,164.138l-4.844-2.422v-2.453l4.844,2.423Z" fill="#91beff"/>
          </g>
          <g id="Group_152" data-name="Group 152">
            <path id="Path_595" data-name="Path 595" d="M559.31,161.117l-7.359-3.68v-2.453l7.359,3.68Z" fill="#91beff"/>
          </g>
          <g id="Group_153" data-name="Group 153">
            <path id="Path_596" data-name="Path 596" d="M556.795,164.609l-4.844-2.423v-2.453l4.844,2.422Z" fill="#91beff"/>
          </g>
          <g id="Group_154" data-name="Group 154">
            <path id="Path_597" data-name="Path 597" d="M562.93,167.676l-4.844-2.422V162.8l4.844,2.422Z" fill="#91beff"/>
          </g>
          <g id="Group_155" data-name="Group 155">
            <path id="Path_598" data-name="Path 598" d="M569.064,170.745l-4.844-2.423v-2.453l4.844,2.422Z" fill="#91beff"/>
          </g>
          <g id="Group_156" data-name="Group 156">
            <path id="Path_599" data-name="Path 599" d="M575.2,173.813l-4.844-2.422v-2.453l4.844,2.422Z" fill="#91beff"/>
          </g>
          <g id="Group_157" data-name="Group 157">
            <path id="Path_600" data-name="Path 600" d="M556.795,169.358l-4.844-2.423v-2.453l4.844,2.422Z" fill="#91beff"/>
          </g>
          <g id="Group_158" data-name="Group 158">
            <path id="Path_601" data-name="Path 601" d="M562.93,172.426,558.086,170V167.55l4.844,2.423Z" fill="#91beff"/>
          </g>
          <g id="Group_159" data-name="Group 159">
            <path id="Path_602" data-name="Path 602" d="M569.064,175.494l-4.844-2.422v-2.453l4.844,2.423Z" fill="#91beff"/>
          </g>
          <g id="Group_160" data-name="Group 160">
            <path id="Path_603" data-name="Path 603" d="M563.358,177.389l-11.407-5.7v-2.453l11.407,5.7Z" fill="#91beff"/>
          </g>
          <g id="Group_161" data-name="Group 161">
            <path id="Path_604" data-name="Path 604" d="M575.628,183.526l-11.407-5.7v-2.453l11.407,5.7Z" fill="#91beff"/>
          </g>
          <g id="Group_162" data-name="Group 162">
            <path id="Path_605" data-name="Path 605" d="M587.9,189.662l-11.407-5.705V181.5l11.407,5.7Z" fill="#91beff"/>
          </g>
          <g id="Group_163" data-name="Group 163">
            <path id="Path_606" data-name="Path 606" d="M594.95,193.189l-4.057-2.029v-2.453l4.057,2.029Z" fill="#91beff"/>
          </g>
          <g id="Group_164" data-name="Group 164">
            <path id="Path_607" data-name="Path 607" d="M556.795,178.857l-4.844-2.422v-2.453l4.844,2.422Z" fill="#91beff"/>
          </g>
          <g id="Group_165" data-name="Group 165">
            <path id="Path_608" data-name="Path 608" d="M562.93,181.925l-4.844-2.423v-2.453l4.844,2.422Z" fill="#91beff"/>
          </g>
          <g id="Group_166" data-name="Group 166">
            <path id="Path_609" data-name="Path 609" d="M569.064,184.993l-4.844-2.423v-2.453l4.844,2.422Z" fill="#91beff"/>
          </g>
          <g id="Group_167" data-name="Group 167">
            <path id="Path_610" data-name="Path 610" d="M575.2,188.061l-4.844-2.423v-2.453l4.844,2.422Z" fill="#91beff"/>
          </g>
          <g id="Group_168" data-name="Group 168">
            <path id="Path_611" data-name="Path 611" d="M556.795,183.606l-4.844-2.422V178.73l4.844,2.422Z" fill="#df4640"/>
          </g>
        </g>
      </g>
    </g>
    <g id="Group_189" data-name="Group 189" transform="translate(487.928 161.931)">
      <path id="Path_612" data-name="Path 612" d="M739.044,266.5,694.8,243.575a2.565,2.565,0,0,1-1.362-2.043l-.809-20.742c0-.752,1.419-1.459,2.171-1.083l44.682,22.346a2.562,2.562,0,0,1,1.362,2.043v21.143C740.843,265.992,739.8,266.873,739.044,266.5Z" fill="#91beff"/>
      <path id="Path_613" data-name="Path 613" d="M738.672,266.323,693.99,243.977a2.563,2.563,0,0,1-1.362-2.043V220.79c0-.752.61-1.057,1.362-.681l44.682,22.346a2.562,2.562,0,0,1,1.361,2.043v21.144C740.033,266.394,739.424,266.7,738.672,266.323Z" fill="#2742a8"/>
      <g id="Group_188" data-name="Group 188">
        <g id="Group_187" data-name="Group 187">
          <g id="Group_172" data-name="Group 172">
            <path id="Path_614" data-name="Path 614" d="M694.244,229.452v-7.758l2.453,1.227v7.758Z" fill="#6197ed"/>
          </g>
          <path id="Path_615" data-name="Path 615" d="M700.867,232.765v-7.758l2.453,1.227v7.758Z" fill="#6197ed"/>
          <g id="Group_173" data-name="Group 173">
            <path id="Path_616" data-name="Path 616" d="M707.491,236.077v-7.758l2.453,1.227V237.3Z" fill="#df4640"/>
          </g>
          <g id="Group_174" data-name="Group 174">
            <path id="Path_617" data-name="Path 617" d="M714.114,239.39v-7.758l2.453,1.227v7.759Z" fill="#6197ed"/>
          </g>
          <g id="Group_175" data-name="Group 175">
            <path id="Path_618" data-name="Path 618" d="M720.737,242.7v-7.759l2.453,1.227v7.759Z" fill="#df4640"/>
          </g>
          <g id="Group_176" data-name="Group 176">
            <path id="Path_619" data-name="Path 619" d="M727.36,246.014v-7.758l2.453,1.227v7.758Z" fill="#6197ed"/>
          </g>
          <g id="Group_177" data-name="Group 177">
            <path id="Path_620" data-name="Path 620" d="M733.984,249.327v-7.758l2.453,1.227v7.758Z" fill="#df4640"/>
          </g>
          <g id="Group_178" data-name="Group 178">
            <path id="Path_621" data-name="Path 621" d="M697.841,239.959V232.2l2.453,1.227v7.759Z" fill="#df4640"/>
          </g>
          <g id="Group_179" data-name="Group 179">
            <path id="Path_622" data-name="Path 622" d="M704.464,243.271v-7.759l2.453,1.227V244.5Z" fill="#6197ed"/>
          </g>
          <g id="Group_180" data-name="Group 180">
            <path id="Path_623" data-name="Path 623" d="M711.088,246.584v-7.759l2.453,1.227v7.758Z" fill="#df4640"/>
          </g>
          <path id="Path_624" data-name="Path 624" d="M717.711,249.9v-7.758l2.453,1.227v7.758Z" fill="#6197ed"/>
          <g id="Group_181" data-name="Group 181">
            <path id="Path_625" data-name="Path 625" d="M724.334,253.208V245.45l2.453,1.227v7.758Z" fill="#6197ed"/>
          </g>
          <path id="Path_626" data-name="Path 626" d="M730.957,256.52v-7.758l2.453,1.227v7.758Z" fill="#6197ed"/>
          <path id="Path_627" data-name="Path 627" d="M737.58,259.833v-7.758l2.453,1.227v7.758Z" fill="#6197ed"/>
          <g id="Group_182" data-name="Group 182">
            <path id="Path_628" data-name="Path 628" d="M694.816,244.39v-5.817l2.453,1.227v5.817Z" fill="#6197ed"/>
          </g>
          <path id="Path_629" data-name="Path 629" d="M701.44,247.7v-5.817l2.453,1.227v5.817Z" fill="#6197ed"/>
          <g id="Group_183" data-name="Group 183">
            <path id="Path_630" data-name="Path 630" d="M708.063,251.015V245.2l2.453,1.227v5.817Z" fill="#df4640"/>
          </g>
          <g id="Group_184" data-name="Group 184">
            <path id="Path_631" data-name="Path 631" d="M714.686,254.327V248.51l2.453,1.227v5.817Z" fill="#6197ed"/>
          </g>
          <g id="Group_185" data-name="Group 185">
            <path id="Path_632" data-name="Path 632" d="M721.309,257.639v-5.817l2.453,1.227v5.818Z" fill="#df4640"/>
          </g>
          <path id="Path_633" data-name="Path 633" d="M727.932,260.952v-5.818l2.453,1.227v5.817Z" fill="#6197ed"/>
          <g id="Group_186" data-name="Group 186">
            <path id="Path_634" data-name="Path 634" d="M734.556,264.264v-5.817l2.453,1.227v5.817Z" fill="#6197ed"/>
          </g>
        </g>
      </g>
    </g>
    <g id="Group_203" data-name="Group 203" transform="translate(487.928 161.931)">
      <path id="Path_635" data-name="Path 635" d="M808.8,287.7l-44.677-22.895a2.127,2.127,0,0,1-1.131-1.7l-.538-17.254c0-.624,1.044-1.027,1.669-.715L809.228,267.7a2.125,2.125,0,0,1,1.131,1.7v17.4A1.174,1.174,0,0,1,808.8,287.7Z" fill="#91beff"/>
      <path id="Path_636" data-name="Path 636" d="M808.69,287.653,763.583,265.1a2.129,2.129,0,0,1-1.13-1.7v-17.4c0-.624.506-.877,1.13-.565l45.107,22.559a2.127,2.127,0,0,1,1.131,1.695v17.4C809.821,287.713,809.314,287.966,808.69,287.653Z" fill="#2742a8"/>
      <g id="Group_198" data-name="Group 198">
        <g id="Group_197" data-name="Group 197">
          <g id="Group_196" data-name="Group 196">
            <g id="Group_191" data-name="Group 191">
              <g id="Group_190" data-name="Group 190">
                <path id="Path_637" data-name="Path 637" d="M771.766,264.218v-2.649l-4.521-2.261v-.868l4.343-4.043,1.421.711v6.05l1.363.682v1.032l-1.363-.682v2.65Zm0-3.681v-3.249c0-.513.013-1.011.043-1.507l-.043-.022c-.3.42-.54.719-.808,1.034l-2.38,2.116v.033Z" fill="#6197ed"/>
              </g>
            </g>
            <g id="Group_193" data-name="Group 193">
              <g id="Group_192" data-name="Group 192">
                <path id="Path_638" data-name="Path 638" d="M775.694,264.671a8,8,0,0,0,2.154,1.693c1.694.847,2.219.032,2.2-.79-.015-1.369-1.243-2.567-2.514-3.2l-.733-.366v-.985l.733.367c.957.478,2.171.591,2.171-.565A2.712,2.712,0,0,0,778,258.5a3.128,3.128,0,0,0-1.948-.331l-.344-1.131a4.275,4.275,0,0,1,2.546.523,4.532,4.532,0,0,1,2.784,3.718c0,1-.6,1.556-1.8,1.391v.026a4.766,4.766,0,0,1,2.171,3.587c0,1.556-1.213,2.315-3.548,1.147a8.829,8.829,0,0,1-2.531-1.925Z" fill="#6197ed"/>
              </g>
            </g>
            <g id="Group_195" data-name="Group 195">
              <g id="Group_194" data-name="Group 194">
                <path id="Path_639" data-name="Path 639" d="M787.45,265.068c0,2.054-1.078,2.533-2.338,1.9a4.532,4.532,0,0,1-2.276-4.072c0-1.947,1.064-2.51,2.353-1.865A4.366,4.366,0,0,1,787.45,265.068Zm-3.563-1.69a3.03,3.03,0,0,0,1.259,2.816c.868.435,1.255-.3,1.255-1.587a2.972,2.972,0,0,0-1.255-2.8C784.32,261.4,783.887,262.151,783.887,263.378Zm1.136,7.636,5.723-7.2.837.418-5.72,7.2Zm8.761,1.253c0,2.051-1.078,2.53-2.321,1.909a4.53,4.53,0,0,1-2.277-4.059c0-1.962,1.066-2.522,2.353-1.879A4.341,4.341,0,0,1,793.784,272.267Zm-3.561-1.691a3.1,3.1,0,0,0,1.272,2.819c.864.432,1.253-.3,1.253-1.588a2.977,2.977,0,0,0-1.253-2.8C790.67,268.6,790.223,269.349,790.223,270.576Z" fill="#6197ed"/>
              </g>
            </g>
          </g>
        </g>
      </g>
      <g id="Group_202" data-name="Group 202">
        <g id="Group_201" data-name="Group 201">
          <g id="Group_199" data-name="Group 199">
            <path id="Path_640" data-name="Path 640" d="M800.327,270.62l-.863-1.3-3.874,1.937.005.008-.005,0,3.874,5.812.863-.432-3.016-4.524Z" fill="#df4640"/>
          </g>
          <g id="Group_200" data-name="Group 200">
            <path id="Path_641" data-name="Path 641" d="M803.414,278.2l.863,1.3,3.874-1.936,0-.008,0,0-3.874-5.812-.863.432,3.016,4.524Z" fill="#df4640"/>
          </g>
        </g>
      </g>
    </g>
    <g id="Group_219" data-name="Group 219" transform="translate(487.928 161.931)">
      <path id="Path_642" data-name="Path 642" d="M772.1,297.694l-44.072-22.651A2.56,2.56,0,0,1,726.666,273l-.7-20.976c0-.752,1.305-1.225,2.057-.849l44.682,22.346a2.563,2.563,0,0,1,1.362,2.043v21.144C774.071,297.46,772.851,298.07,772.1,297.694Z" fill="#91beff"/>
      <path id="Path_643" data-name="Path 643" d="M772.009,297.653l-44.682-22.346a2.563,2.563,0,0,1-1.362-2.043V252.12c0-.752.61-1.056,1.362-.68l44.682,22.346a2.56,2.56,0,0,1,1.363,2.042v21.144C773.372,297.725,772.762,298.029,772.009,297.653Z" fill="#2742a8"/>
      <g id="Group_218" data-name="Group 218">
        <g id="Group_217" data-name="Group 217">
          <g id="Group_204" data-name="Group 204">
            <path id="Path_644" data-name="Path 644" d="M733.753,260.572l-3.93-1.966v-2.362l3.93,1.965Z" fill="#df4640"/>
          </g>
          <g id="Group_205" data-name="Group 205">
            <path id="Path_645" data-name="Path 645" d="M739.546,263.469l-3.931-1.966v-2.362l3.931,1.966Z" fill="#df4640"/>
          </g>
          <g id="Group_206" data-name="Group 206">
            <path id="Path_646" data-name="Path 646" d="M745.338,266.365l-3.93-1.966v-2.362l3.93,1.965Z" fill="#df4640"/>
          </g>
          <g id="Group_207" data-name="Group 207">
            <path id="Path_647" data-name="Path 647" d="M737.684,267.335l-7.861-3.931v-2.362l7.861,3.931Z" fill="#6197ed"/>
          </g>
          <g id="Group_208" data-name="Group 208">
            <path id="Path_648" data-name="Path 648" d="M743.17,274.876l-7.861-3.931v-2.362l7.861,3.931Z" fill="#6197ed"/>
          </g>
          <g id="Group_209" data-name="Group 209">
            <path id="Path_649" data-name="Path 649" d="M751.758,279.171,743.9,275.24v-2.362l7.861,3.931Z" fill="#6197ed"/>
          </g>
          <g id="Group_210" data-name="Group 210">
            <path id="Path_650" data-name="Path 650" d="M760.346,283.466l-7.86-3.931v-2.362l7.86,3.931Z" fill="#6197ed"/>
          </g>
          <g id="Group_211" data-name="Group 211">
            <path id="Path_651" data-name="Path 651" d="M768.934,287.761l-7.861-3.931v-2.362l7.861,3.931Z" fill="#6197ed"/>
          </g>
          <g id="Group_212" data-name="Group 212">
            <path id="Path_652" data-name="Path 652" d="M746.315,281.247l-7.861-3.931v-2.362l7.861,3.931Z" fill="#6197ed"/>
          </g>
          <g id="Group_213" data-name="Group 213">
            <path id="Path_653" data-name="Path 653" d="M752.933,284.556l-5.89-2.946v-2.362l5.89,2.946Z" fill="#6197ed"/>
          </g>
          <g id="Group_214" data-name="Group 214">
            <path id="Path_654" data-name="Path 654" d="M759.561,287.871l-5.89-2.946v-2.362l5.89,2.946Z" fill="#6197ed"/>
          </g>
          <g id="Group_215" data-name="Group 215">
            <path id="Path_655" data-name="Path 655" d="M766.189,291.186l-5.89-2.946v-2.362l5.89,2.946Z" fill="#6197ed"/>
          </g>
          <g id="Group_216" data-name="Group 216">
            <path id="Path_656" data-name="Path 656" d="M728.835,258.112l-.9-.451V255.3l.9.451Z" fill="#df4640"/>
          </g>
          <path id="Path_657" data-name="Path 657" d="M728.835,262.909l-.9-.451V260.1l.9.452Z" fill="#6197ed"/>
          <path id="Path_658" data-name="Path 658" d="M728.835,267.707l-.9-.451v-2.362l.9.451Z" fill="#6197ed"/>
          <path id="Path_659" data-name="Path 659" d="M728.835,272.5l-.9-.451v-2.362l.9.451Z" fill="#6197ed"/>
        </g>
      </g>
    </g>
  </g>
</svg>
