<svg id="logo-1" xmlns="http://www.w3.org/2000/svg" width="425.486" height="57.706" viewBox="0 0 425.486 57.706">
  <path id="Path_2" data-name="Path 2" d="M40.2-33.367,26.474.671Q23.851,7.2,19.947,9.821a16.783,16.783,0,0,1-9.577,2.623,20.158,20.158,0,0,1-5.642-.823A12.628,12.628,0,0,1,.244,9.455L4.819,0A9.01,9.01,0,0,0,7.168,1.281,7.244,7.244,0,0,0,9.7,1.769,4.267,4.267,0,0,0,13.115.427L-.915-33.367H13.237L20.13-15.494l7.015-17.873Zm57.828,0L86.437,0H73.017L67.954-15.433,62.708,0H49.288L37.7-33.367H50.752l5.734,17.629,5.978-17.629H74.176l5.8,17.812,5.978-17.812Zm25.864-.61a13.461,13.461,0,0,1,9.913,3.721q3.751,3.721,3.751,11.224V0H123.769V-16.653q0-5.734-4.087-5.734a4.775,4.775,0,0,0-3.752,1.616q-1.433,1.617-1.434,5.094V0H100.711V-33.367h13.115v3.294A12.722,12.722,0,0,1,118.34-33,15.465,15.465,0,0,1,123.891-33.977Zm56.181.61L166.347.671q-2.623,6.527-6.527,9.15a16.783,16.783,0,0,1-9.577,2.623,20.158,20.158,0,0,1-5.643-.823,12.628,12.628,0,0,1-4.483-2.166L144.692,0a9.01,9.01,0,0,0,2.348,1.281,7.245,7.245,0,0,0,2.532.488A4.267,4.267,0,0,0,152.988.427l-14.03-33.794H153.11L160-15.494l7.015-17.873ZM186.6.61a7.929,7.929,0,0,1-5.764-2.227,7.613,7.613,0,0,1-2.288-5.7,7.415,7.415,0,0,1,2.288-5.643,8.053,8.053,0,0,1,5.764-2.165,8.053,8.053,0,0,1,5.764,2.165,7.415,7.415,0,0,1,2.288,5.643,7.613,7.613,0,0,1-2.288,5.7A7.929,7.929,0,0,1,186.6.61Z" transform="translate(169.95 45.262)"/>
  <path id="Path_3" data-name="Path 3" d="M25.315-33.977a16.033,16.033,0,0,1,8.082,2.1A15.18,15.18,0,0,1,39.254-25.8a18.784,18.784,0,0,1,2.166,9.15,18.609,18.609,0,0,1-2.166,9.119A15.23,15.23,0,0,1,33.4-1.495,16.033,16.033,0,0,1,25.315.61q-5.551,0-8.479-2.867V11.834H3.05v-45.2H16.165v2.745Q19.154-33.977,25.315-33.977ZM22.021-10.126a5,5,0,0,0,3.9-1.708,6.992,6.992,0,0,0,1.525-4.819,7.111,7.111,0,0,0-1.525-4.85,4.96,4.96,0,0,0-3.9-1.739,4.96,4.96,0,0,0-3.9,1.739,7.111,7.111,0,0,0-1.525,4.85,6.992,6.992,0,0,0,1.525,4.819A5,5,0,0,0,22.021-10.126ZM45.75-45.262H59.536V0H45.75Z" transform="translate(365.95 45.262)" fill="#61dafb"/>
  <path id="Path_1" data-name="Path 1" d="M16.165-29.768q3.66-4.209,10.8-4.209v12.2a20.909,20.909,0,0,0-3.05-.244q-7.076,0-7.076,7.2V0H3.05V-33.367H16.165Zm49.9,13.054q0,.3-.183,3.233H42.7a5.615,5.615,0,0,0,2.44,2.9,8.3,8.3,0,0,0,4.27,1.006,10.78,10.78,0,0,0,3.69-.549,12.946,12.946,0,0,0,3.263-1.891l7.2,7.259Q58.682.61,48.983.61A23.979,23.979,0,0,1,38.369-1.617a16.856,16.856,0,0,1-7.076-6.192,16.345,16.345,0,0,1-2.5-8.906,16.452,16.452,0,0,1,2.471-8.937,16.886,16.886,0,0,1,6.771-6.131,20.952,20.952,0,0,1,9.669-2.2,21.013,21.013,0,0,1,9.241,2.013,15.863,15.863,0,0,1,6.649,5.917A17.09,17.09,0,0,1,66.063-16.714ZM47.824-24.583a5.37,5.37,0,0,0-3.538,1.159,5.5,5.5,0,0,0-1.83,3.294H53.192a5.6,5.6,0,0,0-1.83-3.264A5.281,5.281,0,0,0,47.824-24.583Zm36.6-9.394q8.784,0,13.42,3.934t4.636,12.109V0H89.67V-4.392q-2.379,5-9.455,5A15.09,15.09,0,0,1,73.475-.762a9.934,9.934,0,0,1-4.209-3.721A9.926,9.926,0,0,1,67.832-9.76a8.488,8.488,0,0,1,3.782-7.5q3.782-2.562,11.468-2.562h5.551q-.671-3.9-6.283-3.9a15.737,15.737,0,0,0-4.575.7,12.857,12.857,0,0,0-3.965,1.922L69.418-30.2a24.255,24.255,0,0,1,6.924-2.775A33.457,33.457,0,0,1,84.424-33.977ZM84.363-7.686a4.536,4.536,0,0,0,2.623-.793,4.586,4.586,0,0,0,1.708-2.379v-2.318H85.278q-4.209,0-4.209,2.806a2.429,2.429,0,0,0,.884,1.921A3.567,3.567,0,0,0,84.363-7.686ZM127,.61a22.791,22.791,0,0,1-10.157-2.2,16.976,16.976,0,0,1-7.015-6.161,16.306,16.306,0,0,1-2.532-8.967,16.156,16.156,0,0,1,2.532-8.937,17.052,17.052,0,0,1,7.015-6.131A22.791,22.791,0,0,1,127-33.977a19.767,19.767,0,0,1,10.431,2.623,13.611,13.611,0,0,1,5.978,7.259l-10.675,5.246q-1.952-4.392-5.795-4.392a5.351,5.351,0,0,0-4.057,1.708,6.737,6.737,0,0,0-1.617,4.819,6.828,6.828,0,0,0,1.617,4.88,5.351,5.351,0,0,0,4.057,1.708q3.843,0,5.795-4.392l10.675,5.246a13.611,13.611,0,0,1-5.978,7.259A19.767,19.767,0,0,1,127,.61Zm44.774-1.769A17.193,17.193,0,0,1,163.3.61q-7.015,0-10.8-3.386t-3.782-10.157v-8.54h-4.575V-31.537h4.575V-40.87H162.5v9.333h6.832v10.065H162.5v8.418a3.363,3.363,0,0,0,.793,2.379,2.7,2.7,0,0,0,2.074.854,5.389,5.389,0,0,0,3.111-.915Z" transform="translate(-3.05 45.262)" fill="#61dafb"/>
</svg>
