<svg xmlns="http://www.w3.org/2000/svg" width="467.271" height="83.12" viewBox="0 0 467.271 83.12">
  <g id="logo-2" transform="translate(-220.265 -160.324)">
    <path id="Icon_awesome-react" data-name="Icon awesome-react" d="M72.265,27.339q-1.4-.467-2.8-.881c.156-.639.294-1.279.432-1.918,2.125-10.3.726-18.576-3.992-21.306-4.545-2.609-11.958.1-19.457,6.636-.743.639-1.469,1.313-2.16,1.987-.467-.449-.95-.9-1.434-1.331C34.992,3.545,27.112.607,22.395,3.355,17.868,5.981,16.52,13.774,18.42,23.52c.19.968.4,1.918.639,2.886-1.106.311-2.195.657-3.214,1.02C6.618,30.622,0,35.668,0,40.887c0,5.391,7.05,10.8,16.641,14.083.778.259,1.555.518,2.35.743-.259,1.037-.484,2.056-.691,3.11-1.814,9.59-.4,17.194,4.13,19.8,4.666,2.7,12.511-.069,20.148-6.756.6-.536,1.21-1.089,1.814-1.676.76.743,3.7-3.335,4.493-2.644,7.4,6.359,2.348-6.9,6.858-9.51,4.835-.731,21.935-.1,19.965-10.051-.156-.76-5.173,8.519-5.363,7.724.553-.156.4-.536.935-.708,9.971-3.3,17.194-8.64,17.194-14.118,0-5.236-6.808-10.316-16.209-13.548ZM48.885,12.669c6.428-5.6,12.424-7.793,15.155-6.221,2.92,1.676,4.044,8.45,2.212,17.349-.121.588-.242,1.158-.4,1.728a88.461,88.461,0,0,0-11.629-1.832,87.306,87.306,0,0,0-7.361-9.176c.674-.639,1.331-1.244,2.022-1.849ZM28.892,49.855c.881,1.5,1.78,3.007,2.73,4.476a78.246,78.246,0,0,1-8.018-1.3,80.722,80.722,0,0,1,2.817-7.69c.795,1.521,1.607,3.024,2.471,4.51ZM23.656,29.067c2.488-.553,5.132-1,7.88-1.348-.916,1.434-1.814,2.9-2.661,4.389-.847,1.469-1.676,2.972-2.454,4.493-1.089-2.575-2-5.1-2.765-7.534Zm4.735,11.906c1.14-2.385,2.385-4.717,3.7-7.016s2.73-4.527,4.216-6.722c2.592-.19,5.236-.294,7.932-.294s5.357.1,7.932.294q2.2,3.266,4.2,6.687t3.75,6.981q-1.737,3.577-3.732,7.05c-1.313,2.3-2.713,4.527-4.182,6.739-2.575.19-5.253.276-7.966.276s-5.34-.086-7.88-.242q-2.255-3.292-4.251-6.739c-1.331-2.3-2.557-4.631-3.715-7.016ZM59.6,49.821c.881-1.521,1.711-3.059,2.523-4.614.518,1.173,2.269,3.17,4.274,5.462.564.644,1.852,1.761,2.613,2.667a8.934,8.934,0,0,1,1.8,3.258c-2.678.6-11.161-2.661-13.891-2.35C57.853,52.793,58.735,51.307,59.6,49.821ZM62.087,36.6c-.812-1.521-1.642-3.041-2.506-4.527q-1.27-2.2-2.644-4.355A79.519,79.519,0,0,1,64.869,29.1a76.474,76.474,0,0,1-2.782,7.5ZM44.271,17.161a75.879,75.879,0,0,1,5.115,6.186c-3.421-.156-6.86-.156-10.282,0C40.8,21.118,42.543,19.045,44.271,17.161ZM24.227,6.569c2.9-1.693,9.348.726,16.14,6.739.432.38.864.795,1.313,1.21a87.793,87.793,0,0,0-7.413,9.176,91.088,91.088,0,0,0-11.612,1.8c-.225-.881-.415-1.78-.6-2.678C20.425,14.448,21.5,8.141,24.227,6.569Zm-4.234,45.55c-.726-.207-1.434-.432-2.143-.674A35.243,35.243,0,0,1,6.964,46.054a7.754,7.754,0,0,1-3.249-5.167c0-3.162,5.46-7.206,13.34-9.953.985-.346,1.987-.657,2.989-.95a91.885,91.885,0,0,0,4.234,10.99,94.456,94.456,0,0,0-4.285,11.146ZM40.141,69.053a31.628,31.628,0,0,1-9.746,6.1,7.648,7.648,0,0,1-6.1.225c-2.748-1.59-3.888-7.69-2.333-15.9.19-.968.4-1.935.639-2.886a86.447,86.447,0,0,0,11.733,1.693A91.191,91.191,0,0,0,41.8,67.515C41.247,68.051,40.694,68.569,40.141,69.053Zm4.234-4.2c-1.763-1.9-3.525-4.009-5.236-6.273,1.659.069,3.37.1,5.1.1,1.78,0,3.525-.035,5.253-.121a74.523,74.523,0,0,1-5.115,6.29Zm9.85-5.374c-.156,2.108,1.659,1.392,0,2.723-2.748,1.59,1.279,12.76-5.046,7.334-.726-.622-1.452-1.3-2.195-1.987a85.482,85.482,0,0,0,7.292-9.262c1.551-.129-.586-4.135,1.265-4.392,2.087-.288,7.948,2.353,10.312,1.817.173.708,5.047-1.289,5.185-.6.847,3.732-16.261.529-16.814,4.365Zm19.268-7.569c-.484.156-2.84,1.654-3.342,1.792-4.2-1.061-4.211-9.24-5.921-12.816a87.347,87.347,0,0,0,4.234-10.869c.9.259,1.763.536,2.592.812,8.052,2.765,13.7,6.877,13.7,10.022,0,3.387-2.643,8.208-11.266,11.059ZM44.237,48.87a7.914,7.914,0,1,0-7.914-7.914A7.913,7.913,0,0,0,44.237,48.87Z" transform="translate(220.265 158.073)"/>
    <rect id="Rectangle_32" data-name="Rectangle 32" width="45" height="14" transform="translate(271 203)" fill="#f1eaea"/>
    <g id="Group_2" data-name="Group 2" transform="translate(187 -93)">
      <path id="Path_2" data-name="Path 2" d="M40.2-33.367,26.474.671Q23.851,7.2,19.947,9.821a16.783,16.783,0,0,1-9.577,2.623,20.158,20.158,0,0,1-5.642-.823A12.628,12.628,0,0,1,.244,9.455L4.819,0A9.01,9.01,0,0,0,7.168,1.281,7.244,7.244,0,0,0,9.7,1.769,4.267,4.267,0,0,0,13.115.427L-.915-33.367H13.237L20.13-15.494l7.015-17.873Zm57.828,0L86.437,0H73.017L67.954-15.433,62.708,0H49.288L37.7-33.367H50.752l5.734,17.629,5.978-17.629H74.176l5.8,17.812,5.978-17.812Zm25.864-.61a13.461,13.461,0,0,1,9.913,3.721q3.751,3.721,3.751,11.224V0H123.769V-16.653q0-5.734-4.087-5.734a4.775,4.775,0,0,0-3.752,1.616q-1.433,1.617-1.434,5.094V0H100.711V-33.367h13.115v3.294A12.722,12.722,0,0,1,118.34-33,15.465,15.465,0,0,1,123.891-33.977Zm56.181.61L166.347.671q-2.623,6.527-6.527,9.15a16.783,16.783,0,0,1-9.577,2.623,20.158,20.158,0,0,1-5.643-.823,12.628,12.628,0,0,1-4.483-2.166L144.692,0a9.01,9.01,0,0,0,2.348,1.281,7.245,7.245,0,0,0,2.532.488A4.267,4.267,0,0,0,152.988.427l-14.03-33.794H153.11L160-15.494l7.015-17.873ZM186.6.61a7.929,7.929,0,0,1-5.764-2.227,7.613,7.613,0,0,1-2.288-5.7,7.415,7.415,0,0,1,2.288-5.643,8.053,8.053,0,0,1,5.764-2.165,8.053,8.053,0,0,1,5.764,2.165,7.415,7.415,0,0,1,2.288,5.643,7.613,7.613,0,0,1-2.288,5.7A7.929,7.929,0,0,1,186.6.61Z" transform="translate(245 324)"/>
      <path id="Path_3" data-name="Path 3" d="M25.315-33.977a16.033,16.033,0,0,1,8.082,2.1A15.18,15.18,0,0,1,39.254-25.8a18.784,18.784,0,0,1,2.166,9.15,18.609,18.609,0,0,1-2.166,9.119A15.23,15.23,0,0,1,33.4-1.495,16.033,16.033,0,0,1,25.315.61q-5.551,0-8.479-2.867V11.834H3.05v-45.2H16.165v2.745Q19.154-33.977,25.315-33.977ZM22.021-10.126a5,5,0,0,0,3.9-1.708,6.992,6.992,0,0,0,1.525-4.819,7.111,7.111,0,0,0-1.525-4.85,4.96,4.96,0,0,0-3.9-1.739,4.96,4.96,0,0,0-3.9,1.739,7.111,7.111,0,0,0-1.525,4.85,6.992,6.992,0,0,0,1.525,4.819A5,5,0,0,0,22.021-10.126ZM45.75-45.262H59.536V0H45.75Z" transform="translate(441 324)" fill="#61dafb"/>
      <path id="Path_1" data-name="Path 1" d="M16.165-29.768q3.66-4.209,10.8-4.209v12.2a20.909,20.909,0,0,0-3.05-.244q-7.076,0-7.076,7.2V0H3.05V-33.367H16.165Zm49.9,13.054q0,.3-.183,3.233H42.7a5.615,5.615,0,0,0,2.44,2.9,8.3,8.3,0,0,0,4.27,1.006,10.78,10.78,0,0,0,3.69-.549,12.946,12.946,0,0,0,3.263-1.891l7.2,7.259Q58.682.61,48.983.61A23.979,23.979,0,0,1,38.369-1.617a16.856,16.856,0,0,1-7.076-6.192,16.345,16.345,0,0,1-2.5-8.906,16.452,16.452,0,0,1,2.471-8.937,16.886,16.886,0,0,1,6.771-6.131,20.952,20.952,0,0,1,9.669-2.2,21.013,21.013,0,0,1,9.241,2.013,15.863,15.863,0,0,1,6.649,5.917A17.09,17.09,0,0,1,66.063-16.714ZM47.824-24.583a5.37,5.37,0,0,0-3.538,1.159,5.5,5.5,0,0,0-1.83,3.294H53.192a5.6,5.6,0,0,0-1.83-3.264A5.281,5.281,0,0,0,47.824-24.583Zm36.6-9.394q8.784,0,13.42,3.934t4.636,12.109V0H89.67V-4.392q-2.379,5-9.455,5A15.09,15.09,0,0,1,73.475-.762a9.934,9.934,0,0,1-4.209-3.721A9.926,9.926,0,0,1,67.832-9.76a8.488,8.488,0,0,1,3.782-7.5q3.782-2.562,11.468-2.562h5.551q-.671-3.9-6.283-3.9a15.737,15.737,0,0,0-4.575.7,12.857,12.857,0,0,0-3.965,1.922L69.418-30.2a24.255,24.255,0,0,1,6.924-2.775A33.457,33.457,0,0,1,84.424-33.977ZM84.363-7.686a4.536,4.536,0,0,0,2.623-.793,4.586,4.586,0,0,0,1.708-2.379v-2.318H85.278q-4.209,0-4.209,2.806a2.429,2.429,0,0,0,.884,1.921A3.567,3.567,0,0,0,84.363-7.686ZM127,.61a22.791,22.791,0,0,1-10.157-2.2,16.976,16.976,0,0,1-7.015-6.161,16.306,16.306,0,0,1-2.532-8.967,16.156,16.156,0,0,1,2.532-8.937,17.052,17.052,0,0,1,7.015-6.131A22.791,22.791,0,0,1,127-33.977a19.767,19.767,0,0,1,10.431,2.623,13.611,13.611,0,0,1,5.978,7.259l-10.675,5.246q-1.952-4.392-5.795-4.392a5.351,5.351,0,0,0-4.057,1.708,6.737,6.737,0,0,0-1.617,4.819,6.828,6.828,0,0,0,1.617,4.88,5.351,5.351,0,0,0,4.057,1.708q3.843,0,5.795-4.392l10.675,5.246a13.611,13.611,0,0,1-5.978,7.259A19.767,19.767,0,0,1,127,.61Zm44.774-1.769A17.193,17.193,0,0,1,163.3.61q-7.015,0-10.8-3.386t-3.782-10.157v-8.54h-4.575V-31.537h4.575V-40.87H162.5v9.333h6.832v10.065H162.5v8.418a3.363,3.363,0,0,0,.793,2.379,2.7,2.7,0,0,0,2.074.854,5.389,5.389,0,0,0,3.111-.915Z" transform="translate(72 324)" fill="#61dafb"/>
    </g>
    <rect id="Rectangle_31" data-name="Rectangle 31" width="45" height="33" transform="translate(269 210)" fill="none"/>
  </g>
</svg>
