<svg xmlns="http://www.w3.org/2000/svg" xmlns:xlink="http://www.w3.org/1999/xlink" viewBox="0 0 476.204 295.59"><defs><linearGradient id="a" x1="0.5" x2="0.503" y2="87.018" gradientUnits="objectBoundingBox"><stop offset="0" stop-color="#c397f2"/><stop offset="0.235" stop-color="#d183d3"/><stop offset="0.563" stop-color="#e36daf"/><stop offset="0.83" stop-color="#ee5f99"/><stop offset="1" stop-color="#f25a91"/></linearGradient><linearGradient id="b" x1="0.5" y1="-0.017" x2="0.5" y2="1" xlink:href="#a"/><linearGradient id="c" x1="0.497" y1="-97.181" x2="0.5" y2="4.102" xlink:href="#a"/><linearGradient id="d" x1="35.925" y1="-18.845" x2="36.608" y2="-18.845" gradientUnits="objectBoundingBox"><stop offset="0" stop-color="#cfcfff"/><stop offset="0.168" stop-color="#c0bcf4"/><stop offset="0.508" stop-color="#9a8bd8"/><stop offset="0.985" stop-color="#5e3dac"/><stop offset="1" stop-color="#5d3bab"/></linearGradient><linearGradient id="e" x1="-0.623" y1="9.778" x2="0.201" y2="9.778" gradientUnits="objectBoundingBox"><stop offset="0" stop-color="#f25a91"/><stop offset="0.217" stop-color="#eb6ca3"/><stop offset="0.653" stop-color="#dc9dd2"/><stop offset="1" stop-color="#cec8fd"/></linearGradient><linearGradient id="f" x1="294.3" y1="68.344" x2="294.863" y2="68.953" gradientUnits="objectBoundingBox"><stop offset="0" stop-color="#c397f2"/><stop offset="1" stop-color="#5d3bab"/></linearGradient><linearGradient id="g" x1="411.187" y1="80.514" x2="411.324" y2="81.032" gradientUnits="objectBoundingBox"><stop offset="0" stop-color="#c397f2"/><stop offset="0.151" stop-color="#a980e0"/><stop offset="0.388" stop-color="#8862c9"/><stop offset="0.615" stop-color="#704cb8"/><stop offset="0.824" stop-color="#613fae"/><stop offset="1" stop-color="#5d3bab"/></linearGradient><linearGradient id="h" x1="295.911" y1="86.361" x2="294.936" y2="87.207" gradientUnits="objectBoundingBox"><stop offset="0" stop-color="#c397f2"/><stop offset="0.231" stop-color="#b086e4"/><stop offset="0.697" stop-color="#7f5ac3"/><stop offset="1" stop-color="#5d3bab"/></linearGradient><linearGradient id="i" x1="-33.318" y1="30.248" x2="-32.536" y2="30.48" xlink:href="#h"/><linearGradient id="j" x1="-22.127" y1="61.213" x2="-21.15" y2="61.213" xlink:href="#h"/><linearGradient id="k" x1="-0.014" y1="0.962" x2="1.014" y2="0.038" gradientUnits="objectBoundingBox"><stop offset="0" stop-color="#cfcfff"/><stop offset="0.24" stop-color="#bdbcf6"/><stop offset="0.722" stop-color="#918be1"/><stop offset="1" stop-color="#766dd4"/></linearGradient><linearGradient id="l" x1="1" y1="0.5" x2="0" y2="0.5" xlink:href="#k"/><linearGradient id="m" x1="0" y1="0.5" x2="1" y2="0.5" xlink:href="#k"/><linearGradient id="n" y1="0.5" x2="1" y2="0.5" gradientUnits="objectBoundingBox"><stop offset="0" stop-color="#c397f2"/><stop offset="0.295" stop-color="#b08cea"/><stop offset="0.889" stop-color="#7f72d7"/><stop offset="1" stop-color="#766dd4"/></linearGradient><linearGradient id="o" x1="-133.962" y1="65.186" x2="-132.749" y2="65.186" xlink:href="#d"/><linearGradient id="p" x1="46.074" y1="15.112" x2="47.167" y2="15.112" gradientUnits="objectBoundingBox"><stop offset="0" stop-color="#c397f2"/><stop offset="0.436" stop-color="#c7a9f6"/><stop offset="1" stop-color="#cec8fd"/></linearGradient><linearGradient id="q" x1="43.608" y1="24.688" x2="44.391" y2="24.688" xlink:href="#h"/><linearGradient id="r" y1="0.5" x2="1" y2="0.5" gradientUnits="objectBoundingBox"><stop offset="0" stop-color="#f25a91"/><stop offset="0.051" stop-color="#ee5e98"/><stop offset="0.336" stop-color="#db77bf"/><stop offset="0.598" stop-color="#ce88db"/><stop offset="0.828" stop-color="#c593ec"/><stop offset="1" stop-color="#c397f2"/></linearGradient><linearGradient id="s" x1="-113.31" y1="-55.179" x2="-112.458" y2="-55.179" gradientUnits="objectBoundingBox"><stop offset="0" stop-color="#cfcfff"/><stop offset="0.354" stop-color="#c9b5f9"/><stop offset="0.748" stop-color="#c49ff3"/><stop offset="1" stop-color="#c397f2"/></linearGradient><linearGradient id="t" x1="-201.077" y1="-25.047" x2="-200.303" y2="-25.047" xlink:href="#s"/><linearGradient id="u" x1="-155.32" y1="-40.742" x2="-155.008" y2="-40.671" gradientUnits="objectBoundingBox"><stop offset="0" stop-color="#c397f2"/><stop offset="0.354" stop-color="#c8b0f7"/><stop offset="0.748" stop-color="#cdc6fd"/><stop offset="1" stop-color="#cfcfff"/></linearGradient><linearGradient id="v" x1="-155.038" y1="-40.71" x2="-155.324" y2="-40.71" xlink:href="#u"/><linearGradient id="w" x1="-0.014" y1="0.962" x2="1.014" y2="0.038" gradientUnits="objectBoundingBox"><stop offset="0" stop-color="#565dc4"/><stop offset="0.072" stop-color="#5555fd"/><stop offset="0.378" stop-color="#6e7cf8"/><stop offset="0.645" stop-color="#c878f5"/><stop offset="0.862" stop-color="#62d9f2"/><stop offset="1" stop-color="#5a8df2"/></linearGradient><linearGradient id="x" x1="1" y1="0.5" x2="0" y2="0.5" gradientUnits="objectBoundingBox"><stop offset="0" stop-color="#4f90ff"/><stop offset="0.072" stop-color="#55bafd"/><stop offset="0.378" stop-color="#6e80f8"/><stop offset="0.645" stop-color="#787cf5"/><stop offset="0.862" stop-color="#a562f2"/><stop offset="1" stop-color="#915af2"/></linearGradient><linearGradient id="y" y1="0.5" x2="1" y2="0.5" gradientUnits="objectBoundingBox"><stop offset="0" stop-color="#4f84ff"/><stop offset="0.072" stop-color="#559efd"/><stop offset="0.378" stop-color="#6e93f8"/><stop offset="0.645" stop-color="#78a2f5"/><stop offset="0.862" stop-color="#6288f2"/><stop offset="1" stop-color="#5abef2"/></linearGradient><linearGradient id="z" y1="0.5" x2="1" y2="0.5" gradientUnits="objectBoundingBox"><stop offset="0" stop-color="#5d3bab"/><stop offset="0.3" stop-color="#664ebb"/><stop offset="0.727" stop-color="#7164cd"/><stop offset="1" stop-color="#766dd4"/></linearGradient><linearGradient id="aa" y1="0.5" x2="1" y2="0.5" gradientUnits="objectBoundingBox"><stop offset="0" stop-color="#c397f2"/><stop offset="0.098" stop-color="#b891ed"/><stop offset="0.485" stop-color="#947ddf"/><stop offset="0.799" stop-color="#7e71d7"/><stop offset="1" stop-color="#766dd4"/></linearGradient></defs><g transform="translate(-282.281 -54.453)"><g transform="translate(282.281 54.453)"><g transform="translate(320.335 120.064)" opacity="0.8" style="mix-blend-mode:multiply;isolation:isolate"><path d="M601.863,170.914h0a325.484,325.484,0,0,1-42.9-3.43c-13.693-2.209-21.517-5.224-21.473-8.277.048-3.038,7.888-5.719,21.521-7.353a363.571,363.571,0,0,1,85.873,1.775c13.686,2.2,21.508,5.223,21.46,8.274-.043,3.036-7.886,5.717-21.512,7.35A322.964,322.964,0,0,1,601.863,170.914Z" transform="translate(-537.487 -150.106)" fill="#fff" opacity="0"/><path d="M665.378,161.808c-.044-2.984-7.779-5.933-21.242-8.09a326.612,326.612,0,0,0-42.506-3.365,323.11,323.11,0,0,0-42.487,1.62c-13.507,1.6-21.261,4.225-21.307,7.2-.044,2.991,7.694,5.948,21.264,8.117a327.016,327.016,0,0,0,42.618,3.376h0a324.756,324.756,0,0,0,42.678-1.619c13.712-1.6,21.364-4.251,20.982-7.241" transform="translate(-537.398 -150.065)" fill="#fbfafd" opacity="0.024"/><path d="M664.417,161.713c-.137-2.915-7.785-5.8-21.023-7.9a327.532,327.532,0,0,0-42.095-3.3,322.486,322.486,0,0,0-42.022,1.58c-13.383,1.565-21.049,4.136-21.095,7.052s7.609,5.828,21.059,7.957a329.24,329.24,0,0,0,42.333,3.324h0a326.875,326.875,0,0,0,42.389-1.578c13.8-1.575,21.257-4.189,20.454-7.133" transform="translate(-537.309 -150.024)" fill="#f7f5fb" opacity="0.049"/><path d="M663.456,161.62c-.231-2.847-7.79-5.661-20.806-7.718a328.707,328.707,0,0,0-41.683-3.232,322.293,322.293,0,0,0-41.554,1.543c-13.26,1.53-20.839,4.047-20.884,6.9s7.525,5.707,20.854,7.8a331.13,331.13,0,0,0,42.047,3.27h0a328.424,328.424,0,0,0,42.1-1.536c13.884-1.546,21.149-4.125,19.925-7.023" transform="translate(-537.221 -149.984)" fill="#f3f1f9" opacity="0.073"/><path d="M662.492,161.524c-.323-2.778-7.791-5.551-20.587-7.532a325.961,325.961,0,0,0-41.271-3.164,322.436,322.436,0,0,0-41.087,1.5c-13.135,1.5-20.627,3.958-20.672,6.749s7.442,5.587,20.647,7.638a333.65,333.65,0,0,0,41.762,3.217h0a335.534,335.534,0,0,0,41.811-1.495c13.968-1.549,21.044-4.063,19.4-6.916" transform="translate(-537.132 -149.943)" fill="#efecf7" opacity="0.098"/><path d="M661.531,161.43c-.415-2.709-7.8-5.42-20.37-7.347a326.724,326.724,0,0,0-40.857-3.1,322.906,322.906,0,0,0-40.622,1.466c-13.009,1.461-20.415,3.869-20.459,6.6s7.357,5.466,20.44,7.477a335.568,335.568,0,0,0,41.477,3.163h0a338.689,338.689,0,0,0,41.522-1.454c14.053-1.525,20.938-4,18.868-6.807" transform="translate(-537.044 -149.903)" fill="#ebe7f5" opacity="0.122"/><path d="M660.569,161.337c-.507-2.641-7.8-5.289-20.15-7.161a326.918,326.918,0,0,0-40.446-3.033,322.766,322.766,0,0,0-40.155,1.427c-12.885,1.426-20.2,3.778-20.246,6.448s7.273,5.347,20.234,7.318A337.583,337.583,0,0,0,601,169.445h0a342.5,342.5,0,0,0,41.233-1.411c14.139-1.5,20.831-3.938,18.34-6.7" transform="translate(-536.955 -149.862)" fill="#e7e2f3" opacity="0.146"/><path d="M659.605,161.242c-.6-2.573-7.8-5.158-19.93-6.976a327.893,327.893,0,0,0-40.035-2.966,323.178,323.178,0,0,0-39.688,1.39c-12.759,1.392-19.992,3.69-20.034,6.3s7.188,5.228,20.028,7.157a340.133,340.133,0,0,0,40.906,3.058h0a346,346,0,0,0,40.945-1.371c14.224-1.481,20.723-3.875,17.809-6.589" transform="translate(-536.866 -149.822)" fill="#e3def1" opacity="0.171"/><path d="M658.644,161.148c-.693-2.505-7.809-5.027-19.714-6.791a328.176,328.176,0,0,0-39.621-2.9,323.448,323.448,0,0,0-39.221,1.351c-12.637,1.358-19.781,3.6-19.822,6.147s7.1,5.106,19.821,7a342.661,342.661,0,0,0,40.62,3h0a349.785,349.785,0,0,0,40.657-1.328c14.309-1.457,20.615-3.812,17.28-6.481" transform="translate(-536.778 -149.781)" fill="#dfd9ef" opacity="0.195"/><path d="M657.682,161.053c-.785-2.436-7.812-4.9-19.495-6.6a328.81,328.81,0,0,0-39.21-2.832,323.611,323.611,0,0,0-38.754,1.31c-12.511,1.324-19.57,3.512-19.611,6s7.019,4.986,19.615,6.838a345.933,345.933,0,0,0,40.335,2.95h0a353.666,353.666,0,0,0,40.369-1.288c14.4-1.433,20.51-3.749,16.752-6.371" transform="translate(-536.689 -149.741)" fill="#dbd4ed" opacity="0.22"/><path d="M656.721,160.959c-.877-2.367-7.817-4.762-19.277-6.419a329.814,329.814,0,0,0-38.8-2.765,323.8,323.8,0,0,0-38.289,1.274c-12.386,1.289-19.358,3.422-19.4,5.844s6.934,4.868,19.409,6.679a348.723,348.723,0,0,0,40.048,2.9h0a357.6,357.6,0,0,0,40.08-1.245c14.481-1.408,20.4-3.687,16.223-6.263" transform="translate(-536.601 -149.7)" fill="#d7cfeb" opacity="0.244"/><path d="M655.758,160.864c-.968-2.3-7.82-4.632-19.058-6.233a330.892,330.892,0,0,0-38.384-2.7,324.72,324.72,0,0,0-37.822,1.234c-12.263,1.255-19.147,3.334-19.187,5.695s6.851,4.747,19.2,6.518a351.474,351.474,0,0,0,39.764,2.843h0a361.373,361.373,0,0,0,39.79-1.2c14.569-1.384,20.3-3.622,15.7-6.154" transform="translate(-536.512 -149.66)" fill="#d4cae8" opacity="0.268"/><path d="M654.8,160.77c-1.061-2.232-7.825-4.5-18.841-6.048a331.765,331.765,0,0,0-37.972-2.632,325.164,325.164,0,0,0-37.355,1.2c-12.137,1.22-18.935,3.242-18.974,5.543s6.766,4.627,19,6.359a354.91,354.91,0,0,0,39.477,2.789h0a366.132,366.132,0,0,0,39.5-1.161c14.654-1.361,20.19-3.561,15.165-6.046" transform="translate(-536.423 -149.619)" fill="#d0c6e6" opacity="0.293"/><path d="M653.834,160.675c-1.154-2.163-7.832-4.364-18.622-5.862a333.381,333.381,0,0,0-37.561-2.567,326.91,326.91,0,0,0-36.888,1.159c-12.012,1.186-18.724,3.154-18.761,5.394s6.68,4.506,18.789,6.2a358.614,358.614,0,0,0,39.192,2.735h0a370.374,370.374,0,0,0,39.213-1.121c14.74-1.336,20.083-3.5,14.638-5.937" transform="translate(-536.335 -149.579)" fill="#ccc1e4" opacity="0.317"/><path d="M652.871,160.582c-1.245-2.095-7.834-4.234-18.4-5.677a334.484,334.484,0,0,0-37.147-2.5,327.706,327.706,0,0,0-36.422,1.12c-11.888,1.151-18.512,3.065-18.548,5.242s6.595,4.387,18.582,6.039a361.854,361.854,0,0,0,38.906,2.682h0a374.7,374.7,0,0,0,38.925-1.078c14.826-1.309,19.978-3.436,14.107-5.828" transform="translate(-536.246 -149.538)" fill="#c8bce2" opacity="0.341"/><path d="M651.91,160.486c-1.338-2.026-7.84-4.1-18.185-5.49a336.419,336.419,0,0,0-36.736-2.433,328.9,328.9,0,0,0-35.954,1.081c-11.765,1.117-18.3,2.976-18.339,5.091s6.513,4.266,18.377,5.879a366.267,366.267,0,0,0,38.62,2.63h0a379.96,379.96,0,0,0,38.638-1.038c14.911-1.285,19.87-3.373,13.579-5.72" transform="translate(-536.158 -149.498)" fill="#c4b7e0" opacity="0.366"/><path d="M650.948,160.392c-1.431-1.957-7.845-3.965-17.968-5.3a338.107,338.107,0,0,0-36.323-2.366,330.4,330.4,0,0,0-35.488,1.042c-11.639,1.082-18.089,2.887-18.125,4.942s6.428,4.145,18.172,5.717A370.259,370.259,0,0,0,599.55,167h0c14.171.292,27.868-.117,38.346-1,15-1.258,19.764-3.31,13.051-5.612" transform="translate(-536.069 -149.457)" fill="#c0b3de" opacity="0.39"/><path d="M649.987,160.3c-1.524-1.89-7.85-3.832-17.75-5.12a340.327,340.327,0,0,0-35.91-2.3,331.976,331.976,0,0,0-35.023,1c-11.515,1.048-17.878,2.8-17.913,4.79s6.343,4.027,17.964,5.559a374.981,374.981,0,0,0,38.05,2.522h0c14.055.29,27.655-.1,38.059-.954,15.082-1.231,19.656-3.247,12.522-5.5" transform="translate(-535.98 -149.417)" fill="#bcaedc" opacity="0.415"/><path d="M649.023,160.2c-1.615-1.821-7.855-3.7-17.53-4.934a342.413,342.413,0,0,0-35.5-2.232,333.161,333.161,0,0,0-34.556.965c-11.39,1.013-17.666,2.706-17.7,4.639s6.26,3.9,17.759,5.4c10.325,1.308,23.833,2.18,37.766,2.469h0c13.938.287,27.44-.092,37.769-.913,15.169-1.2,19.551-3.184,11.992-5.394" transform="translate(-535.892 -149.376)" fill="#b8a9da" opacity="0.439"/><path d="M648.062,160.109c-1.71-1.753-7.861-3.561-17.313-4.748a345.025,345.025,0,0,0-35.087-2.165,335.6,335.6,0,0,0-34.089.926c-11.265.979-17.455,2.617-17.489,4.489s6.174,3.786,17.551,5.239c10.253,1.275,23.663,2.129,37.48,2.415h0c13.822.285,27.227-.079,37.48-.871,15.257-1.177,19.444-3.122,11.465-5.284" transform="translate(-535.803 -149.335)" fill="#b4a4d8" opacity="0.463"/><path d="M647.1,160.015c-1.8-1.684-7.865-3.425-17.095-4.563-9.956-1.226-22.213-1.875-34.675-2.1s-24.357.087-33.622.889c-11.141.945-17.243,2.528-17.277,4.338s6.09,3.665,17.347,5.08c10.176,1.243,23.491,2.077,37.193,2.361h0c13.707.282,27.013-.066,37.193-.828,15.341-1.15,19.336-3.06,10.935-5.176" transform="translate(-535.714 -149.295)" fill="#b09fd6" opacity="0.488"/><path d="M646.137,159.922c-1.893-1.618-7.87-3.292-16.875-4.378-9.87-1.191-21.978-1.815-34.262-2.033s-24.011.079-33.155.851c-11.017.909-17.032,2.439-17.066,4.186s6.006,3.546,17.14,4.92c10.1,1.211,23.322,2.027,36.908,2.308h0c13.591.28,26.8-.054,36.9-.787,15.43-1.121,19.231-3,10.406-5.067" transform="translate(-535.626 -149.255)" fill="#ac9bd4" opacity="0.512"/><path d="M645.175,159.826c-1.984-1.548-7.875-3.154-16.658-4.191-9.784-1.156-21.741-1.754-33.849-1.967s-23.666.07-32.689.812c-10.893.876-16.821,2.35-16.852,4.037s5.922,3.424,16.933,4.76c10.029,1.18,23.15,1.976,36.623,2.254h0c13.474.279,26.589-.04,36.616-.746,15.516-1.093,19.123-2.933,9.877-4.959" transform="translate(-535.537 -149.214)" fill="#a896d2" opacity="0.537"/><path d="M644.215,159.733c-2.079-1.481-7.883-3.02-16.441-4.007-9.7-1.12-21.507-1.691-33.437-1.9s-23.32.062-32.222.774c-10.768.84-16.609,2.259-16.64,3.885s5.838,3.3,16.727,4.6c9.955,1.149,22.98,1.926,36.338,2.2h0c13.359.276,26.374-.025,36.326-.7,15.6-1.063,19.018-2.869,9.35-4.849" transform="translate(-535.448 -149.174)" fill="#a491d0" opacity="0.561"/><path d="M643.251,159.638c-2.169-1.412-7.888-2.882-16.22-3.821-9.615-1.083-21.273-1.631-33.026-1.834s-22.974.053-31.755.736c-10.644.806-16.4,2.171-16.429,3.734s5.752,3.184,16.52,4.44c9.882,1.117,22.811,1.874,36.053,2.149h0c13.244.274,26.162-.013,36.038-.663,15.688-1.033,18.91-2.808,8.819-4.741" transform="translate(-535.36 -149.133)" fill="#a08cce" opacity="0.585"/><path d="M642.289,159.544c-2.262-1.344-7.891-2.745-16-3.636-9.531-1.047-21.037-1.569-32.613-1.766s-22.629.044-31.29.7c-10.52.771-16.187,2.081-16.217,3.584s5.669,3.064,16.315,4.279c9.806,1.086,22.64,1.824,35.766,2.095h0c13.128.271,25.95,0,35.749-.62,15.774-1,18.8-2.746,8.291-4.633" transform="translate(-535.271 -149.093)" fill="#9c87cc" opacity="0.61"/><path d="M641.328,159.449c-2.355-1.275-7.9-2.606-15.784-3.449-9.445-1.01-20.8-1.509-32.2-1.7s-22.282.035-30.823.656c-10.394.738-15.975,1.993-16,3.434s5.583,2.945,16.108,4.12c9.733,1.053,22.469,1.774,35.48,2.042h0c13.013.267,25.737.016,35.461-.58,15.863-.973,18.7-2.682,7.763-4.524" transform="translate(-535.183 -149.052)" fill="#9883ca" opacity="0.634"/><path d="M640.366,159.355c-2.448-1.207-7.9-2.468-15.567-3.264-9.359-.973-20.567-1.447-31.787-1.634s-21.937.028-30.357.621c-10.269.7-15.763,1.9-15.792,3.281s5.5,2.824,15.9,3.96c9.66,1.022,22.3,1.722,35.2,1.988h0c12.9.266,25.523.031,35.172-.537,15.947-.941,18.59-2.621,7.234-4.416" transform="translate(-535.094 -149.012)" fill="#947ec8" opacity="0.659"/><path d="M639.4,159.261c-2.539-1.14-7.909-2.33-15.347-3.079-9.275-.934-20.332-1.384-31.376-1.566s-21.591.019-29.89.581c-10.146.67-15.552,1.815-15.58,3.132s5.415,2.7,15.695,3.8c9.586.99,22.129,1.671,34.91,1.934h0c12.782.264,25.31.048,34.883-.5,16.035-.909,18.485-2.557,6.705-4.307" transform="translate(-535.005 -148.971)" fill="#9079c6" opacity="0.683"/><path d="M638.441,159.166c-2.632-1.069-7.914-2.19-15.129-2.893-9.189-.895-20.1-1.324-30.963-1.5s-21.246.01-29.423.542c-10.021.634-15.341,1.725-15.367,2.981s5.331,2.584,15.488,3.64c9.512.958,21.958,1.619,34.625,1.882h0c12.665.261,25.1.062,34.595-.456,16.121-.877,18.377-2.493,6.176-4.2" transform="translate(-534.917 -148.931)" fill="#8c74c4" opacity="0.707"/><path d="M637.48,159.072c-2.725-1-7.922-2.05-14.912-2.707-9.105-.855-19.862-1.263-30.55-1.432s-20.9,0-28.959.5c-9.895.6-15.128,1.636-15.155,2.83s5.247,2.464,15.283,3.481c9.437.926,21.789,1.569,34.34,1.828h0c12.548.259,24.884.079,34.306-.412,16.207-.845,18.27-2.433,5.647-4.091" transform="translate(-534.828 -148.89)" fill="#8870c2" opacity="0.732"/><path d="M636.518,158.977a72.632,72.632,0,0,0-14.695-2.522c-9.019-.815-19.626-1.2-30.139-1.366s-20.553-.008-28.489.466c-9.772.565-14.918,1.545-14.943,2.679s5.161,2.345,15.076,3.321c9.362.894,21.617,1.518,34.054,1.775h0c12.433.256,24.672.093,34.016-.372,16.3-.812,18.165-2.37,5.12-3.981" transform="translate(-534.74 -148.85)" fill="#856bbf" opacity="0.756"/><path d="M635.555,158.883a79.625,79.625,0,0,0-14.475-2.336c-8.936-.773-19.392-1.14-29.727-1.3s-20.206-.016-28.024.428c-9.648.53-14.706,1.455-14.73,2.528s5.077,2.223,14.868,3.161c9.29.862,21.448,1.466,33.769,1.721h0c12.317.254,24.459.109,33.729-.33,16.38-.778,18.057-2.306,4.59-3.872" transform="translate(-534.651 -148.809)" fill="#8166bd" opacity="0.78"/><path d="M634.593,158.79a88,88,0,0,0-14.256-2.15c-8.852-.733-19.157-1.079-29.314-1.234s-19.861-.025-27.557.389c-9.523.5-14.5,1.367-14.519,2.379s4.992,2.1,14.663,3c9.214.83,21.277,1.416,33.482,1.667h0c12.2.252,24.247.127,33.439-.289,16.468-.742,17.952-2.242,4.062-3.762" transform="translate(-534.562 -148.769)" fill="#7d61bb" opacity="0.805"/><path d="M633.631,158.7a98.453,98.453,0,0,0-14.038-1.966c-8.768-.689-18.921-1.018-28.9-1.166s-19.515-.034-27.091.351c-9.4.461-14.282,1.277-14.305,2.225s4.908,1.983,14.456,2.842c9.142.8,21.108,1.364,33.2,1.613h0c12.086.25,24.033.144,33.151-.246,16.554-.707,17.845-2.18,3.532-3.654" transform="translate(-534.474 -148.729)" fill="#795cb9" opacity="0.829"/><path d="M632.669,158.6a112.227,112.227,0,0,0-13.821-1.78c-8.681-.645-18.685-.955-28.489-1.1s-19.168-.041-26.623.313c-9.273.427-14.075,1.187-14.095,2.076s4.824,1.863,14.25,2.681c9.066.766,20.937,1.313,32.913,1.56h0c11.97.247,23.82.161,32.861-.2,16.64-.673,17.739-2.118,3-3.546" transform="translate(-534.385 -148.688)" fill="#7558b7" opacity="0.854"/><path d="M631.707,158.507a130.181,130.181,0,0,0-13.6-1.594c-8.6-.6-18.45-.895-28.078-1.033s-18.823-.05-26.156.274c-9.15.393-13.861,1.1-13.884,1.925s4.741,1.742,14.046,2.522c8.991.734,20.765,1.263,32.625,1.506h0c11.853.245,23.607.178,32.574-.163,16.727-.636,17.631-2.055,2.474-3.437" transform="translate(-534.297 -148.648)" fill="#7153b5" opacity="0.878"/><path d="M630.744,158.413c-3.37-.525-7.961-1.056-13.383-1.408-8.513-.554-18.215-.833-27.666-.967s-18.477-.058-25.689.235c-9.025.359-13.65,1.01-13.67,1.776s4.654,1.622,13.837,2.36c8.918.7,20.6,1.213,32.342,1.455h0c11.738.241,23.393.195,32.284-.122,16.813-.6,17.526-1.993,1.946-3.329" transform="translate(-534.208 -148.608)" fill="#6d4eb3" opacity="0.902"/><path d="M629.783,158.319c-3.464-.456-7.969-.911-13.165-1.223-8.43-.5-17.982-.772-27.254-.9s-18.131-.068-25.225.2c-8.9.324-13.437.92-13.457,1.624s4.57,1.5,13.632,2.2c8.844.673,20.425,1.161,32.055,1.4h0c11.622.24,23.182.227,32-.08,16.9-.532,17.42-1.929,1.418-3.22" transform="translate(-534.119 -148.568)" fill="#6949b1" opacity="0.927"/><path d="M628.821,158.226c-3.556-.388-7.973-.768-12.947-1.038-8.345-.453-17.745-.71-26.84-.833s-17.786-.075-24.758.158c-8.775.289-13.226.831-13.246,1.474s4.486,1.382,13.426,2.042c8.769.639,20.254,1.108,31.769,1.346h0c11.506.237,22.969.241,31.708-.038,16.988-.5,17.312-1.866.889-3.11" transform="translate(-534.031 -148.528)" fill="#6545af" opacity="0.951"/><path d="M627.859,158.132c-3.65-.319-7.979-.623-12.729-.852-8.259-.4-17.51-.65-26.428-.767s-17.44-.084-24.289.12c-8.652.254-13.015.741-13.034,1.322s4.4,1.263,13.219,1.883c8.695.608,20.084,1.058,31.484,1.293h0c11.39.235,22.755.252,31.418,0,17.075-.476,17.205-1.805.36-3" transform="translate(-533.942 -148.488)" fill="#6140ad" opacity="0.976"/><path d="M626.9,158.038c-17.246-1.155-45.147-1.731-62.351-1.285-17.149.444-17.1,1.741.192,2.893,17.233,1.152,45.145,1.726,62.328,1.285,17.16-.447,17.1-1.741-.169-2.893" transform="translate(-533.853 -148.448)" fill="#5d3bab"/></g><g transform="translate(30.257 36.698)"><g transform="translate(106.508)"><path d="M391.936,85.871l-.7-1.146c1.115-.675,1.738-1.036,1.738-1.036l.668,1.164C393.64,84.855,393.026,85.207,391.936,85.871Z" transform="translate(-391.239 -83.689)" fill="url(#a)"/></g><g transform="translate(0 3.191)"><path d="M389.242,272.894c-1.255,0-2.513-.025-3.741-.069l.048-1.339c1.213.044,2.455.066,3.693.068h.328l.011,1.341Zm4.411-.094-.055-1.338c1.329-.055,2.681-.138,4.019-.243l.105,1.338C396.367,272.663,395,272.744,393.653,272.8Zm-12.223-.21c-1.357-.107-2.723-.243-4.058-.408l.164-1.331c1.315.162,2.661.3,4,.4Zm20.349-.426-.152-1.329c1.312-.149,2.656-.325,3.994-.523l.2,1.324C404.464,271.837,403.1,272.015,401.779,272.164Zm-28.443-.57c-1.349-.228-2.7-.488-4.005-.772l.284-1.31c1.29.281,2.617.536,3.946.761Zm36.5-.618-.238-1.32q1.96-.352,3.956-.777l.277,1.31Q411.817,270.619,409.836,270.977Zm-44.471-1.118c-1.3-.348-2.62-.734-3.916-1.154l.41-1.274c1.277.409,2.572.792,3.851,1.133Zm52.435-.572-.316-1.3q1.939-.467,3.906-1.007l.353,1.294Q419.755,268.814,417.8,269.286Zm-60.2-1.93c-1.261-.477-2.534-1-3.781-1.541l.538-1.229c1.225.538,2.475,1.049,3.715,1.518Zm-7.477-3.277c-1.218-.614-2.428-1.263-3.6-1.931l.665-1.164c1.15.656,2.34,1.293,3.537,1.9Zm-7.091-4.051c-1.141-.734-2.276-1.508-3.374-2.3l.783-1.087c1.079.78,2.2,1.54,3.316,2.262Zm-6.622-4.779c-1.054-.85-2.1-1.741-3.112-2.648l.9-1c.992.89,2.021,1.766,3.056,2.6Zm-6.079-5.456c-.955-.954-1.9-1.949-2.814-2.96l.994-.9c.9.994,1.829,1.972,2.768,2.907Zm-5.471-6.063c-.849-1.043-1.686-2.129-2.489-3.227l1.081-.791c.791,1.079,1.614,2.148,2.449,3.173Zm-4.81-6.577c-.737-1.12-1.461-2.286-2.153-3.463l1.156-.679c.68,1.16,1.392,2.306,2.116,3.405Zm-4.13-7.03c-.624-1.194-1.229-2.425-1.8-3.659l1.216-.562c.561,1.216,1.156,2.428,1.771,3.6Zm-3.417-7.4c-.5-1.248-.988-2.532-1.436-3.817l1.265-.441c.441,1.264.916,2.528,1.413,3.756Zm-2.686-7.7c-.384-1.3-.741-2.627-1.059-3.938l1.3-.318c.314,1.292.665,2.594,1.043,3.875Zm-1.928-7.922c-.257-1.33-.484-2.682-.675-4.022l1.327-.188c.187,1.317.41,2.647.663,3.956Zm-1.154-8.07c-.125-1.356-.218-2.724-.276-4.068l1.339-.056c.056,1.32.147,2.666.272,4Zm.993-8.134-1.339-.011c.01-1.362.058-2.735.139-4.081l1.337.079C307.782,188.209,307.737,189.558,307.725,190.9Zm.484-8.011-1.332-.151c.153-1.352.346-2.713.572-4.047l1.322.223C308.55,180.222,308.36,181.56,308.21,182.887Zm1.343-7.909-1.305-.3c.3-1.331.648-2.662,1.024-3.959l1.287.374C310.189,172.367,309.85,173.672,309.553,174.978Zm71.114-5.744a13.118,13.118,0,0,1-4.008-1.417l.63-1.182a11.84,11.84,0,0,0,3.6,1.278Zm4.315-.3-.421-1.273a8.065,8.065,0,0,0,3.13-1.981l.945.951A9.417,9.417,0,0,1,384.982,168.93Zm-73.191-1.652-1.262-.451c.458-1.282.96-2.564,1.494-3.81l1.231.528C312.731,164.767,312.24,166.022,311.791,167.278Zm61.41-1.8a33.536,33.536,0,0,1-2.966-2.764l.911-.985.072.073a31.917,31.917,0,0,0,2.83,2.64Zm17.91-2.295-1.191-.616a18.429,18.429,0,0,0,1.4-3.645l1.293.353A20.01,20.01,0,0,1,391.111,163.181Zm-76.161-3.265-1.2-.608c.618-1.219,1.28-2.426,1.971-3.589l1.152.683C316.2,157.542,315.554,158.723,314.95,159.916Zm52.554-.4a30.655,30.655,0,0,1-2.274-3.456l1.167-.658a29.421,29.421,0,0,0,2.176,3.3Zm25.857-4.329-1.334-.137a27.286,27.286,0,0,0,.141-2.807c0-.379-.006-.763-.021-1.146l1.338-.053c.018.4.025.8.025,1.2A29.252,29.252,0,0,1,393.362,155.186Zm-74.327-2.156-1.1-.758c.773-1.125,1.594-2.233,2.439-3.294l1.048.835C320.592,150.849,319.79,151.931,319.035,153.029Zm44.439-.732a25.11,25.11,0,0,1-1.132-4l1.315-.255a23.894,23.894,0,0,0,1.071,3.786Zm28.243-5.138a28.2,28.2,0,0,0-.96-3.836l1.274-.415a29.793,29.793,0,0,1,1.007,4.017Zm-67.7-.39-.987-.9c.917-1,1.885-1.983,2.877-2.92l.92.974C325.862,144.834,324.915,145.793,324.019,146.769Zm37.871-2.6c-.005-.227-.009-.456-.009-.682a27.443,27.443,0,0,1,.223-3.459l1.329.169a26.156,26.156,0,0,0-.212,3.29c0,.216,0,.431.009.648Zm-32.054-2.891-.849-1.038c1.052-.86,2.149-1.695,3.26-2.479l.773,1.095C331.934,139.621,330.864,140.436,329.836,141.277Zm59.424-1.6a24.308,24.308,0,0,0-2.041-3.365l1.086-.787a25.408,25.408,0,0,1,2.151,3.552Zm-52.89-3.014-.7-1.145c1.154-.7,2.355-1.374,3.57-2l.616,1.19C338.671,135.316,337.5,135.975,336.369,136.659Zm27.833-.341-1.294-.345a36.987,36.987,0,0,1,1.289-3.914l1.249.488A35.651,35.651,0,0,0,364.2,136.317Zm20.445-2.979a21.668,21.668,0,0,0-3.054-2.459l.742-1.115a22.727,22.727,0,0,1,3.243,2.611Zm-41.169-.383-.555-1.219c1.262-.576,2.523-1.118,3.748-1.613l.5,1.243C345.965,131.854,344.722,132.387,343.477,132.956Zm7.456-3-.437-1.265c1.312-.454,2.626-.865,3.9-1.224l.361,1.292C353.508,129.11,352.221,129.513,350.933,129.957Zm27.21-.948a24.34,24.34,0,0,0-3.725-1.263l.328-1.3a25.8,25.8,0,0,1,3.931,1.332Zm-11.068-.1-1.2-.6q.352-.7.737-1.407h-.051l-.019-1.341.615-.005h.213q.241-.418.5-.838l1.147.694c-.038.063-.075.126-.114.188.6.03,1.186.074,1.764.134l-.138,1.333c-.777-.082-1.577-.133-2.386-.157Q367.573,127.919,367.075,128.908Zm-8.424-1.095-.269-1.313c1.385-.282,2.749-.5,4.053-.658l.157,1.332C361.325,127.324,360,127.538,358.651,127.813Zm12.553-5.761-1.1-.767c.762-1.091,1.58-2.2,2.435-3.287l1.056.826C372.759,119.894,371.953,120.983,371.2,122.052Zm4.948-6.336-1.017-.875c.865-1,1.782-2.023,2.729-3.036l.979.915C377.91,113.719,377,114.728,376.153,115.716Zm5.5-5.892-.944-.95q1.446-1.44,2.932-2.827l.915.978Q383.086,108.4,381.652,109.824Zm5.893-5.512-.887-1q1.542-1.363,3.089-2.656l.86,1.028Q389.078,102.96,387.545,104.312Zm6.191-5.192-.836-1.047q1.625-1.3,3.211-2.505l.812,1.067Q395.352,97.833,393.736,99.121Zm6.429-4.9-.791-1.082c1.142-.833,2.249-1.624,3.311-2.369l.769,1.1C402.4,92.6,401.3,93.388,400.165,94.217Zm6.625-4.638-.747-1.115c1.243-.832,2.386-1.579,3.407-2.233l.723,1.126C409.16,88.007,408.024,88.75,406.79,89.579Z" transform="translate(-306.386 -86.231)" fill="url(#b)"/></g><g transform="translate(119.123 182.163)"><path d="M401.679,230.69l-.39-1.283c.635-.193,1.274-.389,1.913-.592l.4,1.278C402.961,230.3,402.317,230.5,401.679,230.69Z" transform="translate(-401.289 -228.815)" fill="url(#c)"/></g></g><g transform="translate(368.516 15.628)"><path d="M597.937,145.721c9.1,2.5,18.629,4.265,27.454.173,7.025-3.255,13.068-7.184,17.978-13.166,6.813-8.3,6.914-15,16.795-20.629,8.517-4.853,13.9-18.153,22.51-27.563-13.539,6.993-20.815,7.876-34.639,10.665-14.55,2.935-18.684,16.382-28.522,25.754-7.216,6.877-16.924,10.054-26.548,11.873-3.6.683-10.988.114-13.171,3.95-3.073,5.4,10.542,9.207,14.805,9.107,2.31-.054,4.539-.822,6.434,1.226Z" transform="translate(-574.985 -62.403)" fill="url(#d)"/><g transform="translate(13.044 32.709)" opacity="0.2" style="mix-blend-mode:multiply;isolation:isolate"><path d="M596.227,127.767l-3.1-1.395c.68.185,1.366.37,2.052.55A4.328,4.328,0,0,1,596.227,127.767Z" transform="translate(-584.512 -84.436)" fill="#c397f2"/><path d="M586.264,134.262c2.015-.221,3.985-.3,5.386-.562,9.624-1.824,19.329-5,26.545-11.874,9.838-9.375,13.633-18.5,28.179-21.438,5.759-1.16,9.635.311,20.506-7.426-1,.276-6.484,10.261-10.973,12.821-9.882,5.628-8.78,7.829-15.595,16.123-4.912,5.981-10.952,9.91-17.978,13.165-8.165,3.787-16.93,2.564-25.4.378-1.651-.954-3.495-.429-5.391-.385A21.528,21.528,0,0,1,586.264,134.262Z" transform="translate(-586.264 -92.962)" fill="#c397f2"/></g><g transform="translate(11.407 0.067)"><path d="M651.391,100.294c-3.507,17.149-23.7,24.528-40.933,29.539S582.1,125,585.605,107.849s20.319-35.113,37.554-40.124S654.9,83.144,651.391,100.294Z" transform="translate(-584.959 -66.956)" fill="url(#e)"/><g transform="translate(22.653 9.775)"><path d="M603.007,128.4l.271-.569c.169-.372.42-.919.74-1.615.644-1.386,1.484-3.4,2.45-5.827.492-1.209.983-2.536,1.5-3.934.542-1.391,1-2.9,1.559-4.427.484-1.555,1.012-3.151,1.484-4.79s.973-3.3,1.343-4.992q.318-1.261.634-2.517c.174-.845.345-1.686.517-2.522s.339-1.664.506-2.483q.2-1.237.394-2.44t.374-2.365c.089-.776.176-1.536.261-2.277s.171-1.46.252-2.158.1-1.374.146-2.026c.09-1.3.175-2.5.247-3.553.01-1.062.019-1.988.026-2.751.019-1.529.058-2.409.058-2.409s.122.864.295,2.39c.082.764.183,1.695.3,2.759.061,1.068.1,2.277.12,3.6.005.66.049,1.352.025,2.062-.039.71-.077,1.446-.116,2.2s-.083,1.535-.125,2.33-.185,1.6-.277,2.419-.2,1.654-.31,2.5-.292,1.687-.451,2.541-.331,1.711-.5,2.573q-.307,1.282-.615,2.569c-.4,1.718-.939,3.4-1.427,5.062s-1.121,3.252-1.657,4.814c-.613,1.533-1.179,3.024-1.81,4.4-.6,1.387-1.21,2.679-1.811,3.852-.566,1.19-1.175,2.238-1.686,3.177-.536.928-1,1.736-1.4,2.39s-.735,1.157-.966,1.5Z" transform="translate(-603.007 -74.744)" fill="#a97ee0"/></g><g transform="translate(34.395 19.218)"><path d="M612.361,90s.9-.422,2.2-1.1c.656-.336,1.421-.731,2.239-1.152l2.531-1.4c.855-.491,1.745-.931,2.518-1.437.788-.486,1.523-.94,2.153-1.329l2.105-1.3s-.776.614-1.941,1.533l-2,1.577c-.719.595-1.55,1.135-2.35,1.725s-1.615,1.159-2.375,1.7l-2.12,1.422c-1.244.845-2.08,1.359-2.08,1.359Z" transform="translate(-612.361 -82.267)" fill="#a97ee0"/></g><g transform="translate(29.866 35.684)"><path d="M608.753,105.368s1.218-.549,3-1.422l3.051-1.489c1.126-.528,2.282-1.177,3.461-1.785l3.452-1.816c1.072-.625,2.056-1.238,2.911-1.75l2.846-1.721-2.686,1.956c-.81.585-1.747,1.285-2.77,2.006l-3.3,2.111c-1.128.71-2.236,1.462-3.317,2.087-1.075.643-2.079,1.244-2.936,1.759-1.72,1.032-2.878,1.677-2.878,1.677Z" transform="translate(-608.753 -95.385)" fill="#a97ee0"/></g><g transform="translate(30.624 14.562)"><path d="M614.161,82.688s-1.324-.9-2.564-1.888a14.649,14.649,0,0,1-1.634-1.457,2.779,2.779,0,0,1-.454-.561l-.151-.223.185.2a2.678,2.678,0,0,0,.517.481,14.68,14.68,0,0,0,1.795,1.186c1.357.795,2.764,1.479,2.764,1.479Z" transform="translate(-609.357 -78.558)" fill="#a97ee0"/></g><g transform="translate(22.127 31.142)"><path d="M612.637,99.828l-1.6-1.219c-.955-.742-2.24-1.712-3.5-2.715-1.253-1.022-2.54-1.968-3.442-2.8l-1.5-1.332,1.678,1.106c.98.675,2.409,1.445,3.777,2.269,1.383.811,2.79,1.588,3.832,2.184l1.755.979Z" transform="translate(-602.588 -91.767)" fill="#a97ee0"/></g></g><path d="M584.854,108.4c-4.615-5.429-8.375-10.436-8.912-17.787-.457-6.252,1.513-13.025-.063-19.168,3.8,6.115,13.957,12.645,14.961,21.027.454,3.8-1.8,7.078-3.422,9.9-.988,1.715-2.965,4.161-1.972,6.535Z" transform="translate(-575.872 -65.743)" fill="url(#f)"/><path d="M579.844,93.032c-.02.781-.01,1.556.031,2.322.128,2.347.344,6.348,2.5,7.428a3.766,3.766,0,0,0,2.721.084c4.683-1.8,5.187-7.785,4.843-12.915-.265-4,2.674-5.519,1.515-9.379-.508-1.683-2.312-6.226-1.648-10.394-2.664,3.2-3.816,7.54-6.066,11.058-1.354,2.116-2.782,4.122-3.328,6.793A28.862,28.862,0,0,0,579.844,93.032Z" transform="translate(-574.86 -66.067)" fill="url(#g)"/><path d="M587.651,106.619c5.293-3.425,9.71-6.8,11.594-13.888,1.6-6.025,2.253-20.393,4.868-25.828-4.668,4.46-16.478,13.408-18.99,21.313-1.137,3.582.329,7.814,1.3,11.311.591,2.124,1.956,5.41.592,7.345Z" transform="translate(-573.616 -66.903)" fill="url(#h)"/><path d="M588.9,108.367c-.551-7.168-.649-13.387,3.281-18.6,3.336-4.432,8.968-7.294,11.329-12.536-.525,6.975,3.9,19.221-.26,25.476-1.882,2.829-5.674,3.194-8.677,3.754-1.824.339-4.894.379-5.494,2.7Z" transform="translate(-572.617 -64.268)" fill="url(#i)"/><path d="M593.034,97.645c-.363.394-.708.8-1.034,1.221-1.848,2.382-4.756,6.988-.714,9.665,1.552,1.034,4.3.8,5.874.625,2.6-.292,4.325-1.894,5.737-4.219,2.075-3.4,3.8-5.087,7.494-6.159,1.231-.356,2.42-1.3,3.708-1.4-4.142-.031-7.976-3.074-12.1-3.644C598.465,93.24,595.381,95.1,593.034,97.645Z" transform="translate(-572.458 -60.076)" fill="url(#j)"/></g><path d="M393.521,118.664l24.1,9.6-2.855,10.228,10.572-3.415,6.807,24.119,24.8-64.587Z" transform="translate(-253.892 -44.205)" fill="#2c2ca0" opacity="0.05" style="mix-blend-mode:multiply;isolation:isolate"/><g transform="translate(302.254 43.956)"><rect width="137.718" height="88.373" fill="url(#k)"/><path d="M646.8,177.845l-68.858-44.188L646.8,89.472Z" transform="translate(-509.082 -89.472)" fill="url(#l)"/><path d="M523.082,177.845V89.472l68.86,44.186Z" transform="translate(-523.082 -89.472)" fill="url(#m)"/><path d="M590.58,141.137,528.419,92.9l124.344-.013Z" transform="translate(-521.72 -88.601)" fill="#766dd4" opacity="0.2" style="mix-blend-mode:multiply;isolation:isolate"/><path d="M591.942,133.658l-68.86-44.186H660.8Z" transform="translate(-523.082 -89.472)" fill="url(#n)"/></g><g transform="translate(0 88.138)"><g transform="translate(25.809 132.445)" opacity="0.8" style="mix-blend-mode:multiply;isolation:isolate"><path d="M388.915,273.091h0c-21.436-.446-41.835-2.734-57.429-6.445-18.312-4.357-28.748-10.472-28.643-16.786.109-6.277,10.655-11.938,28.944-15.519,15.667-3.07,36.111-4.52,57.572-4.074,21.44.444,41.842,2.734,57.451,6.449,18.3,4.351,28.737,10.471,28.629,16.778-.1,6.277-10.652,11.937-28.934,15.519C430.832,272.084,410.379,273.534,388.915,273.091Z" transform="translate(-302.842 -230.187)" fill="#fff" opacity="0"/><path d="M473.339,253.3c.061-6.163-10.168-12.144-28.075-16.4-15.315-3.634-35.316-5.871-56.326-6.3-21.03-.432-41.063.989-56.419,4-17.936,3.511-28.27,9.06-28.376,15.211-.1,6.186,10.123,12.181,28.081,16.453,15.307,3.641,35.329,5.887,56.365,6.325h0c21.061.434,41.137-.988,56.521-4,18.023-3.533,28.312-9.119,28.23-15.287" transform="translate(-302.511 -230.101)" fill="#fbfafd" opacity="0.024"/><path d="M471.237,253.1c.018-6.02-10.007-11.859-27.52-16.01-15.02-3.553-34.621-5.739-55.2-6.159-20.6-.419-40.22.974-55.267,3.924-17.58,3.442-27.706,8.878-27.81,14.9-.1,6.058,9.917,11.931,27.523,16.119,15.018,3.574,34.665,5.774,55.3,6.2h0c20.661.426,40.358-.968,55.454-3.926,17.761-3.482,27.794-8.995,27.522-15.054" transform="translate(-302.18 -230.016)" fill="#f7f5fb" opacity="0.049"/><path d="M469.139,252.9c-.029-5.874-9.848-11.574-26.967-15.624-14.729-3.474-33.927-5.608-54.074-6.015-20.169-.407-39.379.96-54.116,3.847-17.228,3.373-27.141,8.7-27.244,14.593-.1,5.931,9.713,11.681,26.964,15.787,14.731,3.5,34,5.662,54.235,6.084h0c20.256.417,39.578-.949,54.383-3.85,17.5-3.432,27.278-8.873,26.819-14.823" transform="translate(-301.848 -229.93)" fill="#f3f1f9" opacity="0.073"/><path d="M467.039,252.708c-.075-5.731-9.689-11.289-26.415-15.238-14.432-3.394-33.232-5.476-52.948-5.871-19.736-.4-38.537.944-52.962,3.771-16.874,3.3-26.576,8.515-26.677,14.285-.1,5.8,9.5,11.43,26.4,15.45,14.444,3.438,33.338,5.553,53.17,5.965h0c19.855.409,38.8-.929,53.315-3.773,17.241-3.38,26.761-8.747,26.113-14.589" transform="translate(-301.517 -229.844)" fill="#efecf7" opacity="0.098"/><path d="M464.939,252.513c-.121-5.589-9.528-11-25.861-14.855-14.139-3.312-32.535-5.343-51.822-5.726-19.3-.382-37.7.929-51.81,3.7-16.52,3.236-26.012,8.333-26.111,13.975-.1,5.677,9.3,11.183,25.843,15.12,14.157,3.368,32.675,5.439,52.1,5.843h0c19.454.4,38.023-.909,52.248-3.7,16.98-3.329,26.244-8.625,25.408-14.356" transform="translate(-301.185 -229.759)" fill="#ebe7f5" opacity="0.122"/><path d="M462.839,252.316c-.166-5.445-9.368-10.721-25.306-14.471-13.846-3.232-31.841-5.21-50.7-5.581-18.872-.369-36.854.914-50.658,3.62-16.166,3.166-25.448,8.15-25.545,13.665-.093,5.548,9.093,10.934,25.285,14.788,13.869,3.3,32.011,5.327,51.039,5.722h0c19.053.393,37.242-.89,51.18-3.62,16.719-3.279,25.727-8.5,24.7-14.124" transform="translate(-300.854 -229.673)" fill="#e7e2f3" opacity="0.146"/><path d="M460.738,252.12c-.211-5.3-9.208-10.436-24.751-14.086-13.552-3.152-31.145-5.08-49.573-5.436s-36.012.9-49.5,3.543c-15.813,3.1-24.883,7.968-24.979,13.358-.09,5.42,8.888,10.686,24.726,14.452,13.58,3.231,31.346,5.217,49.975,5.6h0c18.65.385,36.462-.869,50.109-3.545,16.459-3.227,25.21-8.377,24-13.889" transform="translate(-300.523 -229.587)" fill="#e3def1" opacity="0.171"/><path d="M458.638,251.923c-.256-5.158-9.049-10.151-24.2-13.7-13.26-3.07-30.451-4.948-48.447-5.292s-35.171.884-48.353,3.468c-15.458,3.028-24.318,7.787-24.411,13.049-.088,5.293,8.681,10.436,24.166,14.119,13.293,3.163,30.685,5.1,48.91,5.483h0c18.247.375,35.683-.85,49.041-3.468,16.2-3.177,24.691-8.254,23.292-13.658" transform="translate(-300.192 -229.501)" fill="#dfd9ef" opacity="0.195"/><path d="M456.539,251.727c-.3-5.013-8.889-9.865-23.646-13.315-12.965-2.991-29.756-4.815-47.32-5.148-17.579-.333-34.33.869-47.2,3.392-15.1,2.96-23.753,7.605-23.844,12.74-.088,5.166,8.475,10.187,23.607,13.786,13.005,3.094,30.019,4.992,47.845,5.362h0c17.846.368,34.9-.832,47.973-3.392,15.939-3.127,24.175-8.13,22.587-13.426" transform="translate(-299.86 -229.416)" fill="#dbd4ed" opacity="0.22"/><path d="M454.439,251.532c-.349-4.871-8.729-9.582-23.092-12.932-12.67-2.91-29.059-4.683-46.194-5s-33.488.855-46.048,3.316c-14.75,2.888-23.19,7.423-23.278,12.432-.085,5.037,8.268,9.938,23.047,13.453,12.718,3.024,29.356,4.879,46.78,5.24h0c17.442.36,34.124-.812,46.9-3.315,15.679-3.075,23.658-8.007,21.882-13.192" transform="translate(-299.529 -229.33)" fill="#d7cfeb" opacity="0.244"/><path d="M452.34,251.335c-.394-4.727-8.57-9.3-22.537-12.546-12.379-2.83-28.366-4.551-45.071-4.859s-32.647.84-44.895,3.241c-14.4,2.819-22.625,7.24-22.713,12.122-.082,4.912,8.062,9.689,22.488,13.119,12.429,2.957,28.691,4.769,45.716,5.122h0c17.041.35,33.345-.793,45.835-3.241,15.419-3.024,23.14-7.883,21.177-12.959" transform="translate(-299.198 -229.244)" fill="#d4cae8" opacity="0.268"/><path d="M450.24,251.138c-.439-4.584-8.4-9.041-21.985-12.162-12.078-2.775-27.67-4.42-43.943-4.713s-31.8.823-43.744,3.164c-14.042,2.751-22.06,7.058-22.144,11.813-.082,4.784,7.856,9.44,21.928,12.787,12.14,2.888,28.029,4.657,44.65,5h0c16.639.343,32.565-.773,44.766-3.163,15.158-2.974,22.622-7.761,20.472-12.727" transform="translate(-298.866 -229.159)" fill="#d0c6e6" opacity="0.293"/><path d="M448.138,250.941c-.483-4.438-8.242-8.758-21.429-11.775-11.786-2.7-26.976-4.286-42.818-4.569s-30.963.808-42.592,3.089c-13.689,2.681-21.5,6.876-21.579,11.5-.079,4.656,7.649,9.189,21.369,12.453,11.854,2.819,27.365,4.544,43.586,4.88h0c16.237.334,31.787-.753,43.7-3.087,14.9-2.923,22.107-7.637,19.766-12.5" transform="translate(-298.535 -229.073)" fill="#ccc1e4" opacity="0.317"/><path d="M446.04,250.746c-.53-4.3-8.082-8.476-20.878-11.392-11.488-2.618-26.279-4.155-41.692-4.423s-30.121.795-41.438,3.012c-13.335,2.612-20.932,6.7-21.012,11.2-.078,4.53,7.443,8.941,20.81,12.119,11.565,2.751,26.7,4.433,42.519,4.762h0c15.836.325,31.007-.736,42.629-3.011,14.638-2.873,21.59-7.514,19.061-12.262" transform="translate(-298.203 -228.987)" fill="#c8bce2" opacity="0.341"/><path d="M443.94,250.55c-.575-4.152-7.922-8.194-20.324-11.008-11.194-2.539-25.584-4.023-40.566-4.279s-29.279.78-40.287,2.937c-12.981,2.543-20.367,6.512-20.445,10.888-.075,4.4,7.238,8.691,20.249,11.785,11.278,2.682,26.037,4.322,41.456,4.641h0c15.433.316,30.228-.715,41.561-2.935,14.377-2.822,21.071-7.389,18.356-12.029" transform="translate(-297.872 -228.901)" fill="#c4b7e0" opacity="0.366"/><path d="M441.84,250.354c-.621-4.01-7.762-7.912-19.769-10.623-10.9-2.461-24.889-3.891-39.441-4.136s-28.438.764-39.135,2.862c-12.627,2.474-19.8,6.331-19.879,10.578-.073,4.274,7.03,8.443,19.69,11.454,10.991,2.613,25.374,4.207,40.39,4.519h0c15.032.31,29.448-.694,40.492-2.859,14.116-2.77,20.554-7.264,17.652-11.794" transform="translate(-297.541 -228.816)" fill="#c0b3de" opacity="0.39"/><path d="M439.74,250.158c-.668-3.866-7.6-7.628-19.216-10.237-10.608-2.384-24.194-3.761-38.315-3.992s-27.6.749-37.981,2.787c-12.275,2.4-19.239,6.148-19.314,10.269-.07,4.146,6.826,8.194,19.132,11.12,10.7,2.544,24.709,4.1,39.324,4.4h0c14.631.3,28.67-.677,39.423-2.782,13.857-2.72,20.037-7.143,16.947-11.563" transform="translate(-297.21 -228.73)" fill="#bcaedc" opacity="0.415"/><path d="M437.639,249.962c-.71-3.722-7.44-7.347-18.661-9.853-10.314-2.3-23.5-3.626-37.189-3.846s-26.755.734-36.829,2.71c-11.922,2.335-18.675,5.966-18.746,9.961-.069,4.018,6.619,7.944,18.572,10.785,10.414,2.478,24.046,3.985,38.26,4.28h0c14.228.291,27.891-.658,38.354-2.707,13.6-2.669,19.521-7.018,16.24-11.329" transform="translate(-296.878 -228.644)" fill="#b8a9da" opacity="0.439"/><path d="M435.54,249.765c-.757-3.579-7.281-7.063-18.11-9.469-10.018-2.225-22.8-3.494-36.062-3.7s-25.914.718-35.678,2.633c-11.567,2.267-18.109,5.785-18.179,9.651-.068,3.891,6.413,7.7,18.012,10.453,10.127,2.408,23.382,3.872,37.2,4.16h0c13.826.282,27.111-.639,37.285-2.631,13.337-2.618,19-6.895,15.537-11.1" transform="translate(-296.547 -228.559)" fill="#b4a4d8" opacity="0.463"/><path d="M433.439,249.568c-.8-3.433-7.12-6.781-17.553-9.084-9.725-2.148-22.112-3.363-34.939-3.556s-25.073.7-34.526,2.558c-11.213,2.2-17.545,5.6-17.612,9.342-.067,3.763,6.206,7.446,17.452,10.121,9.838,2.338,22.718,3.761,36.13,4.038h0c13.423.275,26.332-.619,36.218-2.556,13.074-2.566,18.484-6.771,14.829-10.864" transform="translate(-296.215 -228.473)" fill="#b09fd6" opacity="0.488"/><path d="M431.34,249.373c-.849-3.291-6.96-6.5-17-8.7-9.432-2.07-21.415-3.232-33.813-3.412s-24.229.689-33.372,2.482c-10.859,2.129-16.98,5.421-17.046,9.035-.063,3.635,6,7.2,16.893,9.787,9.552,2.271,22.055,3.649,35.065,3.918h0c13.021.267,25.552-.6,35.148-2.479,12.816-2.515,17.968-6.646,14.126-10.63" transform="translate(-295.884 -228.387)" fill="#ac9bd4" opacity="0.512"/><path d="M429.24,249.176c-.894-3.147-6.8-6.213-16.448-8.314a171.577,171.577,0,0,0-32.686-3.267A162.962,162.962,0,0,0,347.886,240c-10.5,2.059-16.416,5.239-16.48,8.725-.062,3.508,5.793,6.948,16.334,9.453,9.263,2.2,21.391,3.538,34,3.8h0c12.62.259,24.773-.579,34.08-2.4,12.555-2.465,17.451-6.525,13.421-10.4" transform="translate(-295.553 -228.302)" fill="#a896d2" opacity="0.537"/><path d="M427.139,248.98c-.939-3-6.64-5.93-15.893-7.929a166.587,166.587,0,0,0-31.56-3.123,157.6,157.6,0,0,0-31.069,2.331c-10.151,1.99-15.851,5.057-15.912,8.416-.06,3.382,5.587,6.7,15.773,9.12,8.977,2.133,20.727,3.424,32.937,3.678h0c12.217.25,23.993-.561,33.011-2.327,12.293-2.415,16.934-6.4,12.714-10.166" transform="translate(-295.221 -228.216)" fill="#a491d0" opacity="0.561"/><path d="M425.04,248.785c-.985-2.862-6.481-5.646-15.34-7.545a161.308,161.308,0,0,0-30.435-2.979,152.014,152.014,0,0,0-29.917,2.256c-9.8,1.919-15.286,4.875-15.346,8.107-.058,3.252,5.381,6.448,15.214,8.786,8.689,2.065,20.062,3.313,31.871,3.557h0c11.815.241,23.214-.542,31.942-2.251,12.034-2.364,16.417-6.276,12.01-9.932" transform="translate(-294.89 -228.131)" fill="#a08cce" opacity="0.585"/><path d="M422.941,248.588c-1.031-2.716-6.321-5.362-14.786-7.16a156.21,156.21,0,0,0-29.31-2.834,146.83,146.83,0,0,0-28.763,2.179c-9.443,1.853-14.722,4.693-14.78,7.8-.055,3.127,5.175,6.2,14.656,8.454a153.5,153.5,0,0,0,30.805,3.438h0c11.412.232,22.436-.522,30.873-2.175,11.775-2.312,15.9-6.153,11.306-9.7" transform="translate(-294.559 -228.045)" fill="#9c87cc" opacity="0.61"/><path d="M420.841,248.392c-1.077-2.573-6.162-5.079-14.233-6.776a151.248,151.248,0,0,0-28.184-2.689,141.261,141.261,0,0,0-27.611,2.1c-9.09,1.781-14.157,4.511-14.213,7.489-.054,3,4.968,5.952,14.095,8.121a148.253,148.253,0,0,0,29.74,3.316h0a147.259,147.259,0,0,0,29.806-2.1c11.514-2.263,15.383-6.03,10.6-9.468" transform="translate(-294.227 -227.96)" fill="#9883ca" opacity="0.634"/><path d="M418.741,248.2c-1.122-2.43-6-4.795-13.679-6.391A146.267,146.267,0,0,0,378,239.261a135.9,135.9,0,0,0-26.46,2.027c-8.736,1.712-13.594,4.329-13.647,7.181-.053,2.872,4.762,5.7,13.536,7.787a142.891,142.891,0,0,0,28.675,3.2h0a141.955,141.955,0,0,0,28.737-2.022c11.253-2.21,14.865-5.906,9.895-9.235" transform="translate(-293.896 -227.874)" fill="#947ec8" opacity="0.659"/><path d="M416.641,248c-1.167-2.284-5.842-4.51-13.126-6.006a141.191,141.191,0,0,0-25.932-2.4,130.739,130.739,0,0,0-25.306,1.951c-8.382,1.646-13.029,4.148-13.08,6.874-.049,2.744,4.556,5.454,12.976,7.453a137.552,137.552,0,0,0,27.611,3.075h0A136.73,136.73,0,0,0,407.45,257c10.993-2.16,14.35-5.783,9.191-9" transform="translate(-293.565 -227.789)" fill="#9079c6" opacity="0.683"/><path d="M414.541,247.8c-1.212-2.143-5.681-4.224-12.572-5.621a136.006,136.006,0,0,0-24.807-2.256,125.183,125.183,0,0,0-24.154,1.875c-8.03,1.577-12.464,3.966-12.514,6.563-.046,2.617,4.351,5.2,12.418,7.121a132.375,132.375,0,0,0,26.545,2.955h0a131.531,131.531,0,0,0,26.6-1.868c10.731-2.11,13.831-5.66,8.484-8.77" transform="translate(-293.234 -227.703)" fill="#8c74c4" opacity="0.707"/><path d="M412.441,247.608c-1.259-2-5.522-3.939-12.019-5.237a131.282,131.282,0,0,0-23.681-2.11,119.727,119.727,0,0,0-23,1.8c-7.676,1.508-11.9,3.784-11.947,6.256-.045,2.489,4.143,4.954,11.857,6.786a126.938,126.938,0,0,0,25.481,2.836h0a126.4,126.4,0,0,0,25.531-1.792c10.473-2.06,13.314-5.535,7.78-8.537" transform="translate(-292.902 -227.617)" fill="#8870c2" opacity="0.732"/><path d="M410.341,247.412c-1.3-1.855-5.364-3.655-11.465-4.853a126.36,126.36,0,0,0-22.556-1.966,114.367,114.367,0,0,0-21.848,1.725c-7.322,1.436-11.336,3.6-11.381,5.945-.043,2.362,3.938,4.707,11.3,6.456a121.927,121.927,0,0,0,24.415,2.714h0a121.178,121.178,0,0,0,24.461-1.716c10.212-2.008,12.8-5.414,7.074-8.3" transform="translate(-292.571 -227.532)" fill="#856bbf" opacity="0.756"/><path d="M408.241,247.215c-1.349-1.711-5.2-3.366-10.911-4.466a121.3,121.3,0,0,0-21.43-1.821,109.054,109.054,0,0,0-20.7,1.648c-6.968,1.368-10.771,3.42-10.814,5.636-.043,2.236,3.73,4.457,10.737,6.12a116.5,116.5,0,0,0,23.352,2.6h0a115.788,115.788,0,0,0,23.393-1.641c9.951-1.958,12.28-5.288,6.369-8.072" transform="translate(-292.239 -227.447)" fill="#8166bd" opacity="0.78"/><path d="M406.141,247.02c-1.4-1.568-5.043-3.083-10.357-4.083a116.53,116.53,0,0,0-20.3-1.676,103.532,103.532,0,0,0-19.545,1.573c-6.615,1.3-10.207,3.237-10.247,5.327-.04,2.106,3.525,4.207,10.178,5.786a111.343,111.343,0,0,0,22.286,2.475h0a110.731,110.731,0,0,0,22.324-1.564c9.693-1.908,11.764-5.165,5.665-7.839" transform="translate(-291.908 -227.361)" fill="#7d61bb" opacity="0.805"/><path d="M404.04,246.825c-1.44-1.425-4.884-2.8-9.8-3.7a111.611,111.611,0,0,0-19.178-1.533,98.1,98.1,0,0,0-18.392,1.5c-6.26,1.229-9.642,3.055-9.681,5.018-.038,1.979,3.319,3.96,9.62,5.454a105.98,105.98,0,0,0,21.22,2.354h0a105.334,105.334,0,0,0,21.256-1.489c9.43-1.855,11.245-5.04,4.958-7.6" transform="translate(-291.577 -227.276)" fill="#795cb9" opacity="0.829"/><path d="M401.942,246.629c-1.486-1.282-4.726-2.508-9.25-3.314a107.287,107.287,0,0,0-18.054-1.387,92.8,92.8,0,0,0-17.239,1.421c-5.907,1.16-9.079,2.874-9.115,4.711-.035,1.851,3.113,3.709,9.06,5.12a100.74,100.74,0,0,0,20.156,2.233h0A100.221,100.221,0,0,0,397.688,254c9.171-1.8,10.728-4.917,4.254-7.372" transform="translate(-291.246 -227.191)" fill="#7558b7" opacity="0.854"/><path d="M399.841,246.433c-1.533-1.137-4.568-2.219-8.7-2.928a102.549,102.549,0,0,0-16.928-1.243,87.539,87.539,0,0,0-16.087,1.344c-5.553,1.091-8.514,2.692-8.548,4.4-.034,1.725,2.906,3.461,8.5,4.786a95.265,95.265,0,0,0,19.09,2.114h0a95,95,0,0,0,19.119-1.336c8.911-1.755,10.211-4.795,3.548-7.14" transform="translate(-290.914 -227.105)" fill="#7153b5" opacity="0.878"/><path d="M397.742,246.238a23.636,23.636,0,0,0-8.143-2.543,98.153,98.153,0,0,0-15.8-1.1,82.185,82.185,0,0,0-14.934,1.269c-5.2,1.022-7.949,2.51-7.982,4.093-.031,1.6,2.7,3.211,7.942,4.453a90.184,90.184,0,0,0,18.025,1.993h0a89.771,89.771,0,0,0,18.05-1.26c8.651-1.7,9.7-4.671,2.844-6.906" transform="translate(-290.583 -227.021)" fill="#6d4eb3" opacity="0.902"/><path d="M395.641,246.041a25.975,25.975,0,0,0-7.588-2.158,94.157,94.157,0,0,0-14.677-.954,76.964,76.964,0,0,0-13.782,1.192c-4.845.954-7.384,2.328-7.414,3.784s2.493,2.962,7.381,4.121a84.941,84.941,0,0,0,16.96,1.873h0a84.58,84.58,0,0,0,16.983-1.184c8.389-1.653,9.176-4.546,2.138-6.675" transform="translate(-290.251 -226.936)" fill="#6949b1" opacity="0.927"/><path d="M393.541,245.846a29.912,29.912,0,0,0-7.034-1.775,90.759,90.759,0,0,0-13.551-.807,71.793,71.793,0,0,0-12.629,1.116c-4.492.884-6.821,2.146-6.85,3.476s2.29,2.714,6.823,3.788a79.672,79.672,0,0,0,15.9,1.752h0a79.25,79.25,0,0,0,15.912-1.108c8.129-1.6,8.66-4.423,1.432-6.442" transform="translate(-289.92 -226.851)" fill="#6545af" opacity="0.951"/><path d="M391.442,245.651a36.96,36.96,0,0,0-6.482-1.39,88,88,0,0,0-12.424-.664,66.55,66.55,0,0,0-11.478,1.042c-4.138.815-6.256,1.963-6.282,3.166s2.082,2.465,6.263,3.454a74.309,74.309,0,0,0,14.83,1.632h0a74.041,74.041,0,0,0,14.844-1.03c7.869-1.551,8.143-4.3.728-6.21" transform="translate(-289.589 -226.767)" fill="#6140ad" opacity="0.976"/><path d="M389.341,245.457a77.184,77.184,0,0,0-27.552-.559c-7.605,1.5-7.628,4.176-.013,5.979a77.564,77.564,0,0,0,27.542.556c7.608-1.5,7.625-4.176.023-5.976" transform="translate(-289.257 -226.683)" fill="#5d3bab"/></g><g transform="translate(176.143 15.572)"><path d="M481.324,181.5c-.093,3.827-9.589,6.723-12.292,7.751-2.632,1-9.307,1.191-10.4,4.489-1.7,5.125,10.721,6.96,7.906,11.53-2.406,3.914-10.392,2.659-14.078,2.274-5.154-.54-10.5-.965-14.641,2.769-1.75,1.577-5.091,7.3-7.827,7.14-2.787-.166-1.278-4.221-.766-5.824,1.032-3.272,2.917-6.595,2.228-10.126s-3.326-6.4-4.707-9.659c-.743-1.756-7.687-18.282-1.77-16.073,2.276.85,9.709,10.614,10.939,2.721.78-4.993-1.04-9.888-1.717-14.785-.369-2.66-1.441-8.6,2.279-9.445,2.09-.477,2.9,1.792,3.8,3.279,1.3,2.138,5.748,10.06,6.748,3.306.688-4.642-3.821-17.239,2.784-19.449,3.24-1.081,6.571,10.712,10.053,9.924,4.226-.91,6.607-16.187,10.23-14.038s.675,17.078,1.913,21.222c.988,3.433,9.222-4.561,11.156-1.746,2.652,3.864-1.556,8.421-4.089,11.055-2.563,2.664-7.929,4.845-9.012,8.643s3.951,3.85,6.517,3.649c.984-.078,3.574-.57,4.317.305A1.619,1.619,0,0,1,481.324,181.5Z" transform="translate(-422.611 -137.076)" fill="url(#o)"/><g transform="translate(0.022 19.222)" opacity="0.3"><path d="M460.891,171.995c-1.084,3.793,3.954,3.851,6.521,3.651a19.947,19.947,0,0,1,2.891-.195,3.621,3.621,0,0,0,1.309-2.436,1.6,1.6,0,0,0-.421-1.083c-.743-.877-3.333-.385-4.315-.307-1.574.127-4.073.149-5.524-.724A5.765,5.765,0,0,0,460.891,171.995Z" transform="translate(-412.902 -147.666)" fill="#986bd1"/><path d="M462.154,155.182a13.919,13.919,0,0,0,.323,3.589c.989,3.432,9.226-4.565,11.16-1.745.034.054.063.1.1.156a4.824,4.824,0,0,0-.631-4.176C471.263,150.33,463.761,157.383,462.154,155.182Z" transform="translate(-412.541 -152.39)" fill="#986bd1"/><path d="M451.784,185.689c-1.177,3.561,4.457,5.537,7.063,7.944a3.8,3.8,0,0,0,.309-.434c2.115-3.437-4.378-5.326-7.009-8.23A2.964,2.964,0,0,0,451.784,185.689Z" transform="translate(-415.228 -144.076)" fill="#986bd1"/><path d="M428.608,202.168c1.034-3.267,2.92-6.6,2.232-10.126a10.878,10.878,0,0,0-.437-1.553c-.255,2.63-1.54,5.163-2.331,7.658-.456,1.435-1.71,4.836.034,5.65C428.277,203.165,428.477,202.586,428.608,202.168Z" transform="translate(-421.46 -142.667)" fill="#986bd1"/><path d="M425.529,172.262c2.281.852,9.711,10.618,10.942,2.726a22.952,22.952,0,0,0-.385-7.816,17.574,17.574,0,0,1-.151,3.794c-1.231,7.891-8.663-1.874-10.939-2.723-2.759-1.033-2.719,2.008-1.82,5.725C423.257,172.458,423.913,171.657,425.529,172.262Z" transform="translate(-422.628 -148.618)" fill="#986bd1"/></g><g transform="translate(7.383 24.839)"><path d="M428.493,212.4l.486-.546,1.339-1.568c.562-.688,1.263-1.5,2.016-2.484.771-.963,1.6-2.082,2.524-3.285.9-1.216,1.869-2.546,2.878-3.958.99-1.426,2.041-2.922,3.078-4.507.518-.792,1.067-1.58,1.582-2.409s1.038-1.659,1.566-2.5c1.091-1.659,2.052-3.439,3.093-5.166,1.023-1.738,1.971-3.521,2.945-5.253.916-1.762,1.82-3.5,2.692-5.175.827-1.7,1.625-3.353,2.382-4.915.785-1.551,1.393-3.079,2.035-4.456.6-1.395,1.238-2.638,1.688-3.788.473-1.142.887-2.138,1.226-2.956.688-1.639,1.106-2.571,1.106-2.571s-.261.983-.764,2.689c-.255.855-.565,1.89-.921,3.079-.325,1.2-.834,2.507-1.346,3.946-.537,1.43-1.038,3.016-1.754,4.614-.687,1.61-1.373,3.331-2.178,5.066-.84,1.718-1.659,3.52-2.581,5.3-.966,1.761-1.905,3.576-2.925,5.346-1.072,1.737-2.064,3.523-3.187,5.193-1.082,1.695-2.2,3.329-3.319,4.878-1.084,1.579-2.242,3.025-3.315,4.411s-2.155,2.643-3.161,3.8-1.954,2.185-2.829,3.071c-.854.9-1.641,1.648-2.271,2.276C429.285,211.763,428.493,212.4,428.493,212.4Z" transform="translate(-428.493 -156.865)" fill="#986bd1"/></g><g transform="translate(31.123 45.259)"><path d="M447.554,173.133l.5.077c.318.056.762.113,1.292.171l1.823.212,2.118.117a20.091,20.091,0,0,0,2.125.067c.679-.023,1.314-.046,1.859-.064l1.825-.064L457.3,174c-.542.105-1.172.23-1.848.36a20.311,20.311,0,0,1-2.143.276l-2.156.223-1.9.084c-.562.028-1.027.041-1.342.036h-.5Z" transform="translate(-447.406 -173.133)" fill="#986bd1"/></g><g transform="translate(19.609 64.585)"><path d="M438.512,188.53l.655.136c.41.082,1,.2,1.715.326s1.549.269,2.448.409,1.858.249,2.822.38c.482.07.964.093,1.44.142l1.4.12,2.485.085c.725-.02,1.333-.068,1.76-.085l.672-.036-.661.115c-.421.069-1.023.188-1.751.295-.734.064-1.59.137-2.507.215l-1.418.045c-.483.008-.977.044-1.466.031-.982-.016-1.968,0-2.887-.046-.921-.03-1.784-.064-2.52-.115s-1.353-.09-1.786-.124l-.674-.058Z" transform="translate(-438.233 -188.53)" fill="#986bd1"/></g><g transform="translate(34.959 27.068)"><path d="M451.172,167.017s-.31-2.086-.513-4.177c-.107-1.047-.178-2.1-.188-2.887A7.061,7.061,0,0,1,450.5,159c.016-.227.025-.358.025-.358s.006.132.015.36a6.936,6.936,0,0,0,.077.941c.1.777.282,1.8.5,2.827.432,2.046.964,4.062.964,4.062Z" transform="translate(-450.463 -158.641)" fill="#986bd1"/></g><g transform="translate(22.341 40.835)"><path d="M442.058,186.47s-.485-4.206-.923-8.421c-.195-2.111-.454-4.206-.544-5.8-.108-1.583-.182-2.638-.182-2.638s.188,1.043.469,2.6c.259,1.555.749,3.623,1.174,5.69.894,4.131,1.836,8.254,1.836,8.254Z" transform="translate(-440.41 -169.609)" fill="#986bd1"/></g><path d="M451.845,199.521c3.686.384,11.672,1.639,14.078-2.274,2.814-4.57-9.6-6.405-7.906-11.53,1.091-3.3,7.766-3.487,10.4-4.489,2.7-1.028,12.2-3.924,12.292-7.751a1.619,1.619,0,0,0-.423-1.09c-.743-.875-3.333-.383-4.317-.305-2.548.2-7.522.138-6.541-3.567-13.619,6.595-14.72,25.635-44.4,12.587.521,1.342.948,2.352,1.1,2.719,1.381,3.262,4.015,6.115,4.707,9.659s-1.2,6.853-2.228,10.126c-.512,1.6-2.021,5.658.766,5.824,2.736.157,6.078-5.563,7.827-7.14C441.347,198.556,446.691,198.981,451.845,199.521Z" transform="translate(-421.994 -129.053)" fill="#c397f2" opacity="0.2" style="mix-blend-mode:multiply;isolation:isolate"/></g><g transform="translate(109.505)"><path d="M441.834,157.129c11.855,29.314,6.709,65.245-11.5,80.256s-42.578,3.419-54.436-25.894-6.71-65.243,11.5-80.255S429.976,127.82,441.834,157.129Z" transform="translate(-369.521 -124.67)" fill="url(#p)"/><g transform="translate(22.852 22.328)"><path d="M422.422,234.88l-.195-1.1c-.141-.717-.348-1.767-.609-3.1-.279-1.333-.614-2.95-1.031-4.8s-.9-3.926-1.467-6.183c-.523-2.264-1.243-4.684-1.889-7.266q-.554-1.917-1.137-3.935c-.4-1.339-.757-2.72-1.213-4.1q-.646-2.079-1.315-4.217c-.434-1.428-.972-2.842-1.438-4.293-.493-1.441-.954-2.9-1.482-4.351s-1.083-2.891-1.627-4.339c-1.007-2.925-2.242-5.763-3.369-8.591-.287-.705-.571-1.408-.856-2.106l-.906-2.06-1.779-4.044q-.439-1-.87-1.976c-.309-.64-.618-1.277-.92-1.9q-.907-1.89-1.769-3.693c-.585-1.2-1.115-2.381-1.7-3.489l-1.683-3.212q-.808-1.548-1.544-2.962c-.491-.941-.92-1.858-1.411-2.664-.934-1.651-1.75-3.087-2.42-4.269-1.328-2.381-2.067-3.762-2.067-3.762s.941,1.241,2.554,3.447l2.882,4c1.1,1.554,2.205,3.4,3.458,5.381q.932,1.495,1.939,3.107c.672,1.074,1.253,2.246,1.914,3.417q.968,1.77,1.989,3.63c.34.62.685,1.245,1.016,1.885.311.65.626,1.308.944,1.968q.953,1.986,1.934,4.032.491,1.022.987,2.057l.892,2.121c1.171,2.851,2.456,5.712,3.5,8.666q.8,2.209,1.6,4.412c.517,1.471.969,2.959,1.452,4.422,1,2.917,1.757,5.858,2.546,8.684s1.376,5.607,1.993,8.222c.532,2.638,1.067,5.122,1.416,7.443.188,1.159.389,2.263.54,3.321s.269,2.066.39,3.011c.252,1.887.385,3.545.511,4.9C422.4,233.318,422.423,234.88,422.422,234.88Z" transform="translate(-387.727 -142.459)" fill="#c397f2"/></g><g transform="translate(38.163 32.64)"><path d="M399.925,169.08l.53-.754c.345-.481.808-1.17,1.349-2s1.185-1.8,1.87-2.843c.64-1.074,1.326-2.219,2.008-3.364.343-.574.687-1.147,1.023-1.715a19.174,19.174,0,0,0,.933-1.691c.571-1.116,1.107-2.158,1.564-3.051.92-1.794,1.534-2.989,1.534-2.989l-1.115,3.166c-.335.954-.728,2.067-1.148,3.261a19.473,19.473,0,0,1-.7,1.819c-.26.611-.525,1.233-.789,1.851-.531,1.245-1.062,2.49-1.559,3.658-.551,1.149-1.063,2.222-1.505,3.141s-.812,1.689-1.087,2.2l-.423.822Z" transform="translate(-399.925 -150.674)" fill="#c397f2"/></g><g transform="translate(50.189 59.258)"><path d="M409.506,195.911l.737-.979c.463-.621,1.125-1.507,1.9-2.594s1.683-2.351,2.638-3.724c.971-1.359,1.928-2.859,2.928-4.337.5-.738.953-1.5,1.425-2.244s.926-1.476,1.369-2.184c.831-1.452,1.608-2.805,2.272-3.966.61-1.187,1.088-2.2,1.44-2.9s.544-1.1.544-1.1-.156.419-.429,1.151-.651,1.791-1.143,3.045l-1.87,4.2c-.373.756-.757,1.536-1.148,2.328s-.776,1.609-1.2,2.4c-.85,1.58-1.658,3.192-2.494,4.654-.817,1.474-1.584,2.848-2.269,4.012-.669,1.17-1.251,2.139-1.657,2.819s-.639,1.057-.639,1.057Z" transform="translate(-409.506 -171.88)" fill="#c397f2"/></g><g transform="translate(21.06 32.036)"><path d="M396.431,154.972s-2.654-.95-5.224-2.077c-.646-.271-1.282-.574-1.874-.865-.295-.147-.586-.267-.849-.426l-.743-.417a4.9,4.9,0,0,1-.613-.374c-.172-.129-.323-.24-.447-.333-.244-.182-.382-.287-.382-.287l.419.237.477.266a4.6,4.6,0,0,0,.648.289c.242.1.5.2.778.313s.58.2.886.306c.618.21,1.275.423,1.947.606,2.672.776,5.38,1.364,5.38,1.364Z" transform="translate(-386.3 -150.193)" fill="#c397f2"/></g><g transform="translate(25.695 62.404)"><path d="M410.663,183.443l-3.257-1.347c-1.952-.825-4.563-1.89-7.151-3.015-1.3-.561-2.59-1.125-3.8-1.653-.606-.261-1.192-.516-1.747-.758l-1.546-.743-3.167-1.54s1.337.447,3.34,1.121c.5.163,1.038.343,1.609.532.581.166,1.195.343,1.83.526,1.265.365,2.616.756,3.969,1.145,2.7.778,5.422,1.5,7.453,2.064l3.4.913Z" transform="translate(-389.992 -174.387)" fill="#c397f2"/></g></g><path d="M426.215,258.063c-12.59,5.567-25.96,10.152-39.574,6.142-10.837-3.188-20.4-7.564-28.768-15.138-11.611-10.507-13.193-20.156-28.661-26.158-13.328-5.17-32.488-.638-46.931-12.364,21.033,7.182,40.263-15.672,60.81-14.618,21.622,1.112,30.474,19.624,46.681,31.036,11.888,8.376,26.574,10.873,40.853,11.435,5.336.21,15.876-2.193,19.85,2.873,5.592,7.127-13.236,15.546-19.407,16.316-3.345.417-6.727-.215-9.022,3.151Z" transform="translate(-282.281 -106.495)" fill="url(#q)"/><g transform="translate(35.596 93.849)" opacity="0.2" style="mix-blend-mode:multiply;isolation:isolate"><path d="M393.629,237.907l4.17-2.672q-1.412.625-2.841,1.23A6.484,6.484,0,0,0,393.629,237.907Z" transform="translate(-289.461 -190.303)" fill="#c397f2"/><path d="M431.278,241.6c-2.956.117-5.818.426-7.89.345-14.279-.564-28.965-3.059-40.853-11.434-16.207-11.415-25.059-29.924-46.681-31.037-8.558-.442-16.887,3.27-25.213,7.227a46.94,46.94,0,0,1,11.334,2.514c15.468,6,17.051,15.65,28.661,26.156,8.37,7.576,17.931,11.951,28.768,15.14,12.592,3.709,24.979.063,36.733-4.912,2.174-1.726,4.945-1.364,7.693-1.707A31.663,31.663,0,0,0,431.278,241.6Z" transform="translate(-310.64 -199.438)" fill="#c397f2"/></g><g transform="translate(30.207 21.322)"><path d="M387.525,151.671c6.729,1.063,9.595,18.494,10.772,23.5,1.145,4.88-.1,16.7,5.459,19.4,8.637,4.2,14.8-17.278,22.2-11.24,6.329,5.165,2.235,18.96.683,25.375-2.166,8.967-4.179,18.29,1.423,26.482,2.367,3.457,11.67,10.7,10.745,15.487-.944,4.879-7.742,1.261-10.452-.014-5.52-2.593-10.944-6.7-17.329-6.316-6.41.388-12.064,4.363-18.147,6.034-3.274.9-34.054,9.265-28.764-.651,2.037-3.82,21.015-14.638,7.389-18.664-8.629-2.548-17.693-.486-26.486-.443-4.774.023-15.5.518-16.121-6.242-.348-3.8,3.843-4.7,6.68-5.946,4.074-1.79,19.1-7.775,7.428-11.127-8.025-2.3-31.309,2.69-33.642-9.479-1.146-5.974,20.436-9.074,19.87-15.4-.609-7.677-26.987-15.468-22.343-21.356s30.276,2.827,37.878,1.617c6.287-.935-5.867-17.342-.441-20.1,7.435-3.768,14.478,4.725,18.527,9.817,4.093,5.15,6.676,15.128,13.112,17.933s7.728-6.066,7.977-10.642c.1-1.757-.161-6.439,1.559-7.544A2.832,2.832,0,0,1,387.525,151.671Z" transform="translate(-306.346 -141.657)" fill="url(#r)"/><g transform="translate(36.821 0.001)" opacity="0.3"><path d="M368.152,168.314c6.432,2.807,7.728-6.066,7.978-10.642a35.023,35.023,0,0,1,.338-5.15,6.421,6.421,0,0,0-3.979-2.881,2.827,2.827,0,0,0-2.017.487c-1.72,1.1-1.464,5.786-1.56,7.544-.152,2.8-.7,7.217-2.581,9.572A9.631,9.631,0,0,0,368.152,168.314Z" transform="translate(-327.859 -139.629)" fill="#986bd1"/><path d="M338.373,162.418a24.643,24.643,0,0,0,6.4.271c6.286-.935-5.868-17.342-.441-20.1.1-.049.2-.089.3-.136a8.587,8.587,0,0,0-7.515.136C331.971,145.205,342.636,160.1,338.373,162.418Z" transform="translate(-335.681 -141.658)" fill="#986bd1"/><path d="M390.158,186.323c6,2.918,10.815-6.563,15.676-10.591a7.21,7.21,0,0,0-.69-.649c-5.562-4.539-10.43,6.472-16.173,10.433A5.162,5.162,0,0,0,390.158,186.323Z" transform="translate(-322.081 -133.403)" fill="#986bd1"/><path d="M413.62,229.793c-5.52-2.593-10.944-6.7-17.331-6.316a19.18,19.18,0,0,0-2.842.405c4.578,1.069,8.739,3.93,12.955,5.911,2.425,1.142,8.126,4.156,9.971,1.274C415.3,230.61,414.321,230.123,413.62,229.793Z" transform="translate(-320.939 -120.784)" fill="#986bd1"/><path d="M359.93,231.813c2.038-3.82,21.016-14.638,7.388-18.664a40.846,40.846,0,0,0-13.876-1.155,31.146,31.146,0,0,1,6.659,1.155c13.626,4.025-5.35,14.844-7.388,18.664-2.465,4.62,2.9,5.272,9.671,4.559C359.737,235.866,358.483,234.524,359.93,231.813Z" transform="translate(-331.49 -123.737)" fill="#986bd1"/></g><g transform="translate(42.225 38.389)"><path d="M430.225,242.876s-.295-.344-.85-.985-1.407-1.546-2.451-2.728c-1.087-1.146-2.375-2.562-3.911-4.131-1.51-1.593-3.281-3.325-5.185-5.235-.939-.968-1.988-1.909-3.035-2.916-1.066-.989-2.105-2.072-3.265-3.1-2.282-2.084-4.672-4.29-7.224-6.489-1.273-1.1-2.534-2.256-3.871-3.358s-2.695-2.21-4.044-3.351l-2.037-1.708-2.108-1.649-4.233-3.315c-2.827-2.212-5.746-4.3-8.571-6.428l-8.493-5.968-8.1-5.358q-.968-.64-1.907-1.261l-1.892-1.159-3.58-2.215-3.295-2.047-1.524-.96-1.472-.846-4.92-2.868c-2.723-1.612-4.268-2.562-4.268-2.562s1.666.7,4.565,1.976l5.218,2.338c2.035.869,4.211,2.08,6.632,3.317,2.395,1.284,5.071,2.541,7.723,4.18,2.679,1.592,5.549,3.207,8.42,5.033,2.832,1.885,5.815,3.754,8.746,5.8,2.877,2.12,5.858,4.2,8.736,6.415q2.128,1.7,4.249,3.4,1.062.849,2.115,1.692l2.043,1.752c1.363,1.159,2.7,2.325,4.013,3.482s2.556,2.37,3.807,3.521c2.527,2.283,4.8,4.667,6.994,6.885,2.177,2.236,4.155,4.426,5.953,6.469q1.329,1.55,2.543,2.962c.8.946,1.517,1.882,2.214,2.739,1.4,1.706,2.519,3.285,3.472,4.549C429.276,241.334,430.225,242.876,430.225,242.876Z" transform="translate(-339.986 -172.241)" fill="#986bd1"/></g><g transform="translate(76.177 38.389)"><path d="M367.035,192.459s.092-.306.254-.841.372-1.287.618-2.217.5-2.02.788-3.192c.237-1.176.537-2.433.754-3.7.2-1.268.475-2.538.6-3.739s.328-2.325.385-3.291c.138-1.941.232-3.236.232-3.236s.113,1.3.284,3.243c.1.977.088,2.116.143,3.343s0,2.534,0,3.85-.112,2.621-.161,3.853c-.1,1.229-.171,2.38-.281,3.364s-.19,1.807-.271,2.395-.122.9-.122.9Z" transform="translate(-367.035 -172.241)" fill="#986bd1"/></g><g transform="translate(107.571 56.441)"><path d="M392.046,213.432s.142-.408.392-1.121.592-1.716.982-2.95c.408-1.228.841-2.672,1.3-4.224.486-1.546.881-3.22,1.339-4.888.239-.833.392-1.678.589-2.507s.37-1.647.547-2.436c.281-1.592.518-3.084.733-4.368.088-.641.109-1.234.158-1.759s.079-.987.108-1.364l.1-1.192s.016.433.046,1.191c.015.382.033.842.055,1.373s.062,1.133.052,1.789c-.063,1.3-.121,2.833-.213,4.472-.084.815-.169,1.658-.256,2.513s-.153,1.733-.292,2.6c-.259,1.725-.459,3.471-.761,5.082-.272,1.618-.536,3.129-.8,4.416-.241,1.289-.478,2.369-.64,3.125s-.261,1.174-.261,1.174Z" transform="translate(-392.046 -186.623)" fill="#986bd1"/></g><g transform="translate(44.977 46.908)"><path d="M357.1,180.676s-3.751.058-7.489-.077c-.934-.021-1.869-.074-2.745-.133-.438-.033-.86-.039-1.261-.09s-.779-.085-1.128-.123a8.121,8.121,0,0,1-.949-.127c-.28-.055-.523-.105-.724-.146-.4-.08-.628-.128-.628-.128l.64.058c.2.019.447.041.728.065a8.208,8.208,0,0,0,.95.02l1.123,0c.4.008.821-.034,1.255-.048.87-.039,1.8-.09,2.723-.169,3.712-.281,7.392-.747,7.392-.747Z" transform="translate(-342.179 -179.028)" fill="#986bd1"/></g><g transform="translate(66.264 71.094)"><path d="M389.269,201.6s-1.884-.039-4.708-.093c-2.828-.075-6.594-.137-10.364-.261l-5.533-.182c-1.764-.045-3.413-.115-4.829-.223-2.818-.177-4.7-.3-4.7-.3l4.7-.217c1.406-.048,3.044-.161,4.8-.306s3.633-.281,5.509-.424c3.749-.289,7.5-.639,10.308-.875l4.686-.423Z" transform="translate(-359.138 -198.297)" fill="#986bd1"/></g><path d="M412.457,206.683c1.553-6.415,5.646-20.21-.683-25.375-7.4-6.038-13.566,15.438-22.2,11.24-5.561-2.7-4.314-14.523-5.459-19.4-1.177-5.01-4.043-22.441-10.772-23.5a2.832,2.832,0,0,0-2.018.487c-1.72,1.1-1.462,5.786-1.559,7.544-.246,4.541-1.528,13.306-7.831,10.7,8.412,25.584,41.725,32,11.707,81.287,2.5-.6,4.376-1.115,5.058-1.3,6.083-1.671,11.736-5.646,18.147-6.034,6.385-.387,11.809,3.723,17.329,6.316,2.71,1.275,9.508,4.893,10.452.014.925-4.789-8.377-12.03-10.745-15.487C408.278,224.972,410.29,215.65,412.457,206.683Z" transform="translate(-292.161 -139.628)" fill="#c397f2" opacity="0.2" style="mix-blend-mode:multiply;isolation:isolate"/></g></g><g transform="translate(122.779 252.386)" opacity="0.8" style="mix-blend-mode:multiply;isolation:isolate"><path d="M513.162,298.544h0c-33.081-.689-64.58-3.208-88.684-7.094-28.3-4.565-44.474-10.8-44.381-17.111.1-6.279,16.306-11.823,44.482-15.2,24.143-2.9,55.67-4.115,88.787-3.428,33.087.685,64.593,3.206,88.719,7.1,28.287,4.558,44.455,10.8,44.359,17.1-.088,6.28-16.3,11.821-44.467,15.2C577.829,298.005,546.283,299.226,513.162,298.544Z" transform="translate(-380.097 -255.524)" fill="#fff" opacity="0"/><path d="M644.454,279.716c-.107-6.167-16.112-12.266-43.956-16.723-23.928-3.811-55.095-6.281-87.786-6.955-32.762-.677-63.954.513-87.854,3.349-27.918,3.3-43.947,8.735-44.044,14.885-.09,6.186,15.9,12.3,43.956,16.782,23.951,3.82,55.252,6.3,88.1,6.984h0c32.88.677,64.225-.512,88.217-3.346,28.346-3.319,44.157-8.792,43.372-14.976" transform="translate(-379.914 -255.44)" fill="#fbfafd" opacity="0.024"/><path d="M642.466,279.52c-.311-6.025-16.154-11.985-43.555-16.34-23.728-3.733-54.555-6.153-86.854-6.816-32.406-.665-63.261.5-86.919,3.27-27.662,3.232-43.512,8.549-43.606,14.574-.089,6.058,15.73,12.05,43.529,16.451,23.8,3.756,54.9,6.194,87.5,6.872h0c32.643.673,63.784-.484,87.621-3.26,28.525-3.259,43.937-8.661,42.28-14.751" transform="translate(-379.73 -255.356)" fill="#f7f5fb" opacity="0.049"/><path d="M640.478,279.327c-.517-5.887-16.2-11.707-43.154-15.96-23.53-3.655-54.018-6.024-85.924-6.676-32.047-.654-62.567.477-85.983,3.188-27.4,3.163-43.075,8.366-43.168,14.265-.087,5.93,15.556,11.8,43.1,16.119,23.643,3.689,54.546,6.089,86.913,6.762h0c32.4.668,63.345-.458,87.025-3.173,28.7-3.2,43.716-8.532,41.187-14.525" transform="translate(-379.547 -255.273)" fill="#f3f1f9" opacity="0.073"/><path d="M638.489,279.132c-.722-5.746-16.237-11.426-42.752-15.578-23.332-3.575-53.478-5.9-84.991-6.536-31.69-.644-61.874.459-85.049,3.109-27.146,3.09-42.638,8.181-42.728,13.952-.088,5.8,15.381,11.552,42.677,15.789,23.49,3.624,54.193,5.984,86.323,6.653h0c32.163.662,62.9-.482,86.427-3.089,28.875-3.2,43.5-8.4,40.094-14.3" transform="translate(-379.364 -255.189)" fill="#efecf7" opacity="0.098"/><path d="M636.5,278.936c-.928-5.6-16.271-11.2-42.354-15.2-23.123-3.545-52.937-5.764-84.057-6.393-31.332-.633-61.182.439-84.115,3.029-26.889,3.019-42.2,8-42.29,13.64-.084,5.675,15.208,11.3,42.251,15.458,23.338,3.557,53.841,5.879,85.733,6.541h0c31.924.659,62.456-.464,85.83-3,29.052-3.153,43.277-8.272,39-14.076" transform="translate(-379.181 -255.105)" fill="#ebe7f5" opacity="0.122"/><path d="M634.512,278.742c-1.131-5.466-16.311-10.929-41.951-14.816-22.924-3.474-52.4-5.636-83.126-6.253-30.976-.623-60.49.422-83.18,2.948-26.633,2.949-41.763,7.813-41.852,13.329-.083,5.547,15.032,11.055,41.825,15.128,23.184,3.492,53.489,5.774,85.144,6.43h0c31.684.654,62.013-.448,85.233-2.916,29.227-3.107,43.056-8.141,37.907-13.85" transform="translate(-378.998 -255.021)" fill="#e7e2f3" opacity="0.146"/><path d="M632.524,278.546c-1.337-5.325-16.354-10.658-41.551-14.434-22.724-3.405-51.86-5.508-82.194-6.114-30.618-.611-59.8.4-82.245,2.868-26.374,2.877-41.326,7.628-41.413,13.018-.082,5.421,14.858,10.807,41.4,14.8,23.031,3.425,53.137,5.667,84.553,6.32h0c31.445.649,61.573-.431,84.637-2.829,29.4-3.059,42.836-8.012,36.815-13.626" transform="translate(-378.815 -254.937)" fill="#e3def1" opacity="0.171"/><path d="M630.535,278.351c-1.54-5.185-16.393-10.387-41.148-14.052-22.525-3.335-51.324-5.379-81.263-5.975-30.262-.6-59.1.387-81.311,2.789-26.117,2.807-40.888,7.443-40.974,12.706-.082,5.293,14.682,10.559,40.97,14.466,22.877,3.361,52.785,5.563,83.964,6.211h0c31.2.643,61.131-.414,84.038-2.745,29.584-3.011,42.617-7.881,35.723-13.4" transform="translate(-378.631 -254.853)" fill="#dfd9ef" opacity="0.195"/><path d="M628.546,278.155c-1.746-5.043-16.433-10.113-40.748-13.669-22.325-3.265-50.783-5.249-80.331-5.835-29.905-.59-58.41.368-80.376,2.709-25.86,2.736-40.451,7.259-40.536,12.4-.08,5.166,14.508,10.309,40.543,14.137,22.725,3.294,52.435,5.456,83.374,6.1h0c30.966.639,60.69-.392,83.443-2.657,29.758-2.962,42.395-7.752,34.629-13.177" transform="translate(-378.448 -254.77)" fill="#dbd4ed" opacity="0.22"/><path d="M626.558,277.961c-1.952-4.9-16.475-9.842-40.346-13.29-22.126-3.193-50.246-5.119-79.4-5.694-29.547-.579-57.718.351-79.441,2.63-25.6,2.665-40.015,7.074-40.1,12.084-.078,5.037,14.333,10.06,40.118,13.806,22.571,3.228,52.081,5.351,82.784,5.989h0c30.726.634,60.249-.374,82.845-2.572C622.96,288,635.2,283.29,626.558,277.961" transform="translate(-378.265 -254.686)" fill="#d7cfeb" opacity="0.244"/><path d="M624.569,277.766c-2.154-4.763-16.516-9.571-39.946-12.91-21.925-3.123-49.7-4.989-78.465-5.552-29.191-.57-57.026.331-78.507,2.549-25.346,2.592-39.578,6.889-39.659,11.771-.075,4.91,14.16,9.812,39.691,13.475,22.419,3.163,51.729,5.245,82.195,5.879h0c30.488.628,59.808-.355,82.249-2.488,30.115-2.862,41.955-7.494,32.443-12.725" transform="translate(-378.082 -254.602)" fill="#d4cae8" opacity="0.268"/><path d="M622.58,277.571c-2.36-4.624-16.555-9.3-39.543-12.527-21.726-3.051-49.168-4.861-77.535-5.412-28.833-.559-56.332.313-77.572,2.469-25.088,2.52-39.141,6.7-39.22,11.459-.075,4.784,13.985,9.566,39.265,13.146,22.264,3.1,51.377,5.14,81.6,5.768h0c30.248.623,59.366-.333,81.652-2.4,30.292-2.812,41.734-7.366,31.349-12.5" transform="translate(-377.899 -254.518)" fill="#d0c6e6" opacity="0.293"/><path d="M620.592,277.375c-2.564-4.484-16.6-9.025-39.143-12.145-21.527-2.98-48.628-4.732-76.6-5.272-28.477-.548-55.639.3-76.638,2.389-24.829,2.45-38.7,6.52-38.78,11.149-.075,4.656,13.81,9.316,38.836,12.814,22.112,3.031,51.025,5.035,81.015,5.657h0c30.008.618,58.924-.31,81.055-2.315,30.471-2.76,41.513-7.235,30.258-12.277" transform="translate(-377.715 -254.434)" fill="#ccc1e4" opacity="0.317"/><path d="M618.6,277.181c-2.769-4.344-16.638-8.75-38.741-11.764-21.328-2.91-48.091-4.6-75.671-5.133-28.119-.537-54.948.277-75.7,2.31-24.574,2.379-38.266,6.335-38.343,10.837-.073,4.528,13.637,9.066,38.412,12.483,21.958,2.965,50.673,4.929,80.423,5.547h0c29.77.612,58.484-.287,80.459-2.228,30.647-2.709,41.294-7.1,29.163-12.052" transform="translate(-377.532 -254.35)" fill="#c8bce2" opacity="0.341"/><path d="M616.615,276.984c-2.974-4.2-16.679-8.473-38.34-11.38-21.128-2.837-47.551-4.475-74.739-4.993-27.763-.526-54.255.257-74.769,2.229-24.316,2.307-37.828,6.15-37.9,10.525-.072,4.4,13.461,8.82,37.985,12.153,21.8,2.9,50.32,4.825,79.832,5.438h0a786.556,786.556,0,0,0,79.862-2.144c30.825-2.655,41.073-6.974,28.071-11.828" transform="translate(-377.349 -254.266)" fill="#c4b7e0" opacity="0.366"/><path d="M614.626,276.79c-3.178-4.063-16.721-8.2-37.937-11-20.931-2.764-47.014-4.344-73.809-4.851-27.4-.516-53.561.24-73.832,2.149-24.06,2.237-37.391,5.966-37.467,10.215-.07,4.271,13.288,8.569,37.559,11.821,21.652,2.834,49.968,4.72,79.244,5.326h0c29.29.6,57.6-.24,79.264-2.057,31-2.6,40.853-6.845,26.978-11.6" transform="translate(-377.166 -254.183)" fill="#c0b3de" opacity="0.39"/><path d="M612.637,276.595c-3.382-3.923-16.762-7.922-37.537-10.619-20.73-2.69-46.475-4.215-72.876-4.711-27.048-.5-52.868.221-72.9,2.07-23.8,2.165-36.957,5.78-37.027,9.9-.07,4.146,13.112,8.322,37.131,11.493,21.5,2.769,49.616,4.614,78.654,5.215h0c29.052.6,57.162-.216,78.667-1.971,31.182-2.547,40.632-6.715,25.885-11.378" transform="translate(-376.982 -254.099)" fill="#bcaedc" opacity="0.415"/><path d="M610.648,276.4c-3.586-3.782-16.8-7.644-37.135-10.237-20.531-2.618-45.934-4.087-71.943-4.571-26.691-.493-52.175.2-71.963,1.989-23.544,2.1-36.518,5.6-36.588,9.591-.068,4.018,12.936,8.073,36.7,11.161,21.346,2.7,49.264,4.507,78.064,5.1h0c28.812.594,56.721-.19,78.071-1.885,31.36-2.489,40.413-6.585,24.79-11.152" transform="translate(-376.799 -254.015)" fill="#b8a9da" opacity="0.439"/><path d="M608.66,276.2c-3.792-3.641-16.844-7.368-36.735-9.856-20.332-2.543-45.4-3.958-71.011-4.43-26.333-.483-51.483.183-71.029,1.908-23.288,2.023-36.081,5.414-36.15,9.28-.065,3.89,12.763,7.825,36.279,10.831,21.192,2.636,48.912,4.4,77.472,4.993h0c28.573.589,56.281-.164,77.475-1.8,31.538-2.434,40.192-6.456,23.7-10.928" transform="translate(-376.616 -253.931)" fill="#b4a4d8" opacity="0.463"/><path d="M606.67,276.009c-4-3.5-16.886-7.089-36.332-9.473-20.133-2.469-44.859-3.83-70.081-4.29-25.976-.473-50.789.166-70.094,1.829-23.029,1.952-35.643,5.227-35.711,8.966-.065,3.766,12.588,7.578,35.852,10.5,21.039,2.569,48.559,4.3,76.884,4.883h0c28.332.584,55.84-.138,76.876-1.713,31.716-2.375,39.972-6.325,22.6-10.7" transform="translate(-376.433 -253.847)" fill="#b09fd6" opacity="0.488"/><path d="M604.683,275.815c-4.2-3.361-16.928-6.811-35.933-9.093-19.935-2.395-44.32-3.7-69.148-4.151-25.619-.461-50.1.149-69.16,1.75-22.772,1.882-35.2,5.043-35.271,8.656-.064,3.638,12.413,7.329,35.427,10.171,20.884,2.505,48.206,4.19,76.293,4.772h0c28.094.577,55.4-.11,76.28-1.627,31.895-2.318,39.751-6.2,21.513-10.478" transform="translate(-376.25 -253.764)" fill="#ac9bd4" opacity="0.512"/><path d="M602.694,275.62c-4.406-3.22-16.972-6.531-35.53-8.71-19.737-2.318-43.781-3.571-68.217-4.012-25.262-.449-49.4.132-68.224,1.669-22.516,1.811-34.77,4.858-34.834,8.346-.063,3.508,12.24,7.078,35,9.838,20.732,2.44,47.855,4.086,75.7,4.663h0c27.853.572,54.958-.083,75.684-1.541,32.073-2.258,39.53-6.065,20.418-10.254" transform="translate(-376.066 -253.68)" fill="#a896d2" opacity="0.537"/><path d="M600.706,275.424c-4.612-3.08-17.013-6.25-35.129-8.329-19.537-2.241-43.243-3.441-67.284-3.87-24.906-.439-48.712.113-67.29,1.59-22.259,1.74-34.334,4.673-34.4,8.032-.06,3.381,12.066,6.832,34.573,9.508,20.579,2.375,47.5,3.982,75.114,4.554h0c27.614.567,54.519-.055,75.087-1.456,32.251-2.2,39.309-5.936,19.325-10.029" transform="translate(-375.883 -253.596)" fill="#a491d0" opacity="0.561"/><path d="M598.716,275.23c-4.815-2.941-17.053-5.971-34.728-7.948-19.339-2.165-42.7-3.312-66.351-3.729-24.548-.429-48.019.093-66.355,1.51-22,1.667-33.9,4.489-33.958,7.721-.059,3.253,11.891,6.582,34.147,9.178,20.426,2.307,47.152,3.874,74.523,4.442h0c27.376.562,54.079-.026,74.49-1.369,32.432-2.136,39.091-5.807,18.233-9.8" transform="translate(-375.7 -253.512)" fill="#a08cce" opacity="0.585"/><path d="M596.728,275.034c-5.021-2.8-17.1-5.687-34.327-7.566-19.141-2.086-42.163-3.182-65.42-3.589-24.19-.419-47.325.075-65.42,1.428-21.744,1.6-33.459,4.305-33.519,7.412-.058,3.125,11.716,6.334,33.72,8.845,20.273,2.243,46.8,3.769,73.934,4.333h0c27.135.557,53.639,0,73.893-1.284,32.609-2.074,38.871-5.677,17.14-9.58" transform="translate(-375.517 -253.429)" fill="#9c87cc" opacity="0.61"/><path d="M594.74,274.839c-5.225-2.66-17.14-5.4-33.926-7.185-18.944-2.008-41.626-3.053-64.487-3.448-23.834-.408-46.633.058-64.487,1.349-21.487,1.525-33.021,4.12-33.08,7.1-.057,3,11.542,6.086,33.293,8.515,20.121,2.179,46.446,3.665,73.344,4.223h0c26.9.554,53.2.035,73.3-1.2,32.788-2.01,38.649-5.548,16.048-9.356" transform="translate(-375.334 -253.345)" fill="#9883ca" opacity="0.634"/><path d="M592.75,274.645c-5.429-2.519-17.181-5.122-33.524-6.8-18.744-1.929-41.087-2.925-63.556-3.309-23.476-.4-45.939.039-63.552,1.27-21.228,1.454-32.584,3.934-32.64,6.787-.055,2.871,11.366,5.835,32.866,8.184,19.967,2.113,46.095,3.56,72.753,4.112h0c26.658.547,52.758.065,72.7-1.111,32.968-1.946,38.429-5.417,14.953-9.13" transform="translate(-375.15 -253.261)" fill="#947ec8" opacity="0.659"/><path d="M590.764,274.451c-5.636-2.38-17.226-4.839-33.123-6.423-18.548-1.846-40.549-2.8-62.625-3.168-23.12-.388-45.248.021-62.616,1.19-20.972,1.383-32.148,3.751-32.2,6.476-.054,2.743,11.193,5.588,32.442,7.854,19.812,2.046,45.741,3.454,72.162,4h0c26.418.542,52.318.1,72.1-1.027,33.145-1.88,38.208-5.287,13.861-8.9" transform="translate(-374.968 -253.178)" fill="#9079c6" opacity="0.683"/><path d="M588.773,274.256c-5.838-2.239-17.268-4.553-32.721-6.041-18.349-1.766-40.01-2.666-61.692-3.028-22.762-.377-44.555,0-61.682,1.111-20.715,1.31-31.71,3.565-31.764,6.163-.054,2.616,11.017,5.34,32.014,7.524,19.659,1.979,45.389,3.349,71.572,3.891h0c26.178.537,51.878.127,71.506-.94,33.324-1.813,37.989-5.158,12.767-8.68" transform="translate(-374.784 -253.094)" fill="#8c74c4" opacity="0.707"/><path d="M586.786,274.061c-6.044-2.1-17.311-4.268-32.32-5.66-18.15-1.683-39.472-2.537-60.762-2.888-22.4-.365-43.862-.015-60.747,1.031-20.457,1.24-31.272,3.382-31.326,5.852-.051,2.488,10.844,5.091,31.588,7.194,19.506,1.915,45.038,3.243,70.983,3.779h0c25.939.534,51.436.162,70.909-.853,33.5-1.745,37.768-5.028,11.675-8.454" transform="translate(-374.601 -253.011)" fill="#8870c2" opacity="0.732"/><path d="M584.8,273.866c-6.247-1.961-17.353-3.98-31.92-5.278-17.952-1.6-38.931-2.408-59.828-2.746-22.048-.356-43.168-.035-59.812.949-20.2,1.17-30.837,3.2-30.887,5.54-.05,2.361,10.668,4.844,31.16,6.863,19.353,1.849,44.685,3.137,70.393,3.669h0c25.7.528,51,.193,70.31-.768,33.682-1.678,37.548-4.9,10.583-8.229" transform="translate(-374.418 -252.927)" fill="#856bbf" opacity="0.756"/><path d="M582.809,273.671c-6.453-1.819-17.4-3.69-31.518-4.9-17.755-1.514-38.394-2.279-58.9-2.607-21.691-.345-42.475-.053-58.878.87-19.941,1.1-30.4,3.01-30.45,5.228-.048,2.233,10.5,4.594,30.736,6.533,19.2,1.782,44.334,3.031,69.8,3.559h0c25.461.522,50.556.228,69.717-.682,33.862-1.605,37.326-4.77,9.488-8.006" transform="translate(-374.235 -252.843)" fill="#8166bd" opacity="0.78"/><path d="M580.819,273.476c-6.658-1.678-17.439-3.4-31.116-4.514-17.558-1.428-37.855-2.149-57.964-2.466-21.335-.334-41.784-.072-57.944.79-19.684,1.027-29.962,2.827-30.009,4.918s10.32,4.346,30.308,6.2c19.045,1.716,43.981,2.926,69.212,3.447h0c25.221.518,50.116.261,69.119-.595,34.04-1.536,37.106-4.639,8.395-7.781" transform="translate(-374.051 -252.76)" fill="#7d61bb" opacity="0.805"/><path d="M578.831,273.282a230.122,230.122,0,0,0-30.715-4.135c-17.361-1.338-37.316-2.02-57.033-2.325-20.977-.323-41.092-.089-57.01.709-19.427.955-29.524,2.643-29.571,4.605-.045,1.978,10.146,4.1,29.883,5.872,18.892,1.652,43.628,2.822,68.622,3.338h0c24.981.513,49.677.3,68.522-.51,34.219-1.464,36.887-4.509,7.3-7.555" transform="translate(-373.868 -252.676)" fill="#795cb9" opacity="0.829"/><path d="M576.841,273.088a261.466,261.466,0,0,0-30.313-3.753c-17.162-1.248-36.777-1.892-56.1-2.187-20.619-.311-40.4-.107-56.074.631-19.171.884-29.087,2.456-29.132,4.293-.045,1.853,9.97,3.85,29.453,5.542,18.741,1.587,43.278,2.716,68.033,3.227h0c24.743.508,49.235.331,67.925-.424,34.4-1.388,36.666-4.379,6.208-7.329" transform="translate(-373.685 -252.593)" fill="#7558b7" opacity="0.854"/><path d="M574.853,272.893c-7.271-1.258-17.567-2.529-29.911-3.371-16.967-1.157-36.239-1.761-55.17-2.046-20.263-.3-39.7-.124-55.139.552-18.915.812-28.65,2.271-28.694,3.983s9.8,3.6,29.027,5.209c18.588,1.52,42.927,2.611,67.443,3.115h0c24.5.5,48.795.367,67.328-.336,34.577-1.313,36.447-4.25,5.116-7.106" transform="translate(-373.502 -252.51)" fill="#7153b5" opacity="0.878"/><path d="M572.865,272.7c-7.477-1.118-17.611-2.236-29.512-2.989-16.767-1.062-35.7-1.633-54.235-1.905-19.908-.291-39.014-.144-54.206.469-18.656.743-28.213,2.09-28.256,3.671s9.621,3.353,28.6,4.879c18.434,1.455,42.573,2.507,66.852,3.006h0c24.263.5,48.355.4,66.73-.251,34.757-1.238,36.226-4.121,4.024-6.881" transform="translate(-373.319 -252.427)" fill="#6d4eb3" opacity="0.902"/><path d="M570.877,272.5c-7.682-.977-17.656-1.939-29.111-2.606-16.572-.965-35.161-1.505-53.3-1.766-19.55-.28-38.321-.162-53.272.39-18.4.67-27.776,1.9-27.817,3.36s9.447,3.1,28.174,4.548c18.282,1.388,42.221,2.4,66.263,2.9h0c24.025.493,47.915.47,66.134-.164,34.937-1.1,36.005-3.992,2.931-6.658" transform="translate(-373.135 -252.344)" fill="#6949b1" opacity="0.927"/><path d="M568.887,272.309c-7.885-.836-17.7-1.644-28.709-2.224-16.374-.865-34.622-1.374-52.372-1.626-19.191-.27-37.627-.181-52.336.311-18.141.6-27.34,1.718-27.378,3.046s9.272,2.856,27.749,4.219c18.128,1.323,41.869,2.295,65.672,2.787h0c23.785.487,47.476.493,65.537-.082,35.115-1.042,35.786-3.86,1.838-6.432" transform="translate(-372.952 -252.261)" fill="#6545af" opacity="0.951"/><path d="M566.9,272.116c-8.091-.7-17.741-1.328-28.307-1.843-16.18-.734-34.084-1.248-51.441-1.486-18.834-.259-36.934-.2-51.4.231-17.884.527-26.9,1.534-26.939,2.736s9.1,2.606,27.322,3.887c17.973,1.258,41.516,2.189,65.082,2.675h0c23.545.482,47.034.521,64.94.006,35.292-.984,35.565-3.732.744-6.207" transform="translate(-372.769 -252.179)" fill="#6140ad" opacity="0.976"/><path d="M564.91,271.922c-35.648-2.39-93.319-3.577-128.881-2.656-35.451.919-35.353,3.6.394,5.982,35.624,2.38,93.319,3.567,128.837,2.656,35.47-.923,35.344-3.6-.35-5.982" transform="translate(-372.586 -252.097)" fill="#5d3bab"/></g><g transform="translate(116.44)" id="arrow-to-animate"><path d="M445.153,54.453,375.047,69.717l23.714,13.806Z" transform="translate(-375.047 -54.453)" fill="url(#s)"/><path d="M438.906,54.453l-36.03,63.7-3.353-26.294Z" transform="translate(-368.8 -54.453)" fill="url(#t)"/><path d="M390.288,93.777l4.583-10.254,46.392-29.07L401.882,91.858Z" transform="translate(-371.157 -54.453)" fill="url(#u)"/><path d="M390.288,93.777l50.975-39.324L401.882,91.858Z" transform="translate(-371.157 -54.453)" fill="url(#v)"/></g><g transform="translate(124.542 39.517)"><rect width="249.012" height="159.79" transform="translate(0 79.894)" fill="url(#w)"/><path d="M605.2,309.376l-124.505-79.9L605.2,149.585Z" transform="translate(-356.188 -69.692)" fill="url(#x)"/><path d="M381.5,309.376V149.585L506.009,229.48Z" transform="translate(-381.502 -69.692)" fill="url(#y)"/><path d="M506.009,229.48,381.5,149.585H630.514Z" transform="translate(-381.502 -69.692)" fill="url(#z)"/><path d="M506.009,85.936l124.505,79.894H381.5Z" transform="translate(-381.502 -85.936)" fill="url(#aa)"/></g><g transform="translate(202.576 98.404)"><path d="M-1.594-1.594H94.541V138.473H-1.594ZM91.352,1.594H1.594V135.285H91.352Z" fill="#fff"/><path d="M457.063,148.852H515.5v3.328H457.063Z" transform="translate(-440.252 -128.34)" fill="#fff"/><path d="M457.063,161.022H515.5v3.328H457.063Z" transform="translate(-440.252 -125.235)" fill="#fff"/><path d="M457.063,173.192H515.5v3.328H457.063Z" transform="translate(-440.252 -122.129)" fill="#fff"/><path d="M457.063,185.362H515.5v3.328H457.063Z" transform="translate(-440.252 -119.023)" fill="#fff"/><path d="M457.063,197.532H515.5v3.328H457.063Z" transform="translate(-440.252 -115.917)" fill="#fff"/><path d="M485.759,218.824h22.413v3.328H485.759Z" transform="translate(-432.929 -110.483)" fill="#fff"/></g></g></g></svg>