<svg xmlns="http://www.w3.org/2000/svg" width="40.056" height="58.278" viewBox="0 0 40.056 58.278">
  <path id="question-mark-icon" d="M21.881,0C12.8,0,6.911,3.722,2.291,10.361A2.735,2.735,0,0,0,2.881,14.1l4.91,3.723a2.732,2.732,0,0,0,3.785-.472c2.851-3.572,4.966-5.629,9.42-5.629,3.5,0,7.833,2.254,7.833,5.649,0,2.567-2.119,3.885-5.577,5.824-4.032,2.261-9.368,5.074-9.368,12.112v1.114a2.732,2.732,0,0,0,2.732,2.732h8.249A2.732,2.732,0,0,0,27.6,36.424v-.657c0-4.879,14.259-5.082,14.259-18.283C41.856,7.542,31.543,0,21.881,0ZM20.741,42.509a7.885,7.885,0,1,0,7.885,7.885A7.894,7.894,0,0,0,20.741,42.509Z" transform="translate(-1.8)"/>
</svg>
