<svg xmlns="http://www.w3.org/2000/svg" width="66.004" height="57.753" viewBox="0 0 66.004 57.753">
  <path id="quote-icon" d="M59.816,2.25h-16.5a6.189,6.189,0,0,0-6.188,6.188v16.5a6.189,6.189,0,0,0,6.188,6.188H53.628v8.25a8.258,8.258,0,0,1-8.25,8.25H44.346a3.087,3.087,0,0,0-3.094,3.094v6.188A3.087,3.087,0,0,0,44.346,60h1.031A20.621,20.621,0,0,0,66,39.377V8.438A6.189,6.189,0,0,0,59.816,2.25Zm-37.127,0H6.188A6.189,6.189,0,0,0,0,8.438v16.5a6.189,6.189,0,0,0,6.188,6.188H16.5v8.25a8.258,8.258,0,0,1-8.25,8.25H7.219a3.087,3.087,0,0,0-3.094,3.094v6.188A3.087,3.087,0,0,0,7.219,60H8.25A20.621,20.621,0,0,0,28.877,39.377V8.438A6.189,6.189,0,0,0,22.689,2.25Z" transform="translate(0 -2.25)" fill="#61dafb"/>
</svg>
