<svg xmlns="http://www.w3.org/2000/svg" width="755.088" height="682.878" viewBox="0 0 755.088 682.878"><path d="M554.609,194.8q-10.742-3.581-21.484-6.764c1.194-4.907,2.255-9.814,3.315-14.721,16.312-79.04,5.57-142.565-30.635-163.518-34.879-20.025-91.772.8-149.328,50.925-5.7,4.907-11.273,10.079-16.577,15.251-3.581-3.448-7.294-6.9-11.007-10.212-60.341-53.578-120.815-76.123-157.02-55.037-34.746,20.158-45.09,79.969-30.5,154.765,1.459,7.427,3.05,14.721,4.907,22.147-8.488,2.387-16.842,5.039-24.667,7.824C50.793,219.993,0,258.718,0,298.769c0,41.377,54.108,82.886,127.711,108.084,5.968,1.989,11.936,3.979,18.036,5.7-1.989,7.957-3.713,15.782-5.3,23.871-13.925,73.6-3.05,131.955,31.7,151.98,35.807,20.688,96.016-.531,154.633-51.854,4.642-4.111,9.283-8.355,13.925-12.864,5.835,5.7,11.936,11.14,18.036,16.445,56.761,48.8,112.858,68.564,147.471,48.538,35.807-20.688,47.477-83.417,32.359-159.8q-1.79-8.753-3.979-17.9c4.244-1.194,8.355-2.52,12.466-3.846,76.521-25.33,131.955-66.309,131.955-108.349,0-40.183-52.252-79.173-124.4-103.973ZM375.177,82.2c49.334-42.968,95.352-59.811,116.306-47.743,22.413,12.864,31.033,64.85,16.975,133.149-.928,4.509-1.857,8.885-3.05,13.262a678.906,678.906,0,0,0-89.252-14.058,670.048,670.048,0,0,0-56.5-70.42c5.172-4.907,10.212-9.549,15.516-14.19ZM221.738,367.6c6.764,11.538,13.66,23.076,20.954,34.348A600.526,600.526,0,0,1,181.156,392a619.507,619.507,0,0,1,21.617-59.015c6.1,11.67,12.333,23.208,18.964,34.613Zm-40.183-159.54c19.1-4.244,39.388-7.692,60.474-10.344C235,208.721,228.1,219.993,221.6,231.4c-6.5,11.273-12.864,22.81-18.832,34.481-8.355-19.76-15.384-39.122-21.219-57.822Zm36.337,91.374c8.753-18.3,18.3-36.2,28.38-53.843S267.226,210.843,278.631,194c19.893-1.459,40.183-2.255,60.872-2.255s41.112.8,60.872,2.255q16.909,25.065,32.226,51.323T461.379,298.9q-13.328,27.452-28.646,54.108c-10.079,17.638-20.821,34.746-32.094,51.721-19.76,1.459-40.316,2.122-61.137,2.122s-40.979-.663-60.474-1.857q-17.307-25.264-32.624-51.721c-10.212-17.638-19.627-35.542-28.513-53.843Zm239.508,67.9c6.763-11.67,13.129-23.473,19.362-35.409a615.632,615.632,0,0,1,22.413,58.75,582.5,582.5,0,0,1-62.331,10.609C444.006,390.142,450.769,378.737,457.4,367.332Zm19.1-101.453c-6.233-11.67-12.6-23.341-19.23-34.746q-9.747-16.909-20.291-33.42a610.283,610.283,0,0,1,60.872,10.609A586.9,586.9,0,0,1,476.5,265.879Zm-136.729-149.2a582.345,582.345,0,0,1,39.255,47.477c-26.258-1.194-52.649-1.194-78.908,0C313.112,147.053,326.506,131.139,339.768,116.684ZM185.931,35.389c22.28-13,71.746,5.57,123.865,51.721,3.315,2.918,6.631,6.1,10.079,9.283a673.771,673.771,0,0,0-56.893,70.42,699.07,699.07,0,0,0-89.119,13.792c-1.724-6.764-3.183-13.66-4.642-20.556-12.466-64.187-4.244-112.593,16.71-124.661ZM153.439,384.97c-5.57-1.591-11.007-3.315-16.445-5.172-28.248-8.885-60.341-22.943-83.549-41.377a59.508,59.508,0,0,1-24.932-39.653c0-24.269,41.907-55.3,102.381-76.388,7.559-2.652,15.251-5.039,22.943-7.294a705.189,705.189,0,0,0,32.491,84.345,724.924,724.924,0,0,0-32.889,85.539ZM308.072,514.936a242.734,242.734,0,0,1-74.8,46.814,58.7,58.7,0,0,1-46.814,1.724c-21.086-12.2-29.839-59.015-17.9-122.009,1.459-7.427,3.05-14.853,4.907-22.147a663.452,663.452,0,0,0,90.048,13A699.863,699.863,0,0,0,320.8,503.133C316.56,507.244,312.316,511.223,308.072,514.936Zm32.491-32.226c-13.527-14.588-27.054-30.767-40.183-48.14,12.731.53,25.861.8,39.122.8,13.66,0,27.054-.265,40.316-.928a571.926,571.926,0,0,1-39.255,48.273ZM513.9,522.5A58.94,58.94,0,0,1,492.013,564c-21.086,12.2-66.044-3.713-114.582-45.355-5.57-4.774-11.14-9.946-16.843-15.251a656.044,656.044,0,0,0,55.965-71.083A653.756,653.756,0,0,0,507,418.39c1.326,5.437,2.52,10.875,3.581,16.179A241.753,241.753,0,0,1,513.9,522.5Zm24.136-142.565c-3.713,1.194-7.427,2.387-11.273,3.448a673.7,673.7,0,0,0-33.818-84.61,670.334,670.334,0,0,0,32.491-83.417c6.9,1.989,13.527,4.111,19.893,6.233,61.8,21.219,105.166,52.782,105.166,76.919,0,25.993-46.284,59.546-112.46,81.428ZM339.5,360.038A60.739,60.739,0,1,0,278.763,299.3,60.73,60.73,0,0,0,339.5,360.038Z" transform="translate(-0.313 92.27) rotate(-8)" fill="rgba(0,0,0,0.23)"/></svg>